<svg xmlns="http://www.w3.org/2000/svg" width="62.731" height="10.49" viewBox="0 0 62.731 10.49">
  <path id="パス_279" data-name="パス 279" d="M-31.258-10.182h1.864l3.241,7.915h.119l3.241-7.915h1.864V0h-1.462V-7.368h-.094l-3,7.353H-26.7l-3-7.358H-29.8V0h-1.462ZM-17.99,0V-10.182h6.384v1.322h-4.847v3.1h4.514V-4.44h-4.514v3.117h4.907V0Zm9.142,0V-10.182h3.629a4.233,4.233,0,0,1,1.966.408A2.711,2.711,0,0,1-2.082-8.648,3.436,3.436,0,0,1-1.694-6.99a3.35,3.35,0,0,1-.39,1.643,2.656,2.656,0,0,1-1.173,1.1,4.368,4.368,0,0,1-1.966.393H-7.973V-5.175h2.61a2.954,2.954,0,0,0,1.216-.214,1.416,1.416,0,0,0,.689-.621A2.045,2.045,0,0,0-3.24-6.99a2.127,2.127,0,0,0-.221-1,1.472,1.472,0,0,0-.691-.649,2.853,2.853,0,0,0-1.23-.226H-7.312V0Zm5.026-4.594L-1.307,0h-1.75L-5.522-4.594Zm6.238-5.588V0H.88V-10.182ZM4.851-8.859v-1.322h7.88v1.322H9.554V0H8.023V-8.859ZM18.572.169a3.321,3.321,0,0,1-2.013-.621,3.829,3.829,0,0,1-1.278-1.795,8.093,8.093,0,0,1-.442-2.839,7.994,7.994,0,0,1,.445-2.829A3.838,3.838,0,0,1,16.566-9.7a3.291,3.291,0,0,1,2.006-.616,3.271,3.271,0,0,1,2,.619,3.863,3.863,0,0,1,1.28,1.79A7.973,7.973,0,0,1,22.3-5.086a8.089,8.089,0,0,1-.442,2.841A3.846,3.846,0,0,1,20.58-.45,3.279,3.279,0,0,1,18.572.169Zm0-1.327A1.8,1.8,0,0,0,20.19-2.168a5.908,5.908,0,0,0,.584-2.918,7.478,7.478,0,0,0-.266-2.145,2.916,2.916,0,0,0-.761-1.332,1.678,1.678,0,0,0-1.176-.455A1.8,1.8,0,0,0,16.956-8a5.936,5.936,0,0,0-.592,2.918,7.5,7.5,0,0,0,.266,2.15,2.892,2.892,0,0,0,.758,1.327A1.692,1.692,0,0,0,18.572-1.158ZM24.77,0V-1.114l3.445-3.57q.552-.582.912-1.022a3.826,3.826,0,0,0,.539-.838,2.036,2.036,0,0,0,.179-.845,1.585,1.585,0,0,0-.239-.877,1.583,1.583,0,0,0-.651-.572,2.092,2.092,0,0,0-.93-.2,1.953,1.953,0,0,0-.955.224,1.533,1.533,0,0,0-.626.631,1.989,1.989,0,0,0-.219.955H24.761a3.043,3.043,0,0,1,.428-1.626,2.922,2.922,0,0,1,1.173-1.081,3.64,3.64,0,0,1,1.7-.385,3.625,3.625,0,0,1,1.693.38A2.9,2.9,0,0,1,30.9-8.907a2.7,2.7,0,0,1,.413,1.474A3.028,3.028,0,0,1,31.1-6.324a4.907,4.907,0,0,1-.733,1.206A20.275,20.275,0,0,1,28.912-3.51L26.888-1.392v.075h4.584V0Z" transform="translate(31.258 10.321)" fill="#1a1a1a"/>
</svg>
