<svg xmlns="http://www.w3.org/2000/svg" xmlns:xlink="http://www.w3.org/1999/xlink" width="1147" height="800" viewBox="0 0 1147 800">
  <defs>
    <clipPath id="clip-path">
      <rect id="長方形_119" data-name="長方形 119" width="1147" height="800" transform="translate(693)" fill="#fff" stroke="#707070" stroke-width="1"/>
    </clipPath>
  </defs>
  <g id="マスクグループ_7" data-name="マスクグループ 7" transform="translate(-693)" clip-path="url(#clip-path)">
    <g id="グループ_628" data-name="グループ 628">
      <path id="交差_2" data-name="交差 2" d="M16531.35,11609.87c-174.557-157.148-131.229-489.787,96.771-742.975,75.4-83.726,161.572-148.285,249.434-191.506h457.971q11.1,8.259,21.5,17.614c174.557,157.148,131.23,489.792-96.777,742.976-148.221,164.594-338.01,255.088-500.633,255.093C16672.084,11691.074,16592.43,11664.858,16531.35,11609.87Z" transform="translate(-15674.23 -10775.391)" fill="#b5002b" opacity="0.15"/>
      <path id="交差_3" data-name="交差 3" d="M16542.352,11705.849c-192.481-173.289-144.705-540.092,106.709-819.284,83.143-92.325,178.164-163.515,275.047-211.175h505q12.237,9.107,23.705,19.423c192.482,173.289,144.707,540.1-106.713,819.285-163.441,181.5-372.721,281.287-552.043,281.293C16697.537,11795.393,16609.7,11766.484,16542.352,11705.849Z" transform="translate(-15731.264 -10817.549)" fill="#b5002b" opacity="0.05"/>
    </g>
  </g>
</svg>
