<svg xmlns="http://www.w3.org/2000/svg" width="75.615" height="17.932" viewBox="0 0 75.615 17.932">
  <path id="パス_287" data-name="パス 287" d="M-37.377,0V-17.455h6.222a6.9,6.9,0,0,1,3.375.741,4.825,4.825,0,0,1,2,2.024,6.176,6.176,0,0,1,.665,2.885,6.162,6.162,0,0,1-.669,2.893,4.871,4.871,0,0,1-2.011,2.028,6.874,6.874,0,0,1-3.371.746h-4.278V-8.369h4.04a4.263,4.263,0,0,0,2.088-.447,2.759,2.759,0,0,0,1.176-1.223,4,4,0,0,0,.375-1.764,3.948,3.948,0,0,0-.375-1.756,2.694,2.694,0,0,0-1.18-1.2,4.456,4.456,0,0,0-2.118-.435h-3.307V0Zm31.7-8.727A10.465,10.465,0,0,1-6.7-3.925,7.482,7.482,0,0,1-9.5-.839,7.625,7.625,0,0,1-13.532.239,7.641,7.641,0,0,1-17.576-.839a7.476,7.476,0,0,1-2.8-3.089,10.472,10.472,0,0,1-1.023-4.8,10.465,10.465,0,0,1,1.023-4.8,7.482,7.482,0,0,1,2.8-3.085,7.641,7.641,0,0,1,4.044-1.078A7.625,7.625,0,0,1-9.5-16.615,7.482,7.482,0,0,1-6.7-13.53,10.465,10.465,0,0,1-5.674-8.727Zm-2.608,0a8.423,8.423,0,0,0-.686-3.592,5.109,5.109,0,0,0-1.875-2.216,4.913,4.913,0,0,0-2.689-.754,4.907,4.907,0,0,0-2.693.754A5.12,5.12,0,0,0-18.1-12.32a8.423,8.423,0,0,0-.686,3.592A8.423,8.423,0,0,0-18.1-5.135a5.12,5.12,0,0,0,1.871,2.216,4.907,4.907,0,0,0,2.693.754,4.913,4.913,0,0,0,2.689-.754A5.109,5.109,0,0,0-8.968-5.135,8.423,8.423,0,0,0-8.282-8.727Zm9.714-8.727V0H-1.2V-17.455Zm19.123,0V0h-2.42L9.262-12.8H9.1V0H6.467V-17.455H8.9L17.785-4.636h.162V-17.455Zm4.174,2.267v-2.267H38.238v2.267H32.792V0H30.167V-15.187Z" transform="translate(37.377 17.693)" fill="#1a1a1a"/>
</svg>
