<svg xmlns="http://www.w3.org/2000/svg" xmlns:xlink="http://www.w3.org/1999/xlink" width="350.001" height="546.001" viewBox="0 0 350.001 546.001">
  <defs>
    <clipPath id="clip-path">
      <rect id="長方形_85" data-name="長方形 85" width="30.04" height="24.993" fill="none" stroke="#cb4c6a" stroke-width="2"/>
    </clipPath>
    <clipPath id="clip-path-2">
      <rect id="長方形_75" data-name="長方形 75" width="38.845" height="42.717" fill="none" stroke="#fff" stroke-width="1"/>
    </clipPath>
  </defs>
  <g id="グループ_269" data-name="グループ 269" transform="translate(-32 -9656.999)">
    <rect id="長方形_101" data-name="長方形 101" width="350" height="206" transform="translate(32 9997)" fill="#cb4c6a"/>
    <path id="合体_7" data-name="合体 7" d="M14110,10662h350l-175,40Zm0,0v-222h350v222Z" transform="translate(-14078 -665)" fill="#e9b2bf"/>
    <path id="合体_8" data-name="合体 8" d="M14110,10558h350l-175,40Zm0,0v-118h350v118Z" transform="translate(-14078 -783)" fill="#f9ebee"/>
    <g id="グループ_441" data-name="グループ 441">
      <g id="グループ_268" data-name="グループ 268" transform="translate(88 4)">
        <path id="パス_458" data-name="パス 458" d="M9.328,6.2q-.016.224-.04.488t-.04.6q-.016.272-.024.784T9.208,9.2Q9.2,9.816,9.2,10.432V11.56q0,.736.04,1.592t.088,1.688q.048.832.088,1.536t.04,1.152a2.239,2.239,0,0,1-.3,1.136,2.2,2.2,0,0,1-.96.856,3.839,3.839,0,0,1-1.712.328A4.857,4.857,0,0,1,3.728,19.2a2.252,2.252,0,0,1-.488-3.192,2.988,2.988,0,0,1,1.312-.9,5.7,5.7,0,0,1,2.04-.328A9.705,9.705,0,0,1,9,15.064a11.175,11.175,0,0,1,2.064.736,12.814,12.814,0,0,1,1.656.936q.72.488,1.216.872l-.928,1.424q-.56-.512-1.264-1.04a10.6,10.6,0,0,0-1.552-.96,9.237,9.237,0,0,0-1.8-.688,7.7,7.7,0,0,0-2.008-.256,2.9,2.9,0,0,0-1.56.344.982.982,0,0,0-.536.824.922.922,0,0,0,.216.6,1.423,1.423,0,0,0,.648.416,3.439,3.439,0,0,0,1.12.152,2.715,2.715,0,0,0,.808-.112,1.088,1.088,0,0,0,.568-.392,1.308,1.308,0,0,0,.208-.792q0-.416-.032-1.12T7.768,14.48q-.024-.824-.056-1.6T7.68,11.56q0-.56.008-1.16T7.7,9.216q0-.584,0-1.1t0-.9q0-.208-.016-.52A2.414,2.414,0,0,0,7.616,6.2ZM2.992,7.832q.4.064.936.128t1.1.12q.568.056,1.08.08t.9.024q1.584,0,3.184-.112t3.232-.384V9.16q-.864.1-1.92.192t-2.2.16q-1.144.064-2.28.064-.528,0-1.272-.048t-1.48-.112q-.736-.064-1.264-.128Zm-.08,3.424q.4.064.928.12t1.088.088q.56.032,1.064.056t.872.024q1.3,0,2.44-.056t2.208-.16q1.064-.1,2.072-.232l-.016,1.488q-.816.112-1.6.184t-1.576.12q-.792.048-1.664.064t-1.9.016q-.5,0-1.2-.024t-1.424-.072q-.72-.048-1.28-.112ZM27.344,6.424q0,.112-.024.352t-.04.472q-.016.232-.016.344-.016.32-.024.848t-.008,1.168q0,.64.008,1.288t.016,1.224q.008.576.008.96l-1.552-.64V10.632q0-.592-.008-1.192T25.68,8.352q-.016-.488-.032-.744-.032-.4-.064-.728a3.641,3.641,0,0,0-.064-.456Zm-8.72,2.128q.672,0,1.536-.024l1.816-.048q.952-.024,1.9-.04T25.7,8.416q.864-.008,1.552-.008.672,0,1.392-.008t1.376-.008q.656,0,1.184.008t.848.008l-.016,1.5q-.7-.032-1.88-.064t-2.936-.032q-1.072,0-2.192.024t-2.24.064q-1.12.04-2.168.088t-1.96.112Zm8.512,4.688a5.309,5.309,0,0,1-.312,1.952,2.307,2.307,0,0,1-2.3,1.568,2.644,2.644,0,0,1-.968-.184,2.818,2.818,0,0,1-.864-.536,2.55,2.55,0,0,1-.624-.872,2.941,2.941,0,0,1-.232-1.208,2.708,2.708,0,0,1,.408-1.488,2.909,2.909,0,0,1,1.088-1.008,3.092,3.092,0,0,1,1.5-.368,2.9,2.9,0,0,1,1.64.44,2.727,2.727,0,0,1,1,1.2,4.212,4.212,0,0,1,.336,1.72,5.955,5.955,0,0,1-.24,1.64,5.291,5.291,0,0,1-.8,1.624,5.809,5.809,0,0,1-1.512,1.424A8.541,8.541,0,0,1,22.88,20.2l-1.344-1.328a11.276,11.276,0,0,0,1.92-.608,5.572,5.572,0,0,0,1.5-.92,3.72,3.72,0,0,0,.968-1.312,4.382,4.382,0,0,0,.336-1.784,1.937,1.937,0,0,0-.424-1.384,1.379,1.379,0,0,0-1.032-.44,1.451,1.451,0,0,0-.7.176,1.408,1.408,0,0,0-.536.512,1.553,1.553,0,0,0-.208.832,1.31,1.31,0,0,0,.44,1.04,1.479,1.479,0,0,0,1,.384,1.223,1.223,0,0,0,.792-.264,1.429,1.429,0,0,0,.456-.832,3.508,3.508,0,0,0-.064-1.464ZM29.5,6.04q.288.416.608.944t.544.96l-1.088.48q-.256-.48-.544-.992a8.982,8.982,0,0,0-.608-.944Zm2.032-.432q.288.416.608.928t.56.96l-1.1.48q-.24-.5-.544-1t-.608-.92ZM41.52,9.384q.688.064,1.368.1t1.4.04q1.44,0,2.88-.128a26.091,26.091,0,0,0,2.672-.368v1.552q-1.28.208-2.712.3T44.272,11q-.7,0-1.368-.032t-1.368-.08Zm5.808-2.8q-.032.24-.056.5t-.04.5q-.016.272-.024.72t-.016.968q-.008.52-.008,1.032,0,1.008.04,1.936t.088,1.76q.048.832.08,1.56t.032,1.32a3.712,3.712,0,0,1-.144,1.04,2.289,2.289,0,0,1-.48.88,2.223,2.223,0,0,1-.9.6,3.961,3.961,0,0,1-1.4.216,4.3,4.3,0,0,1-2.528-.64,2.076,2.076,0,0,1-.9-1.792,2.214,2.214,0,0,1,.408-1.312,2.751,2.751,0,0,1,1.168-.912,4.514,4.514,0,0,1,1.832-.336,7.654,7.654,0,0,1,1.952.232,7.843,7.843,0,0,1,1.632.624,9.018,9.018,0,0,1,1.352.856q.6.464,1.1.9l-.864,1.344a15.1,15.1,0,0,0-1.72-1.44,7.822,7.822,0,0,0-1.736-.944,5.115,5.115,0,0,0-1.84-.336,2.431,2.431,0,0,0-1.32.32.956.956,0,0,0-.5.832.907.907,0,0,0,.5.84,2.549,2.549,0,0,0,1.264.28,1.879,1.879,0,0,0,.928-.192,1.077,1.077,0,0,0,.48-.56,2.365,2.365,0,0,0,.144-.864q0-.416-.032-1.128t-.08-1.568q-.048-.856-.08-1.76t-.032-1.736v-2.7q0-.208-.024-.5a4.082,4.082,0,0,0-.072-.52Zm-7.856.144q-.048.128-.112.368t-.12.48q-.056.24-.088.384-.08.384-.184.984t-.208,1.312q-.1.712-.192,1.448t-.144,1.408q-.056.672-.056,1.184,0,.416.032.84t.1.872q.112-.336.256-.7t.3-.712q.152-.352.28-.64l.8.624q-.208.608-.448,1.3t-.424,1.32q-.184.624-.28,1.04-.032.16-.056.376a3.364,3.364,0,0,0-.024.36q.016.112.024.28t.024.312l-1.424.112a14.778,14.778,0,0,1-.44-2.152A21.159,21.159,0,0,1,36.9,14.6q0-.9.08-1.864t.2-1.9q.12-.928.232-1.7T37.6,7.9q.032-.3.072-.656t.056-.672Zm15.52,1.136q.5.016.872.024t.68.008h9.368q.408,0,.792-.016-.016.32-.024.68t-.008.7v7.856q0,.208.008.536t.008.664q0,.336.008.576t.008.288H64.96a2.471,2.471,0,0,0,.016-.384q0-.32.008-.752t.008-.8V9.5h-8.3v8.28q0,.312.008.608t.016.52q.008.224.008.272H54.976q0-.048.008-.288t.016-.56q.008-.32.016-.648t.008-.568V8.568Q55.024,8.184,54.992,7.864Zm10.64,8.816v1.6h-9.76v-1.6Zm17.1-10.608a7.313,7.313,0,0,1,.448.672q.24.4.464.8t.384.72l-1.056.448q-.24-.48-.592-1.12A11.056,11.056,0,0,0,81.712,6.5Zm1.808-.688q.224.3.472.7t.48.792q.232.392.376.68l-1.04.464q-.256-.512-.616-1.136a10.755,10.755,0,0,0-.7-1.072ZM83.968,9.4a2.674,2.674,0,0,0-.24.464q-.112.272-.208.512a14.188,14.188,0,0,1-.592,1.7,16.06,16.06,0,0,1-.944,1.9,13.933,13.933,0,0,1-1.28,1.848,13.69,13.69,0,0,1-2.632,2.464A16.666,16.666,0,0,1,74.3,20.248L72.816,18.9a14.625,14.625,0,0,0,2.728-1.064,12.083,12.083,0,0,0,2.08-1.36,13.162,13.162,0,0,0,1.608-1.56,9.521,9.521,0,0,0,1.1-1.528,15.507,15.507,0,0,0,.848-1.68,7.442,7.442,0,0,0,.488-1.512h-5.7l.608-1.44h4.88a5.285,5.285,0,0,0,.656-.04,2.59,2.59,0,0,0,.544-.12Zm-5.3-2.464q-.24.352-.472.768t-.36.64A15.825,15.825,0,0,1,76.584,10.3a17.164,17.164,0,0,1-1.752,2A15.639,15.639,0,0,1,72.608,14.1L71.2,13.064a13.34,13.34,0,0,0,1.856-1.328,12.662,12.662,0,0,0,1.416-1.416A14.611,14.611,0,0,0,75.5,8.952q.432-.656.72-1.184a5.088,5.088,0,0,0,.32-.672,7.621,7.621,0,0,0,.272-.768Zm10.544,6.1A26.639,26.639,0,0,0,93.1,11.7a24.067,24.067,0,0,0,3.1-1.608,15.921,15.921,0,0,0,1.656-1.152q.808-.64,1.528-1.328A17.783,17.783,0,0,0,100.64,6.28l1.344,1.28q-.7.72-1.52,1.424t-1.72,1.352q-.9.648-1.848,1.224-.88.544-2,1.1t-2.368,1.056q-1.248.5-2.528.9ZM95.9,10.92l1.776-.464V17.7q0,.32.008.7t.032.7a2.778,2.778,0,0,0,.072.5H95.808q.016-.176.048-.5t.04-.7q.008-.376.008-.7Zm13.424-3.84q.432.288.992.712t1.144.9q.584.48,1.112.928a9.25,9.25,0,0,1,.848.8l-1.264,1.3q-.3-.32-.8-.776T110.3,10q-.568-.488-1.128-.928t-1.008-.744Zm-1.648,10.7a18.139,18.139,0,0,0,2.48-.552,16.1,16.1,0,0,0,2.088-.784,17.655,17.655,0,0,0,1.72-.9,14.2,14.2,0,0,0,2.36-1.808,16.859,16.859,0,0,0,1.9-2.112,12.145,12.145,0,0,0,1.3-2.112l.976,1.744a14.521,14.521,0,0,1-1.416,2.08,17.439,17.439,0,0,1-1.9,1.992,15.79,15.79,0,0,1-2.3,1.72,19.732,19.732,0,0,1-1.752.96,17.079,17.079,0,0,1-2.048.832,16.684,16.684,0,0,1-2.328.592Z" transform="translate(52 9713.616)" fill="#1a1a1a"/>
        <g id="グループ_263" data-name="グループ 263">
          <path id="パス_459" data-name="パス 459" d="M16.415-11.778H13.756a4.065,4.065,0,0,0-.571-1.5,4.2,4.2,0,0,0-1.023-1.1,4.416,4.416,0,0,0-1.351-.682,5.333,5.333,0,0,0-1.581-.23,4.907,4.907,0,0,0-2.7.759,5.134,5.134,0,0,0-1.875,2.224,8.407,8.407,0,0,0-.686,3.58,8.452,8.452,0,0,0,.686,3.6A5.067,5.067,0,0,0,6.537-2.915a4.94,4.94,0,0,0,2.685.75,5.4,5.4,0,0,0,1.572-.226,4.45,4.45,0,0,0,1.351-.669,4.162,4.162,0,0,0,1.027-1.087,4.084,4.084,0,0,0,.584-1.479l2.659.009a7.132,7.132,0,0,1-.822,2.365,6.553,6.553,0,0,1-1.56,1.858A7.059,7.059,0,0,1,11.864-.187,8.006,8.006,0,0,1,9.2.239,7.619,7.619,0,0,1,5.165-.839,7.457,7.457,0,0,1,2.374-3.929a10.508,10.508,0,0,1-1.018-4.8,10.465,10.465,0,0,1,1.023-4.8,7.491,7.491,0,0,1,2.8-3.085A7.6,7.6,0,0,1,9.2-17.693a8.264,8.264,0,0,1,2.6.4,6.963,6.963,0,0,1,2.169,1.159,6.451,6.451,0,0,1,1.594,1.858A7.216,7.216,0,0,1,16.415-11.778Zm5.5,4.006V0H19.364V-17.455h2.514v6.494h.162a3.762,3.762,0,0,1,1.406-1.679,4.427,4.427,0,0,1,2.472-.622,4.823,4.823,0,0,1,2.357.554,3.784,3.784,0,0,1,1.568,1.649A5.98,5.98,0,0,1,30.4-8.327V0H27.852V-8.02a3.16,3.16,0,0,0-.741-2.237,2.679,2.679,0,0,0-2.062-.8,3.35,3.35,0,0,0-1.615.384A2.738,2.738,0,0,0,22.317-9.55,3.642,3.642,0,0,0,21.912-7.773ZM39.452.264a6.381,6.381,0,0,1-3.328-.831,5.538,5.538,0,0,1-2.148-2.344,7.864,7.864,0,0,1-.754-3.55,7.939,7.939,0,0,1,.754-3.545A5.784,5.784,0,0,1,36.089-12.4a5.823,5.823,0,0,1,3.183-.861,6.415,6.415,0,0,1,2.148.366,5.2,5.2,0,0,1,1.866,1.151,5.41,5.41,0,0,1,1.3,2.033,8.509,8.509,0,0,1,.477,3.03v.9H34.662V-7.687h7.909a3.787,3.787,0,0,0-.409-1.786A3.11,3.11,0,0,0,41.016-10.7a3.237,3.237,0,0,0-1.726-.452,3.326,3.326,0,0,0-1.871.524,3.542,3.542,0,0,0-1.227,1.364,3.93,3.93,0,0,0-.43,1.82v1.491a4.913,4.913,0,0,0,.464,2.233,3.275,3.275,0,0,0,1.3,1.4,3.839,3.839,0,0,0,1.952.482A3.977,3.977,0,0,0,40.8-2.05a2.805,2.805,0,0,0,1.031-.626,2.74,2.74,0,0,0,.665-1.031l2.412.435a4.358,4.358,0,0,1-1.036,1.862A5.017,5.017,0,0,1,42-.175,6.959,6.959,0,0,1,39.452.264Zm13.969,0A5.988,5.988,0,0,1,50.152-.6a5.66,5.66,0,0,1-2.1-2.391,7.974,7.974,0,0,1-.733-3.494,7.909,7.909,0,0,1,.75-3.524A5.751,5.751,0,0,1,50.182-12.4a5.892,5.892,0,0,1,3.213-.861,6.171,6.171,0,0,1,2.659.55,4.837,4.837,0,0,1,1.888,1.538,4.657,4.657,0,0,1,.857,2.31h-2.48a2.982,2.982,0,0,0-.933-1.585,2.778,2.778,0,0,0-1.947-.665,3.163,3.163,0,0,0-1.862.558,3.636,3.636,0,0,0-1.24,1.585,6.087,6.087,0,0,0-.443,2.425,6.387,6.387,0,0,0,.435,2.472,3.658,3.658,0,0,0,1.232,1.611,3.141,3.141,0,0,0,1.879.571,3.153,3.153,0,0,0,1.317-.268,2.685,2.685,0,0,0,1-.771,2.947,2.947,0,0,0,.567-1.21H58.8a4.819,4.819,0,0,1-.827,2.267A4.764,4.764,0,0,1,56.126-.307,6.036,6.036,0,0,1,53.42.264Zm10.457-4.7-.017-3.111H64.3l5.216-5.54h3.051L66.622-6.784h-.4ZM61.534,0V-17.455h2.548V0ZM69.8,0,65.114-6.222,66.869-8l6.06,8Z" transform="translate(88.645 9705)" fill="#1a1a1a"/>
          <g id="グループ_14" data-name="グループ 14" transform="translate(-361 9681)">
            <rect id="長方形_53" data-name="長方形 53" width="30" height="30" transform="translate(413)" fill="#fff"/>
            <path id="パス_460" data-name="パス 460" d="M-3.07.157A3.084,3.084,0,0,1-4.94-.42,3.555,3.555,0,0,1-6.126-2.087a7.515,7.515,0,0,1-.411-2.636,7.423,7.423,0,0,1,.413-2.627A3.564,3.564,0,0,1-4.933-9.011,3.056,3.056,0,0,1-3.07-9.584a3.037,3.037,0,0,1,1.86.575A3.587,3.587,0,0,1-.021-7.347,7.4,7.4,0,0,1,.392-4.723,7.511,7.511,0,0,1-.018-2.084,3.571,3.571,0,0,1-1.2-.418,3.045,3.045,0,0,1-3.07.157Zm0-1.233a1.668,1.668,0,0,0,1.5-.937,5.486,5.486,0,0,0,.542-2.71,6.944,6.944,0,0,0-.247-1.992,2.708,2.708,0,0,0-.706-1.237A1.558,1.558,0,0,0-3.07-8.374a1.669,1.669,0,0,0-1.5.942,5.512,5.512,0,0,0-.549,2.71,6.963,6.963,0,0,0,.247,2,2.685,2.685,0,0,0,.7,1.233A1.571,1.571,0,0,0-3.07-1.076ZM5.623-9.455V0H4.192V-8.023H4.136L1.874-6.546V-7.913L4.233-9.455Z" transform="translate(428 20)" fill="#1a1a1a"/>
          </g>
        </g>
      </g>
      <g id="グループ_434" data-name="グループ 434" transform="translate(-445 991)">
        <path id="パス_99" data-name="パス 99" d="M40,0A40,40,0,1,1,0,40,40,40,0,0,1,40,0Z" transform="translate(497 8685)" fill="#f9ebee"/>
        <path id="パス_99_-_アウトライン" data-name="パス 99 - アウトライン" d="M40,4A36.011,36.011,0,0,0,25.988,73.173,36.01,36.01,0,0,0,54.012,6.827,35.771,35.771,0,0,0,40,4m0-4A40,40,0,1,1,0,40,40,40,0,0,1,40,0Z" transform="translate(497 8685)" fill="#fff"/>
        <g id="グループ_433" data-name="グループ 433" transform="translate(521.98 8712.504)">
          <path id="線_25" data-name="線 25" d="M4.406,5.051a1,1,0,0,1-.677-.264L-.677.736A1,1,0,0,1-.736-.677,1,1,0,0,1,.677-.736L5.084,3.315a1,1,0,0,1-.677,1.736Z" transform="translate(15.339 8.446)" fill="#cb4c6a"/>
          <path id="線_26" data-name="線 26" d="M0,5.051a1,1,0,0,1-.736-.323A1,1,0,0,1-.677,3.315L3.73-.736a1,1,0,0,1,1.413.059A1,1,0,0,1,5.084.736L.677,4.787A1,1,0,0,1,0,5.051Z" transform="translate(15.339 12.497)" fill="#cb4c6a"/>
          <g id="グループ_170" data-name="グループ 170">
            <g id="グループ_169" data-name="グループ 169" clip-path="url(#clip-path)">
              <path id="線_27" data-name="線 27" d="M18.622,1H0A1,1,0,0,1-1,0,1,1,0,0,1,0-1H18.622a1,1,0,0,1,1,1A1,1,0,0,1,18.622,1Z" transform="translate(1.124 12.497)" fill="#cb4c6a"/>
              <path id="パス_96" data-name="パス 96" d="M70.358,32.744H51.16a2.777,2.777,0,0,1-2.774-2.774V25.811a1,1,0,1,1,2,0V29.97a.775.775,0,0,0,.774.774h19.2a.775.775,0,0,0,.774-.774v-19.2A.775.775,0,0,0,70.358,10H51.16a.775.775,0,0,0-.774.774v4.161a1,1,0,0,1-2,0V10.774A2.777,2.777,0,0,1,51.16,8h19.2a2.777,2.777,0,0,1,2.774,2.774v19.2A2.777,2.777,0,0,1,70.358,32.744Z" transform="translate(-43.216 -7.876)" fill="#cb4c6a"/>
            </g>
          </g>
        </g>
      </g>
    </g>
    <g id="グループ_442" data-name="グループ 442">
      <g id="グループ_267" data-name="グループ 267" transform="translate(88 150)">
        <path id="パス_461" data-name="パス 461" d="M4.24,8.9v.928h7.5V8.9Zm0-1.872v.9h7.5v-.9ZM2.784,6.008h10.48V10.84H2.784ZM.9,11.608H15.088v1.216H.9Zm7.2,2.048h5.488V14.84H8.1Zm-4.96.08H6.944v1.088H3.136Zm0,2.016H6.944v1.072H3.136ZM9.9,14.744a7.228,7.228,0,0,0,2.12,2.768A8.47,8.47,0,0,0,15.44,19.16a3,3,0,0,0-.32.344q-.176.216-.328.432a4.131,4.131,0,0,0-.248.392,8.88,8.88,0,0,1-3.576-1.96A9.119,9.119,0,0,1,8.688,15.1Zm3.232-1.088h.272l.256-.048.928.368a9,9,0,0,1-1.432,2.88,9.423,9.423,0,0,1-2.168,2.08A11.565,11.565,0,0,1,8.336,20.3a3.52,3.52,0,0,0-.36-.632A4.115,4.115,0,0,0,7.52,19.1a8.827,8.827,0,0,0,3.448-1.92,8.542,8.542,0,0,0,1.312-1.5,6.283,6.283,0,0,0,.856-1.8ZM.752,18.136q.784-.064,1.792-.152t2.128-.192q1.12-.1,2.24-.216l.016,1.232q-1.632.176-3.216.352t-2.848.3ZM6.16,11.992H7.616v8.352H6.16Zm-3.936.032H3.616v6.528H2.224ZM27.056,10.84h5.968v1.408H27.056ZM18.528,7.128h7.12V8.376h-7.12Zm-.176,6.352H25.68v1.3H18.352ZM18.3,10.744h7.52v1.264H18.3Zm11.552.7h1.472v8.816H29.856Zm-8.5-5.856h1.472V7.72H21.36Zm0,6.272h1.472v8.464H21.36Zm4.992-5.088L28.16,7.3q-.032.192-.368.256v4.832q0,.912-.088,1.944a14.5,14.5,0,0,1-.344,2.112,9.78,9.78,0,0,1-.76,2.1,7.46,7.46,0,0,1-1.32,1.864,1.992,1.992,0,0,0-.288-.384,4.721,4.721,0,0,0-.408-.392,1.739,1.739,0,0,0-.392-.264,6.407,6.407,0,0,0,1.168-1.616,8.1,8.1,0,0,0,.648-1.792,11.728,11.728,0,0,0,.28-1.832q.064-.9.064-1.752Zm5.3-1.1,1.216,1.1a14.012,14.012,0,0,1-1.736.648q-.968.3-1.976.528T27.2,8.36a3.19,3.19,0,0,0-.192-.584,3.717,3.717,0,0,0-.288-.568q.9-.192,1.816-.44t1.736-.528A10.493,10.493,0,0,0,31.648,5.672ZM22.72,14.984q.176.112.536.392l.768.6q.408.32.752.6t.488.408l-.88,1.1q-.192-.224-.512-.56t-.7-.7q-.376-.36-.72-.672t-.568-.5ZM19.408,8.648l1.184-.272a7.218,7.218,0,0,1,.416,1.088,6.1,6.1,0,0,1,.224,1.008l-1.248.352a5.89,5.89,0,0,0-.192-1.056A7.651,7.651,0,0,0,19.408,8.648Zm4.064-.3,1.344.288q-.224.576-.448,1.144t-.416.984l-1.216-.272q.128-.3.264-.68t.264-.76Q23.392,8.664,23.472,8.344Zm-2.1,5.856,1.072.4a11.937,11.937,0,0,1-.96,1.76,14.845,14.845,0,0,1-1.232,1.632,10.2,10.2,0,0,1-1.3,1.264,4.008,4.008,0,0,0-.456-.576,5.067,5.067,0,0,0-.536-.512,8.254,8.254,0,0,0,1.288-1.056,11.278,11.278,0,0,0,1.2-1.4A10.246,10.246,0,0,0,21.376,14.2ZM36.1,6.5H50.352V7.8H36.1ZM39.664,5.5h1.5V8.952h-1.5Zm5.536,0h1.5V8.952H45.2Zm-3.616,6.912v1.1h3.264v-1.1Zm0-2.032v1.072h3.264V10.376Zm-1.36-1.04h6.032v5.2H40.224Zm2.3-1.216,1.488.256q-.208.464-.424.9t-.376.768l-1.264-.272q.16-.352.328-.816A6.6,6.6,0,0,0,42.528,8.12Zm6.176.624,1.312.64a14.362,14.362,0,0,1-1.152,1.208q-.624.584-1.168,1l-1.152-.608q.352-.288.752-.68t.776-.8A8.627,8.627,0,0,0,48.7,8.744ZM36.1,15.368H50.3v1.3H36.1Zm6.336-1.088h1.5v6.048h-1.5Zm-.512,1.568,1.168.512A10.112,10.112,0,0,1,41.8,17.584a12.706,12.706,0,0,1-1.584,1.08,17.416,17.416,0,0,1-1.752.888,14.21,14.21,0,0,1-1.792.648,6.889,6.889,0,0,0-.424-.624,3.6,3.6,0,0,0-.5-.56,15.749,15.749,0,0,0,1.76-.528,16.218,16.218,0,0,0,1.712-.736,12.659,12.659,0,0,0,1.528-.9A6.786,6.786,0,0,0,41.92,15.848Zm2.464.1a7.3,7.3,0,0,0,1.64,1.28,13.287,13.287,0,0,0,2.2,1.032,14.684,14.684,0,0,0,2.432.664,4.407,4.407,0,0,0-.5.576,4.873,4.873,0,0,0-.408.624,14.1,14.1,0,0,1-2.456-.848,13.131,13.131,0,0,1-2.24-1.28,9.261,9.261,0,0,1-1.752-1.6ZM36.448,9.592l1.1-.768a12.819,12.819,0,0,1,1.2,1.04,6.486,6.486,0,0,1,.928,1.088l-1.168.848a5.833,5.833,0,0,0-.872-1.1A13.17,13.17,0,0,0,36.448,9.592Zm9.744,3.232.864-.944q.544.256,1.16.6t1.184.7q.568.36.936.648l-.912,1.056a9.272,9.272,0,0,0-.9-.672q-.552-.368-1.168-.736T46.192,12.824Zm-10.176.768q.7-.256,1.68-.672t2.016-.864l.3,1.2q-.848.416-1.736.84t-1.64.776ZM62.9,7.032h1.44v8.96H62.9ZM66.144,5.8h1.472V18.456a2.564,2.564,0,0,1-.168,1.048,1.073,1.073,0,0,1-.584.536,3.278,3.278,0,0,1-1.088.248q-.672.056-1.712.056a2.118,2.118,0,0,0-.1-.5q-.088-.272-.184-.552a3.271,3.271,0,0,0-.208-.488q.736.032,1.352.032h.84a.5.5,0,0,0,.3-.1.379.379,0,0,0,.088-.288ZM53.52,6.936h8.848V8.264H53.52Zm1.92,6.5h5.008v1.216H55.44Zm0,2.416h5.008V17.1H55.44ZM57.1,5.608h1.488V7.72H57.1Zm2.8,6.9H61.36v7.808H59.9Zm.08-4.816,1.408.4a7.469,7.469,0,0,1-1.88,2.136,11.614,11.614,0,0,1-2.608,1.52,20.643,20.643,0,0,1-3.032,1.016q-.08-.16-.216-.392t-.288-.472a2.24,2.24,0,0,0-.3-.384,19,19,0,0,0,2.88-.808A10.348,10.348,0,0,0,58.36,9.456,5.43,5.43,0,0,0,59.984,7.688ZM55.808,7.64a8.268,8.268,0,0,0,1.5,1.544A8.537,8.537,0,0,0,58.96,10.2a11.242,11.242,0,0,0,1.776.648q.912.248,1.856.424a3.49,3.49,0,0,0-.472.608,3.277,3.277,0,0,0-.344.7q-.992-.224-1.96-.544a11.452,11.452,0,0,1-1.88-.816,9.086,9.086,0,0,1-1.752-1.256A10.867,10.867,0,0,1,54.576,8.1Zm-.976,4.848h1.456v2.48q0,.624-.064,1.336a8.884,8.884,0,0,1-.256,1.448,6.725,6.725,0,0,1-.552,1.424,4.985,4.985,0,0,1-.952,1.264,3.308,3.308,0,0,0-.36-.272q-.216-.144-.44-.288a3.228,3.228,0,0,0-.4-.224,4.335,4.335,0,0,0,.84-1.112,5.4,5.4,0,0,0,.464-1.232,8.724,8.724,0,0,0,.208-1.24q.056-.608.056-1.12ZM77.488,14.68h6v1.1h-6Zm-1.712-8h9.536v1.1H75.776Zm.416,1.968h8.7V9.7h-8.7Zm-.9,1.984h10.5v1.12H75.3Zm2.208,6.16h6.032V17.88H77.5Zm-1.088-4.24h7.04v1.136H77.824v6.656H76.416Zm6.752,0h1.44v6.24a2.207,2.207,0,0,1-.128.824.883.883,0,0,1-.512.472,2.937,2.937,0,0,1-.96.192q-.576.032-1.424.032a4.843,4.843,0,0,0-.168-.664A3.974,3.974,0,0,0,81.152,19q.56.032,1.064.032h.664q.288,0,.288-.272ZM79.744,5.5h1.488v5.488H79.744Zm-6.976,0h1.376V20.328H72.768Zm-1.312,3.12,1.1.144q-.016.64-.112,1.432t-.232,1.568a14.242,14.242,0,0,1-.312,1.4l-1.136-.384a12.273,12.273,0,0,0,.32-1.288q.144-.728.24-1.48T71.456,8.616Zm2.656-.448.976-.4q.256.544.52,1.192T76,10.04l-1.024.5a10.531,10.531,0,0,0-.36-1.136Q74.368,8.728,74.112,8.168Zm22.848,3.5h5.088V12.9H96.96ZM96.208,6.2H102V7.544H97.6v12.8H96.208Zm5.056,0h1.408V9.272a1.986,1.986,0,0,1-.144.824.952.952,0,0,1-.56.472,3.844,3.844,0,0,1-1.04.184q-.64.04-1.552.04a3.022,3.022,0,0,0-.16-.688,4.616,4.616,0,0,0-.272-.64q.448.016.856.024t.712.008a3.984,3.984,0,0,0,.432-.016.648.648,0,0,0,.256-.056.184.184,0,0,0,.064-.168Zm-2.528,6.336a13.867,13.867,0,0,0,1.112,2.712,10.833,10.833,0,0,0,1.656,2.3,7.462,7.462,0,0,0,2.128,1.592,4.04,4.04,0,0,0-.552.568,5.854,5.854,0,0,0-.472.648,8.418,8.418,0,0,1-2.168-1.848,12.843,12.843,0,0,1-1.688-2.592,17.886,17.886,0,0,1-1.184-3.08Zm2.864-.864h.272l.256-.064.912.336a16.725,16.725,0,0,1-.9,3.368,12.978,12.978,0,0,1-1.544,2.888,9.162,9.162,0,0,1-2.176,2.176,3.712,3.712,0,0,0-.472-.544q-.3-.288-.536-.48A8.327,8.327,0,0,0,99.424,17.4a11.038,11.038,0,0,0,1.408-2.56,13.4,13.4,0,0,0,.768-2.848ZM89.152,7.032h6.032v1.28H89.152Zm-.144,8.88h6.384v1.28H89.008ZM88.592,9.7h7.2v1.28h-7.2Zm.272,3.392h6.72v1.28h-6.72Zm2.688-7.568h1.392v4.64H91.552Zm0,8.112h1.392v6.672H91.552Zm2.16-2.784,1.264.32q-.24.56-.456,1.112a7.72,7.72,0,0,1-.44.952l-1.088-.32q.128-.288.264-.656t.256-.744Q93.632,11.144,93.712,10.856Zm-4.048.3,1.136-.288a6.715,6.715,0,0,1,.448,1.064,6.423,6.423,0,0,1,.256,1l-1.2.336a5.706,5.706,0,0,0-.232-1.008A10.616,10.616,0,0,0,89.664,11.16Zm20.176,8.816q-.5-.608-1.1-1.248T107.528,17.5q-.616-.592-1.176-1.056l1.312-1.152q.576.464,1.216,1.08t1.256,1.264q.616.648,1.064,1.192Zm18.432-.752a4.342,4.342,0,0,1-2.176-.552,4.032,4.032,0,0,1-1.552-1.584,5.032,5.032,0,0,1-.576-2.488,5.24,5.24,0,0,1,.336-1.928,4.389,4.389,0,0,1,.912-1.456,4.091,4.091,0,0,1,1.3-.92,3.591,3.591,0,0,1,1.472-.32,3.536,3.536,0,0,1,1.968.52,3.274,3.274,0,0,1,1.216,1.456,5.337,5.337,0,0,1,.416,2.184q0,.272-.024.52a2.579,2.579,0,0,1-.072.424h-5.712a3.377,3.377,0,0,0,.44,1.432,2.54,2.54,0,0,0,.944.928,2.681,2.681,0,0,0,1.336.328,3.374,3.374,0,0,0,1.1-.176,4.717,4.717,0,0,0,.992-.48l.64,1.168a6.526,6.526,0,0,1-1.352.672A4.648,4.648,0,0,1,128.272,19.224ZM125.76,13.8h4.224a2.706,2.706,0,0,0-.5-1.744,1.772,1.772,0,0,0-1.464-.624,2.044,2.044,0,0,0-1.024.272,2.272,2.272,0,0,0-.808.8A3.177,3.177,0,0,0,125.76,13.8Zm11.248-6.656q.368.048.768.072t.784.024h5.408q.368,0,.792-.024t.808-.072V8.792q-.384-.032-.8-.048t-.8-.016h-5.392q-.4,0-.816.016t-.752.048Zm-1.888,4.048q.336.032.712.056t.744.024h10.48q.256,0,.648-.016a6.1,6.1,0,0,0,.7-.064V12.84q-.288-.016-.664-.024t-.68-.008h-10.48q-.352,0-.736.008t-.72.04Zm7.824.848a14.8,14.8,0,0,1-.24,2.784,7.924,7.924,0,0,1-.768,2.24,5.875,5.875,0,0,1-.768,1.1,8.564,8.564,0,0,1-1.1,1.048,7.315,7.315,0,0,1-1.32.848l-1.472-1.088a7.177,7.177,0,0,0,1.688-1.008,5.555,5.555,0,0,0,1.272-1.376,5.3,5.3,0,0,0,.784-2.088,17.481,17.481,0,0,0,.192-2.44Zm3.5-6.112a7.308,7.308,0,0,1,.448.672q.24.4.464.8t.384.72l-1.056.448q-.24-.48-.592-1.12a11.053,11.053,0,0,0-.672-1.088Zm1.808-.688q.224.3.472.7t.48.792q.232.392.376.68l-1.04.464q-.256-.512-.616-1.136a10.756,10.756,0,0,0-.7-1.072Zm3.92,9.44a17,17,0,0,0,2.136-.64,21.574,21.574,0,0,0,2.024-.864q.944-.464,1.6-.848a17.43,17.43,0,0,0,1.5-1.056,17.627,17.627,0,0,0,1.352-1.168A12.441,12.441,0,0,0,161.824,9l1.248,1.216a15.65,15.65,0,0,1-1.176,1.112q-.712.616-1.552,1.224t-1.688,1.12q-.528.32-1.2.656T156.024,15q-.76.336-1.552.64t-1.528.544Zm5.584-1.408,1.712-.368v5.872q0,.256.008.568t.024.568a2.729,2.729,0,0,0,.048.4H157.7q.016-.144.032-.4t.024-.568q.008-.312.008-.568Zm13.52-6.3q.368.048.768.08t.784.032H179.3q.368,0,.792-.032t.808-.08V8.616q-.384-.032-.8-.04t-.8-.008h-6.448q-.4,0-.816.008t-.752.04Zm-1.888,4.064q.336.032.712.056t.744.024h10.464q.256,0,.656-.024t.688-.056V12.68q-.272-.032-.648-.04t-.7-.008H170.848q-.368,0-.752.008t-.7.04Zm7.824.848a14.7,14.7,0,0,1-.24,2.768,8.151,8.151,0,0,1-.768,2.256,5.961,5.961,0,0,1-.776,1.08,9.33,9.33,0,0,1-1.1,1.048,7.072,7.072,0,0,1-1.312.848l-1.472-1.072a6.892,6.892,0,0,0,1.68-1.016,6.228,6.228,0,0,0,1.28-1.368,5.3,5.3,0,0,0,.784-2.088,17.585,17.585,0,0,0,.192-2.456Zm9.872-.016.664.04q.392.024.848.04t.872.016h8.7q.576,0,1.04-.04t.752-.056v1.984L199.2,13.8q-.5-.032-1.024-.032h-8.7q-.656,0-1.312.024t-1.072.056Zm28.656-5.12q-.016.3-.04.672t-.024.8v2.848a22.942,22.942,0,0,1-.1,2.352,8.792,8.792,0,0,1-.328,1.7,5.981,5.981,0,0,1-.552,1.264,6.568,6.568,0,0,1-.776,1.048,5.786,5.786,0,0,1-1.184,1.064,8.653,8.653,0,0,1-1.36.76q-.688.3-1.28.512l-1.328-1.392a10.336,10.336,0,0,0,2.12-.784,5.964,5.964,0,0,0,1.72-1.3,5.778,5.778,0,0,0,.68-.992,4.367,4.367,0,0,0,.4-1.1,9.539,9.539,0,0,0,.192-1.392q.056-.784.056-1.84V8.216q0-.432-.032-.8t-.064-.672Zm-7.424.128q-.016.24-.04.544t-.024.64v5.36q0,.3.024.68t.04.616h-1.84q.016-.192.04-.568t.024-.728V8.056q0-.224-.016-.584t-.048-.6ZM3.728,35.08q.432.288.992.712t1.144.9q.584.48,1.112.928a9.249,9.249,0,0,1,.848.8L6.56,39.72q-.3-.32-.8-.776T4.7,38q-.568-.488-1.128-.928T2.56,36.328ZM2.08,45.784a18.139,18.139,0,0,0,2.48-.552,16.1,16.1,0,0,0,2.088-.784,17.654,17.654,0,0,0,1.72-.9,14.2,14.2,0,0,0,2.36-1.808,16.859,16.859,0,0,0,1.9-2.112,12.145,12.145,0,0,0,1.3-2.112l.976,1.744a14.521,14.521,0,0,1-1.416,2.08,17.439,17.439,0,0,1-1.9,1.992,15.79,15.79,0,0,1-2.3,1.72,19.734,19.734,0,0,1-1.752.96,17.079,17.079,0,0,1-2.048.832,16.684,16.684,0,0,1-2.328.592ZM29.936,34.072a7.312,7.312,0,0,1,.448.672q.24.4.464.8t.384.72l-1.056.448q-.24-.48-.592-1.12a11.054,11.054,0,0,0-.672-1.088Zm1.808-.688q.224.3.472.7t.48.792q.232.392.376.68l-1.04.464q-.256-.512-.616-1.136a10.756,10.756,0,0,0-.7-1.072ZM31.168,37.4a2.674,2.674,0,0,0-.24.464q-.112.272-.208.512a14.189,14.189,0,0,1-.592,1.7,16.059,16.059,0,0,1-.944,1.9,13.933,13.933,0,0,1-1.28,1.848,13.69,13.69,0,0,1-2.632,2.464A16.666,16.666,0,0,1,21.5,48.248L20.016,46.9a14.625,14.625,0,0,0,2.728-1.064,12.083,12.083,0,0,0,2.08-1.36,13.161,13.161,0,0,0,1.608-1.56,9.521,9.521,0,0,0,1.1-1.528,15.507,15.507,0,0,0,.848-1.68,7.442,7.442,0,0,0,.488-1.512h-5.7l.608-1.44h4.88a5.285,5.285,0,0,0,.656-.04,2.59,2.59,0,0,0,.544-.12Zm-5.3-2.464q-.24.352-.472.768t-.36.64A15.825,15.825,0,0,1,23.784,38.3a17.165,17.165,0,0,1-1.752,2A15.639,15.639,0,0,1,19.808,42.1L18.4,41.064a13.34,13.34,0,0,0,1.856-1.328,12.662,12.662,0,0,0,1.416-1.416A14.611,14.611,0,0,0,22.7,36.952q.432-.656.72-1.184a5.088,5.088,0,0,0,.32-.672,7.62,7.62,0,0,0,.272-.768Zm18,1.9q-.288-.32-.7-.712t-.848-.776a9.5,9.5,0,0,0-.768-.624L42.72,33.9q.272.208.712.576t.888.768a9.24,9.24,0,0,1,.72.7ZM39.1,35.3q.08.144.184.36t.216.432q.112.216.192.36.48.9,1.016,2.016t1,2.176q.3.7.648,1.6t.68,1.848q.336.952.632,1.832t.5,1.552l-1.744.448q-.24-.976-.576-2.128t-.736-2.3q-.4-1.152-.848-2.16-.352-.8-.688-1.552t-.648-1.408q-.312-.656-.616-1.168-.16-.256-.4-.624a7.469,7.469,0,0,0-.448-.624ZM36,39.992q.4-.1.816-.24t.624-.24q.752-.288,1.624-.68t1.792-.8q.92-.408,1.856-.76a15.794,15.794,0,0,1,1.824-.568,7.088,7.088,0,0,1,1.672-.216,4.43,4.43,0,0,1,2,.416A3.152,3.152,0,0,1,49.5,38.04a2.957,2.957,0,0,1,.456,1.616,3.509,3.509,0,0,1-.44,1.776,3.071,3.071,0,0,1-1.288,1.208,4.476,4.476,0,0,1-2.08.44,6.066,6.066,0,0,1-1.32-.144,10.339,10.339,0,0,1-1.112-.3l.048-1.6a7.323,7.323,0,0,0,1.08.384,4.375,4.375,0,0,0,1.16.16,2.809,2.809,0,0,0,1.264-.256,1.815,1.815,0,0,0,.776-.7,1.979,1.979,0,0,0,.264-1.024,1.5,1.5,0,0,0-.24-.824,1.706,1.706,0,0,0-.72-.608,2.708,2.708,0,0,0-1.184-.232,6.492,6.492,0,0,0-1.792.288,18.873,18.873,0,0,0-2.072.744q-1.08.456-2.12.968t-1.928.96q-.888.448-1.48.72ZM55.552,47,53.168,35.208h1.9l1.1,6.128.32,1.888q.16.944.32,1.9h.064q.192-.96.392-1.9t.408-1.888l1.5-6.128h1.648l1.52,6.128q.208.928.4,1.88t.4,1.912h.08q.16-.96.3-1.9l.288-1.888,1.12-6.128H66.72L64.4,47H62.112l-1.584-6.544-.28-1.368q-.136-.664-.264-1.336H59.92q-.128.672-.272,1.336t-.288,1.368L57.808,47Zm18.224.224a4.342,4.342,0,0,1-2.176-.552,4.032,4.032,0,0,1-1.552-1.584,5.032,5.032,0,0,1-.576-2.488,5.241,5.241,0,0,1,.336-1.928,4.39,4.39,0,0,1,.912-1.456,4.091,4.091,0,0,1,1.3-.92,3.591,3.591,0,0,1,1.472-.32,3.536,3.536,0,0,1,1.968.52,3.274,3.274,0,0,1,1.216,1.456,5.336,5.336,0,0,1,.416,2.184q0,.272-.024.52a2.578,2.578,0,0,1-.072.424H71.28a3.377,3.377,0,0,0,.44,1.432,2.54,2.54,0,0,0,.944.928A2.681,2.681,0,0,0,74,45.768a3.374,3.374,0,0,0,1.1-.176,4.717,4.717,0,0,0,.992-.48l.64,1.168a6.526,6.526,0,0,1-1.352.672A4.648,4.648,0,0,1,73.776,47.224ZM71.264,41.8h4.224a2.706,2.706,0,0,0-.5-1.744,1.772,1.772,0,0,0-1.464-.624A2.044,2.044,0,0,0,72.5,39.7a2.272,2.272,0,0,0-.808.8A3.177,3.177,0,0,0,71.264,41.8Zm13.584,5.424a2.868,2.868,0,0,1-1.232-.3,4.419,4.419,0,0,1-1.184-.832h-.064l-.16.912H80.752V34.248h1.84v3.376l-.064,1.5a5.245,5.245,0,0,1,1.256-.832,3.333,3.333,0,0,1,3.264.232,3.438,3.438,0,0,1,1.184,1.56,6.288,6.288,0,0,1,.408,2.368,5.706,5.706,0,0,1-.536,2.576,4.036,4.036,0,0,1-1.4,1.632A3.35,3.35,0,0,1,84.848,47.224ZM84.5,45.672A1.891,1.891,0,0,0,85.64,45.3a2.468,2.468,0,0,0,.8-1.08,4.524,4.524,0,0,0,.3-1.736A5.176,5.176,0,0,0,86.52,40.9a2.108,2.108,0,0,0-.664-1.024,1.834,1.834,0,0,0-1.184-.36,2.217,2.217,0,0,0-1.024.264,4.358,4.358,0,0,0-1.056.808v4.3a3.091,3.091,0,0,0,1,.608A2.778,2.778,0,0,0,84.5,45.672ZM97.536,34.76h8.688v1.088l-8.688.016Zm-.416,3.952,9.36-.016v1.168H97.1ZM97.1,44.7l9.408-.016V45.9H97.088Zm1.552-1.968H105.1V43.7H98.656Zm-.8-6.016L105.9,36.7l-.016,1.088L97.84,37.8ZM99.344,33.5h1.36l-.016,5.728H99.344Zm3.616,0h1.36v5.728h-1.376Zm-1.824,5.776h1.248l-.016,6.112H101.12Zm3.136,1.376h1.376l.016,6.272a1.958,1.958,0,0,1-.128.792.909.909,0,0,1-.5.44,2.779,2.779,0,0,1-.92.168q-.568.024-1.368.024a5.047,5.047,0,0,0-.152-.608,3.919,3.919,0,0,0-.232-.592q.544.016,1.016.024t.616.008a.447.447,0,0,0,.232-.064.25.25,0,0,0,.056-.192Zm-6.288,0h6.8l.016,1.072H99.264v6.624l-1.28.016Zm-5.7-2.176,4.3-.016v1.168l-4.32.016Zm.08-4.432,4.176-.016-.016,1.168-4.16.016Zm-.08,6.64,4.3-.016v1.168l-4.32.016Zm-.7-4.464L97.04,36.2v1.216l-5.456.016Zm1.392,6.672,3.68.016V47.64l-3.664.016-.016-1.216,2.4-.016.016-2.3h-2.4Zm-.72,0L93.5,42.9v5.424l-1.264.016Zm21.52-7.984H123.84v2.768h-1.456v-1.52h-7.216v1.52h-1.392Zm4.16-1.408h1.536v2.4h-1.536Zm.048,4.64h1.44v6.416h-1.44Zm1.552,7.92,1.136-.768q.56.3,1.192.7t1.216.784a11.574,11.574,0,0,1,.984.728l-1.232.864a8.67,8.67,0,0,0-.9-.728q-.568-.408-1.2-.824T119.536,46.056Zm-2.992-.64,1.44.544a9.13,9.13,0,0,1-1.136.92q-.656.456-1.352.848t-1.336.68q-.128-.144-.336-.352t-.432-.408q-.224-.2-.384-.328a14.836,14.836,0,0,0,1.944-.848A7.764,7.764,0,0,0,116.544,45.416Zm-.7-2.432v1.152H121.7V42.984Zm0-2.208V41.9H121.7v-1.12ZM114.5,39.624H123.1v5.648H114.5Zm.528-2.224h7.552v1.216h-7.552Zm-5.056-2.688.848-1.12a10.156,10.156,0,0,1,1.032.472q.536.28,1.016.576a5.565,5.565,0,0,1,.784.568l-.88,1.248a4.9,4.9,0,0,0-.76-.6q-.472-.312-1-.624A7.878,7.878,0,0,0,109.968,34.712Zm-.816,4.336.832-1.152a10.223,10.223,0,0,1,1.04.44q.544.264,1.024.544a5.642,5.642,0,0,1,.784.536l-.864,1.264a7.661,7.661,0,0,0-.776-.56q-.472-.3-1-.584A11.306,11.306,0,0,0,109.152,39.048Zm.432,8.192q.384-.64.848-1.5t.952-1.808q.488-.952.9-1.9l1.184.912q-.368.864-.8,1.768T111.8,46.5q-.44.88-.872,1.648Zm18.16-.912q1.424-.032,3.288-.1t3.952-.144l4.152-.16-.064,1.376q-1.984.112-4.008.208t-3.856.176q-1.832.08-3.256.128Zm-.112-4.864h13.28v1.424h-13.28Zm2.784-3.072H138V39.8h-7.584Zm1.392,4,1.712.464q-.368.768-.776,1.576t-.824,1.552q-.416.744-.784,1.336l-1.344-.448q.368-.624.752-1.4t.72-1.592Q131.6,43.064,131.808,42.392Zm3.888,1.664,1.312-.688a18.717,18.717,0,0,1,1.456,1.344q.72.736,1.32,1.472a12.04,12.04,0,0,1,.968,1.344l-1.392.848a12.358,12.358,0,0,0-.944-1.368q-.592-.76-1.3-1.536T135.7,44.056Zm-1.52-9.088a12.254,12.254,0,0,1-1.664,1.928,19.671,19.671,0,0,1-2.28,1.872,19.455,19.455,0,0,1-2.616,1.56,2.649,2.649,0,0,0-.232-.424,5.353,5.353,0,0,0-.328-.448q-.176-.216-.336-.392a15,15,0,0,0,2.672-1.552,18.282,18.282,0,0,0,2.3-1.968,11.54,11.54,0,0,0,1.632-2.032H134.9a13.466,13.466,0,0,0,1.44,1.7,16.3,16.3,0,0,0,1.712,1.488,17.569,17.569,0,0,0,1.864,1.232,13.841,13.841,0,0,0,1.912.912,4.865,4.865,0,0,0-.52.664q-.248.376-.456.712a20.189,20.189,0,0,1-2.5-1.44A20.652,20.652,0,0,1,136,36.944,13.7,13.7,0,0,1,134.176,34.968Zm11.1,1.776q.48.048,1.016.072t1.016.024q.928,0,1.9-.088a19.335,19.335,0,0,0,1.92-.272,16.426,16.426,0,0,0,1.816-.456l.048,1.472q-.736.208-1.68.384t-1.968.288a18.678,18.678,0,0,1-2.032.112q-.448,0-.944-.016l-.976-.032Zm5.9-2.528q-.1.4-.248,1.008T150.6,36.5q-.184.672-.376,1.3-.384,1.152-.96,2.44t-1.248,2.5a17.977,17.977,0,0,1-1.36,2.128l-1.536-.784a16.029,16.029,0,0,0,1.072-1.464q.528-.808,1-1.68t.856-1.7q.384-.824.624-1.512a17.319,17.319,0,0,0,.5-1.808,10.494,10.494,0,0,0,.256-1.888Zm3.76,4.96q-.016.5-.016.944t.016.928q.016.368.04.952t.056,1.24q.032.656.056,1.248t.024.96a2.6,2.6,0,0,1-.3,1.232,2.148,2.148,0,0,1-.936.9,3.658,3.658,0,0,1-1.7.336,4.981,4.981,0,0,1-1.688-.272,2.759,2.759,0,0,1-1.216-.816,2.069,2.069,0,0,1-.456-1.376,2.181,2.181,0,0,1,.424-1.328,2.82,2.82,0,0,1,1.176-.9,4.329,4.329,0,0,1,1.744-.328,7.8,7.8,0,0,1,2.528.392,9.65,9.65,0,0,1,2.072.976,12.724,12.724,0,0,1,1.592,1.176l-.848,1.36q-.464-.416-1.024-.872a9.371,9.371,0,0,0-1.24-.848,7.646,7.646,0,0,0-1.472-.648,5.456,5.456,0,0,0-1.688-.256,2.315,2.315,0,0,0-1.288.32.949.949,0,0,0-.488.816,1,1,0,0,0,.424.832,2.036,2.036,0,0,0,1.24.32,2,2,0,0,0,.968-.2,1.1,1.1,0,0,0,.5-.552,2.053,2.053,0,0,0,.144-.784q0-.416-.024-1.12t-.064-1.52q-.04-.816-.08-1.64t-.056-1.464Zm3.008.608a11.2,11.2,0,0,0-1.12-.792q-.672-.424-1.376-.816t-1.248-.632l.816-1.232q.432.192.976.464t1.088.576q.544.3,1.008.6t.768.5Zm15.728-1.792q-.3.192-.648.376t-.728.376q-.528.256-1.224.608t-1.472.776q-.776.424-1.544.92a7.321,7.321,0,0,0-1.68,1.448,2.536,2.536,0,0,0-.624,1.64,1.634,1.634,0,0,0,.9,1.472,5.412,5.412,0,0,0,2.688.528q.864,0,1.808-.072t1.824-.208q.88-.136,1.536-.28l-.016,1.808q-.624.112-1.424.2t-1.72.144q-.92.056-1.944.056a11.632,11.632,0,0,1-2.136-.184,5.48,5.48,0,0,1-1.7-.592,2.862,2.862,0,0,1-1.52-2.68,3.746,3.746,0,0,1,.4-1.728,5.388,5.388,0,0,1,1.12-1.464,12.271,12.271,0,0,1,1.664-1.3q.8-.528,1.608-.976t1.528-.824q.72-.376,1.216-.664.4-.224.7-.424t.592-.424Zm-7.616-3.36q.384,1.04.816,2.024t.872,1.832q.44.848.808,1.5l-1.408.832q-.416-.688-.872-1.592t-.912-1.912q-.456-1.008-.888-2.016Zm7.856-.192q.208.288.44.688l.464.8a8.014,8.014,0,0,1,.376.72l-1.04.464q-.24-.5-.6-1.136t-.68-1.1Zm1.824-.672q.208.288.456.688t.48.8q.232.4.376.688l-1.04.464q-.256-.528-.616-1.144a11.214,11.214,0,0,0-.7-1.064Zm6.72,14.208q-.5-.608-1.1-1.248T180.152,45.5q-.616-.592-1.176-1.056l1.312-1.152q.576.464,1.216,1.08t1.256,1.264q.616.648,1.064,1.192Zm16.688-12.208q.864.1,1.96.144t2.328.048q.768,0,1.568-.032t1.544-.08q.744-.048,1.336-.112V37.4q-.544.048-1.3.1t-1.576.072q-.824.024-1.576.024-1.216,0-2.272-.048t-2.016-.128Zm.944,6.592a7.239,7.239,0,0,0-.224.872,4.607,4.607,0,0,0-.08.856,1.59,1.59,0,0,0,.864,1.384,5.317,5.317,0,0,0,2.72.536q1.088,0,2.1-.072t1.9-.216a12.23,12.23,0,0,0,1.52-.336l.016,1.76q-.624.144-1.472.28t-1.864.208q-1.016.072-2.152.072a9.647,9.647,0,0,1-2.9-.376,3.767,3.767,0,0,1-1.784-1.1,2.659,2.659,0,0,1-.608-1.776,6.8,6.8,0,0,1,.1-1.224q.1-.568.216-1.032Zm8.224-8.32a7.314,7.314,0,0,1,.448.672q.24.4.464.8t.384.72l-1.056.464q-.24-.5-.592-1.136a9.268,9.268,0,0,0-.688-1.088Zm1.824-.672q.208.288.464.688t.488.8q.232.4.376.688l-1.04.464q-.256-.528-.616-1.144a11.214,11.214,0,0,0-.7-1.064ZM3.488,67.16l9.056-.016v1.408l-9.04.016Zm0,3.456,9.056-.016v1.408H3.5Zm0,3.472,9.056-.016V75.48L3.5,75.5ZM2.48,63.64l11.28-.016V76.28l-1.584.016V65.08H4V76.344H2.48Zm4.608-2.176,1.808.224q-.288.736-.592,1.472t-.576,1.28l-1.36-.256q.144-.4.28-.872t.256-.96Q7.024,61.864,7.088,61.464Zm14.768,4.144h7.376v1.12H21.856Zm0,2.384h7.376v1.12H21.856Zm6.7-4.944h1.568V74.392a2.638,2.638,0,0,1-.184,1.1,1.172,1.172,0,0,1-.664.584,4.228,4.228,0,0,1-1.288.24q-.808.048-1.992.048a3.33,3.33,0,0,0-.12-.528q-.088-.288-.2-.576a4.482,4.482,0,0,0-.224-.5q.56.016,1.112.024t.968.008h.576a.585.585,0,0,0,.352-.1.412.412,0,0,0,.1-.312ZM18.432,70.712l3.1-.152q1.776-.088,3.784-.208T29.3,70.1l-.032,1.3q-1.888.16-3.8.312t-3.664.28q-1.752.128-3.144.224Zm12.9-4.224,1.456.72a18.556,18.556,0,0,1-3.608,3.976,23.892,23.892,0,0,1-4.608,2.968,33.84,33.84,0,0,1-5.288,2.08,3.8,3.8,0,0,0-.28-.456q-.184-.264-.384-.52a4.613,4.613,0,0,0-.36-.416,29.681,29.681,0,0,0,5.264-1.88,22.135,22.135,0,0,0,4.464-2.768A15.4,15.4,0,0,0,31.328,66.488Zm-6.544-5.04,1.84.24q-.336.656-.72,1.312t-.7,1.1l-1.36-.288q.272-.528.536-1.184A10.893,10.893,0,0,0,24.784,61.448Zm-3.888,1.6h8.16v1.328H22.4v6.992H20.9Zm23.52,1.008q-.16,1.232-.408,2.6a23.1,23.1,0,0,1-.664,2.712,14.828,14.828,0,0,1-1.08,2.76,5.738,5.738,0,0,1-1.3,1.72,2.28,2.28,0,0,1-1.488.592,2.331,2.331,0,0,1-1.488-.552,3.946,3.946,0,0,1-1.12-1.552,5.83,5.83,0,0,1-.432-2.328,6.016,6.016,0,0,1,.552-2.544,6.884,6.884,0,0,1,1.528-2.128,7.21,7.21,0,0,1,2.272-1.456,7.35,7.35,0,0,1,2.8-.528,6.947,6.947,0,0,1,2.6.464A5.828,5.828,0,0,1,48.168,65.1a5.561,5.561,0,0,1,1.256,1.928,6.4,6.4,0,0,1,.432,2.352,6.239,6.239,0,0,1-.7,2.984A5.53,5.53,0,0,1,47.12,74.5a8.675,8.675,0,0,1-3.3,1.112l-.944-1.5q.416-.048.768-.1t.656-.12a5.973,5.973,0,0,0,1.464-.544,4.836,4.836,0,0,0,1.24-.936,4.189,4.189,0,0,0,.856-1.336,4.555,4.555,0,0,0,.312-1.728,5.115,5.115,0,0,0-.3-1.784,4.022,4.022,0,0,0-.9-1.432,4.135,4.135,0,0,0-1.456-.952,5.24,5.24,0,0,0-1.952-.344,5.6,5.6,0,0,0-2.336.464A5.4,5.4,0,0,0,39.5,66.512a5.5,5.5,0,0,0-1.08,1.64,4.549,4.549,0,0,0-.144,3.208,2.123,2.123,0,0,0,.56.888.93.93,0,0,0,1.408-.072,4.105,4.105,0,0,0,.744-1.144,14.291,14.291,0,0,0,.744-2,20.909,20.909,0,0,0,.616-2.456q.248-1.3.36-2.552Zm9.088,7.2H68.112v1.408H53.5Zm6-6.9H62.1v.992H59.5ZM64,62.28h2.528v1.248H64Zm.08,3.008H66.4V66.52H64.08Zm0,2.944h2.272v1.232H64.08Zm-8.848-2.944h2.3V66.52h-2.3Zm.048,2.944h2.256v1.232H55.28Zm2.7-5.968h5.68v9.568H62.528v-8.4H59.072v8.4H57.984Zm2.32,4.928v1.824h.96V67.192Zm-.688-.928h2.352v3.664H59.616ZM54.64,62.328l1.664.32q-.048.176-.352.224l.256,8.992h-1.3Zm11.088-.048h1.328q-.016,1.184-.04,2.512t-.072,2.656q-.048,1.328-.1,2.512t-.12,2.08H65.408q.08-.912.136-2.112t.1-2.528q.048-1.328.064-2.64T65.728,62.28Zm-8.352-.72L58.4,62.7q-.688.352-1.456.672t-1.44.544a3.512,3.512,0,0,0-.176-.52,4.635,4.635,0,0,0-.256-.536q.608-.272,1.248-.632A10.757,10.757,0,0,0,57.376,61.56Zm4.7,12.192,1.1-1.008q.88.4,1.792.856t1.72.9q.808.448,1.384.816l-1.44,1.04q-.528-.368-1.272-.824t-1.592-.92Q62.928,74.152,62.08,73.752Zm-4.016-1.008,1.392.944a16.585,16.585,0,0,1-1.432.976q-.808.5-1.664.936t-1.592.76q-.224-.24-.568-.552t-.616-.52q.768-.32,1.616-.744t1.608-.9A11.693,11.693,0,0,0,58.064,72.744Zm18.416-4.88h9.232V69.32H76.48Zm.576-3.84H85.12V65.48H77.056Zm3.12-2.432h1.536v14.72H80.176Zm-.208,7.12,1.184.368a15.751,15.751,0,0,1-1.224,2.5,13.872,13.872,0,0,1-1.616,2.184,9.788,9.788,0,0,1-1.9,1.632,2.871,2.871,0,0,0-.3-.408q-.184-.216-.376-.432a3.283,3.283,0,0,0-.368-.36,8.28,8.28,0,0,0,1.856-1.392,12.041,12.041,0,0,0,1.584-1.92A11.861,11.861,0,0,0,79.968,68.712Zm1.952-.032a14.514,14.514,0,0,0,1.04,2.1,12.814,12.814,0,0,0,1.392,1.92,8.963,8.963,0,0,0,1.568,1.432q-.176.144-.392.36a5.526,5.526,0,0,0-.408.456q-.192.24-.336.448a10.98,10.98,0,0,1-1.552-1.72,16.8,16.8,0,0,1-1.376-2.208,20.389,20.389,0,0,1-1.072-2.408Zm-9.664-5.76h3.712v9.456H72.256V70.9h2.336V64.376H72.256Zm-.768,0H72.88V73.64H71.488Zm25.728,1.136q-.16,1.232-.408,2.6a23.1,23.1,0,0,1-.664,2.712,14.828,14.828,0,0,1-1.08,2.76,5.739,5.739,0,0,1-1.3,1.72,2.28,2.28,0,0,1-1.488.592,2.331,2.331,0,0,1-1.488-.552,3.946,3.946,0,0,1-1.12-1.552,5.83,5.83,0,0,1-.432-2.328,6.016,6.016,0,0,1,.552-2.544,6.884,6.884,0,0,1,1.528-2.128,7.21,7.21,0,0,1,2.272-1.456,7.35,7.35,0,0,1,2.8-.528,6.947,6.947,0,0,1,2.6.464,5.828,5.828,0,0,1,1.984,1.288,5.561,5.561,0,0,1,1.256,1.928,6.4,6.4,0,0,1,.432,2.352,6.239,6.239,0,0,1-.7,2.984A5.53,5.53,0,0,1,99.92,74.5a8.675,8.675,0,0,1-3.3,1.112l-.944-1.5q.416-.048.768-.1t.656-.12a5.973,5.973,0,0,0,1.464-.544,4.836,4.836,0,0,0,1.24-.936,4.188,4.188,0,0,0,.856-1.336,4.555,4.555,0,0,0,.312-1.728,5.115,5.115,0,0,0-.3-1.784,4.022,4.022,0,0,0-.9-1.432,4.136,4.136,0,0,0-1.456-.952,5.24,5.24,0,0,0-1.952-.344,5.6,5.6,0,0,0-2.336.464A5.4,5.4,0,0,0,92.3,66.512a5.5,5.5,0,0,0-1.08,1.64,4.549,4.549,0,0,0-.144,3.208,2.123,2.123,0,0,0,.56.888.93.93,0,0,0,1.408-.072,4.105,4.105,0,0,0,.744-1.144,14.29,14.29,0,0,0,.744-2,20.91,20.91,0,0,0,.616-2.456q.248-1.3.36-2.552Zm16.1-1.808-.1.384q-.056.208-.088.384-.144.7-.272,1.688t-.208,2.088q-.08,1.1-.08,2.16A16.05,16.05,0,0,0,112.7,71.1a16.729,16.729,0,0,0,.36,1.888q.224.88.48,1.664l-1.456.432a17.334,17.334,0,0,1-.456-1.688,20.383,20.383,0,0,1-.344-2.056,18.608,18.608,0,0,1-.128-2.176q0-.8.048-1.648t.12-1.656q.072-.808.16-1.528t.136-1.28a3.781,3.781,0,0,0,.04-.448q.008-.24.008-.4Zm-2.688,1.872q1.456,0,2.816-.072t2.616-.232a23.279,23.279,0,0,0,2.408-.432l.016,1.488q-.848.144-1.84.264t-2.048.2q-1.056.08-2.088.128t-1.928.048q-.368,0-.864-.024l-.984-.048-.84-.04-.048-1.488q.288.048.792.1t1.048.08Q110.224,64.12,110.624,64.12Zm6.768,2.08q-.048.128-.12.336l-.144.416q-.072.208-.136.352a14.767,14.767,0,0,1-1.128,2.68,13,13,0,0,1-1.44,2.128,9.645,9.645,0,0,1-1.592,1.528,8.143,8.143,0,0,1-1.72,1.008,4.669,4.669,0,0,1-1.88.416,2.288,2.288,0,0,1-1.008-.224,1.672,1.672,0,0,1-.736-.7,2.443,2.443,0,0,1-.272-1.216,4.127,4.127,0,0,1,.352-1.648,6.312,6.312,0,0,1,.968-1.552,7.483,7.483,0,0,1,1.432-1.312,7.954,7.954,0,0,1,1.728-.928,11.4,11.4,0,0,1,1.72-.464,9.333,9.333,0,0,1,1.752-.176,6.111,6.111,0,0,1,2.648.536,4.31,4.31,0,0,1,1.76,1.464,3.637,3.637,0,0,1,.632,2.1,4.931,4.931,0,0,1-.28,1.656,4.125,4.125,0,0,1-.9,1.456,5.409,5.409,0,0,1-1.624,1.144,8.757,8.757,0,0,1-2.424.7l-.864-1.328a6.976,6.976,0,0,0,2.5-.688,4.014,4.014,0,0,0,1.528-1.312,3.009,3.009,0,0,0,.52-1.7,2.424,2.424,0,0,0-.408-1.368,2.924,2.924,0,0,0-1.2-1,4.432,4.432,0,0,0-1.944-.384,6.8,6.8,0,0,0-1.9.248,10.534,10.534,0,0,0-1.448.52,5.7,5.7,0,0,0-1.552,1.016,5.416,5.416,0,0,0-1.088,1.352,2.839,2.839,0,0,0-.4,1.376.934.934,0,0,0,.216.672.838.838,0,0,0,.632.224,3.206,3.206,0,0,0,1.328-.352,6.068,6.068,0,0,0,1.5-1.04,11.577,11.577,0,0,0,1.848-2.128,10.342,10.342,0,0,0,1.368-3.072,2.9,2.9,0,0,0,.088-.344q.04-.2.072-.416t.048-.36Zm9.488-3.168q.3.032.648.048t.632.016q.24,0,.776-.008t1.216-.024q.68-.016,1.352-.04t1.208-.056l.792-.048q.432-.032.664-.064a1.755,1.755,0,0,0,.36-.08l.88,1.152q-.24.16-.5.32a5.1,5.1,0,0,0-.512.368q-.3.224-.792.616t-1.048.864q-.56.472-1.1.92t-.976.8a4.783,4.783,0,0,1,.96-.216,8.278,8.278,0,0,1,.96-.056,5.4,5.4,0,0,1,2.384.512,4.253,4.253,0,0,1,1.664,1.376,3.388,3.388,0,0,1,.608,2,3.962,3.962,0,0,1-.664,2.256,4.386,4.386,0,0,1-1.92,1.552,7.461,7.461,0,0,1-3.048.56,5.632,5.632,0,0,1-1.936-.3,2.927,2.927,0,0,1-1.288-.856,1.939,1.939,0,0,1-.456-1.272,2.048,2.048,0,0,1,.328-1.112,2.349,2.349,0,0,1,.928-.832,2.957,2.957,0,0,1,1.384-.312,3.457,3.457,0,0,1,1.816.44,3.034,3.034,0,0,1,1.12,1.16,3.511,3.511,0,0,1,.424,1.568l-1.456.208a2.587,2.587,0,0,0-.552-1.568,1.666,1.666,0,0,0-1.352-.608,1.272,1.272,0,0,0-.84.272.811.811,0,0,0-.328.64.926.926,0,0,0,.536.832,2.786,2.786,0,0,0,1.384.3,6.907,6.907,0,0,0,2.32-.344,3.031,3.031,0,0,0,1.456-1.008,2.611,2.611,0,0,0,.5-1.608,2.169,2.169,0,0,0-.448-1.344,2.913,2.913,0,0,0-1.232-.92,4.608,4.608,0,0,0-1.792-.328,6.651,6.651,0,0,0-1.752.216,5.962,5.962,0,0,0-1.48.624,8.464,8.464,0,0,0-1.352,1.008q-.664.6-1.368,1.368l-1.168-1.184q.48-.384,1.056-.864l1.16-.968q.584-.488,1.1-.928t.872-.728l.816-.664q.48-.392.992-.824l.976-.824q.464-.392.768-.664-.256.016-.7.032t-.984.04l-1.08.048q-.544.024-.992.048t-.688.04q-.288.016-.6.04t-.584.056Zm21.04,5.232,1.152-.832,1.208,1.1q.648.592,1.264,1.2t1.152,1.176q.536.568.9,1.016l-1.248.992q-.336-.464-.856-1.048t-1.12-1.216q-.6-.632-1.24-1.248T147.92,68.264Zm.112-6.768H149.6v3.44a14.516,14.516,0,0,1-.1,1.632,10.354,10.354,0,0,1-.352,1.728,7.609,7.609,0,0,1-.76,1.736,8.338,8.338,0,0,1-1.3,1.656,9.8,9.8,0,0,1-1.968,1.488,2.635,2.635,0,0,0-.288-.376q-.192-.216-.4-.424a2.674,2.674,0,0,0-.4-.336,8.657,8.657,0,0,0,1.872-1.3,6.476,6.476,0,0,0,1.168-1.44,6.313,6.313,0,0,0,.64-1.5,7.942,7.942,0,0,0,.264-1.488q.056-.728.056-1.384ZM142.3,64.2h12.208v1.488H143.824V76.376H142.3Zm11.536,0h1.488V74.5a2.523,2.523,0,0,1-.168,1.024,1.124,1.124,0,0,1-.632.56,3.959,3.959,0,0,1-1.208.216q-.76.04-1.832.04a4.067,4.067,0,0,0-.112-.488q-.08-.28-.184-.552a4.122,4.122,0,0,0-.216-.48l1.032.032q.5.016.888.008t.544-.008a.525.525,0,0,0,.312-.1.379.379,0,0,0,.088-.288Zm9.76.624,1.472.48a11.628,11.628,0,0,1-1.208,1.392,14.283,14.283,0,0,1-1.432,1.24,15.463,15.463,0,0,1-1.488,1q-.112-.16-.3-.392t-.4-.456a3.55,3.55,0,0,0-.368-.352,11.621,11.621,0,0,0,2.08-1.288A8.667,8.667,0,0,0,163.6,64.824Zm4.016.864,1.04-.88q.72.416,1.5.944t1.488,1.072a12.178,12.178,0,0,1,1.152.992l-1.136,1.024a10.155,10.155,0,0,0-1.1-1.024q-.68-.56-1.456-1.12T167.616,65.688Zm-1.184,2.4a11.858,11.858,0,0,1-1.664,1.744,20.77,20.77,0,0,1-2.264,1.712,19.731,19.731,0,0,1-2.552,1.424,2.394,2.394,0,0,0-.232-.416q-.152-.224-.312-.464a2.029,2.029,0,0,0-.32-.384,16.4,16.4,0,0,0,2.6-1.408,18.077,18.077,0,0,0,2.272-1.768,11.8,11.8,0,0,0,1.64-1.816h1.536a14.323,14.323,0,0,0,1.432,1.48,17.158,17.158,0,0,0,3.5,2.432,18.1,18.1,0,0,0,1.848.84,4.585,4.585,0,0,0-.5.656q-.248.384-.44.7a19.729,19.729,0,0,1-1.808-.944q-.928-.544-1.8-1.168a20.257,20.257,0,0,1-1.632-1.3A12.114,12.114,0,0,1,166.432,68.088Zm-4.48,2.816h8.96v5.408h-1.536V72.248h-5.952V76.36h-1.472Zm.688,3.6h7.536v1.344H162.64ZM165.584,61.5h1.552v2.16h-1.552Zm-5.936,1.392h13.52V66.04h-1.552V64.264h-10.5V66.04h-1.472ZM177.2,64.28q.464-.016.856-.04l.632-.04q.432-.048,1.16-.12t1.656-.152q.928-.08,1.984-.176t2.16-.192q.848-.064,1.656-.12t1.512-.1q.7-.04,1.248-.056V64.9q-.448-.016-1.016,0t-1.12.064a6.021,6.021,0,0,0-.984.16,4.431,4.431,0,0,0-1.44.752,5.52,5.52,0,0,0-1.128,1.184,5.423,5.423,0,0,0-.72,1.424,4.639,4.639,0,0,0-.248,1.456,3.65,3.65,0,0,0,.3,1.528,3.192,3.192,0,0,0,.824,1.1,4.667,4.667,0,0,0,1.216.752,6.857,6.857,0,0,0,1.464.44,11,11,0,0,0,1.56.176l-.576,1.712a9.74,9.74,0,0,1-1.872-.28,7.949,7.949,0,0,1-1.744-.656,5.739,5.739,0,0,1-1.448-1.064,4.775,4.775,0,0,1-.992-1.472,4.711,4.711,0,0,1-.36-1.888,6,6,0,0,1,.408-2.24,6.688,6.688,0,0,1,1.032-1.784A5.509,5.509,0,0,1,184.5,65.1l-1.184.12q-.7.072-1.512.168t-1.624.2q-.816.1-1.544.216t-1.272.224Zm10.56,2.4q.192.272.432.664t.48.8q.24.408.4.744l-.992.448q-.288-.608-.6-1.168a11.046,11.046,0,0,0-.68-1.072Zm1.776-.688q.192.272.448.648t.5.776q.24.4.416.752l-.976.464q-.32-.608-.64-1.144t-.7-1.064Zm13.392,7.248h4.592v1.424h-4.592Zm-.656-10.368h5.936V75.688h-1.536V64.3h-2.928V75.88h-1.472Zm-4.848,1.408h1.536v3.152a18.163,18.163,0,0,1-.144,2.2A12.03,12.03,0,0,1,198.272,72a9.49,9.49,0,0,1-1.16,2.312,7.841,7.841,0,0,1-1.976,1.984,3.546,3.546,0,0,0-.3-.368q-.2-.224-.408-.44a2.635,2.635,0,0,0-.368-.328,7.235,7.235,0,0,0,1.808-1.768,7.628,7.628,0,0,0,1.008-2.008,9.989,9.989,0,0,0,.44-2.056,18.969,18.969,0,0,0,.1-1.928Zm-1.5-.688h5.44V65h-5.44Zm-1.664,4.3h7.552v1.44h-7.552Zm4.272,2.176a6.629,6.629,0,0,1,.536.528l.76.816q.416.448.816.9t.72.816q.32.36.48.536l-1.04,1.3q-.208-.32-.52-.744t-.68-.9q-.368-.472-.736-.92t-.7-.832l-.56-.64ZM195.92,61.5l1.472.288a18.164,18.164,0,0,1-.536,2.072,17.832,17.832,0,0,1-.736,1.912,10.942,10.942,0,0,1-.872,1.584,3.356,3.356,0,0,0-.352-.3q-.224-.168-.464-.328t-.416-.256a8.193,8.193,0,0,0,1.168-2.232A17.2,17.2,0,0,0,195.92,61.5ZM4.352,93.976v1.36h7.3v-1.36Zm0,2.608V97.96h7.3V96.584Zm0-5.216v1.344h7.3V91.368ZM2.88,90.024h10.3V99.3H2.88ZM8.9,98.3h1.552v3.92q0,.368.136.472a1.208,1.208,0,0,0,.632.1H13.28a.644.644,0,0,0,.472-.152,1.151,1.151,0,0,0,.216-.632q.064-.48.1-1.44a2.164,2.164,0,0,0,.408.248,5.058,5.058,0,0,0,.52.216,4.531,4.531,0,0,0,.48.144,8.333,8.333,0,0,1-.288,1.872,1.572,1.572,0,0,1-.624.912,2.159,2.159,0,0,1-1.136.256h-2.4a3.856,3.856,0,0,1-1.3-.176,1.06,1.06,0,0,1-.648-.616,3.287,3.287,0,0,1-.176-1.192Zm-3.872.48H6.656a11.793,11.793,0,0,1-.392,1.96,4.5,4.5,0,0,1-.824,1.576,4.963,4.963,0,0,1-1.528,1.208,9.759,9.759,0,0,1-2.488.856,2.435,2.435,0,0,0-.208-.44q-.144-.248-.32-.5a2.389,2.389,0,0,0-.336-.392,10.239,10.239,0,0,0,2.184-.656,3.882,3.882,0,0,0,1.3-.9A3.183,3.183,0,0,0,4.72,100.3,8.322,8.322,0,0,0,5.024,98.776Zm20.128-8.512q-.1.464-.264,1.128a13.352,13.352,0,0,1-.488,1.5,12.4,12.4,0,0,1-.664,1.376,12.925,12.925,0,0,1-.808,1.28,2.746,2.746,0,0,1,.632-.264,5.645,5.645,0,0,1,.736-.16,4.657,4.657,0,0,1,.68-.056,2.425,2.425,0,0,1,1.616.552,1.964,1.964,0,0,1,.656,1.592v.784q0,.464.016.976t.024,1.008q.008.5.008.864h-1.52q.016-.3.032-.712t.024-.856q.008-.448.008-.864v-.736a1.268,1.268,0,0,0-.432-1.04,1.555,1.555,0,0,0-.976-.32A3.328,3.328,0,0,0,23,96.648a4.714,4.714,0,0,0-1.224.816q-.336.336-.7.768t-.76.944l-1.376-1.024a20.8,20.8,0,0,0,1.872-1.984,14.72,14.72,0,0,0,1.272-1.8,10.488,10.488,0,0,0,.792-1.624,9.922,9.922,0,0,0,.416-1.336,7.3,7.3,0,0,0,.192-1.272ZM19.424,91.88q.64.1,1.408.136t1.344.04q1.072,0,2.32-.048t2.52-.16q1.272-.112,2.408-.32v1.488q-.848.112-1.808.208t-1.952.152q-.992.056-1.9.08T22.1,93.48q-.336,0-.792-.008t-.944-.04q-.488-.032-.936-.048Zm12.432,4.16q-.224.08-.52.176t-.584.208l-.528.208q-.816.32-1.9.768t-2.216,1.04a11.173,11.173,0,0,0-1.328.8,3.746,3.746,0,0,0-.872.832,1.578,1.578,0,0,0-.312.944,1.092,1.092,0,0,0,.192.672,1.2,1.2,0,0,0,.536.392,3.3,3.3,0,0,0,.832.192,9.685,9.685,0,0,0,1.1.056q.96,0,2.176-.112t2.272-.3l-.048,1.616q-.576.064-1.344.136t-1.576.112q-.808.04-1.528.04a9.532,9.532,0,0,1-2.16-.224,3.121,3.121,0,0,1-1.52-.776,2.07,2.07,0,0,1-.56-1.544,2.81,2.81,0,0,1,.36-1.416,4.445,4.445,0,0,1,.944-1.144,8.979,8.979,0,0,1,1.3-.944q.72-.432,1.424-.784.752-.4,1.4-.7t1.216-.536q.568-.24,1.064-.48.416-.176.784-.344t.736-.36Zm8.416,1.616h10.16v1.36H40.272ZM46,91.3h1.392v2.864a.57.57,0,0,0,.072.36.533.533,0,0,0,.344.072h1.12a.311.311,0,0,0,.32-.216,4.058,4.058,0,0,0,.1-1.016,2.209,2.209,0,0,0,.576.3,5.143,5.143,0,0,0,.656.2,4.39,4.39,0,0,1-.232,1.208,1.119,1.119,0,0,1-.464.592,1.6,1.6,0,0,1-.792.168H47.6a2.7,2.7,0,0,1-1-.144.819.819,0,0,1-.472-.5,3.1,3.1,0,0,1-.128-1Zm-5.584-1.12h9.968V92.9H48.992V91.448H41.744V93.24H40.416Zm4.08,5.76h1.488v8.368H44.5ZM43.36,91.32h1.408a10.8,10.8,0,0,1-.232,1.872,4.179,4.179,0,0,1-.592,1.424,3.576,3.576,0,0,1-1.152,1.056,6.948,6.948,0,0,1-1.912.736,2.549,2.549,0,0,0-.312-.584,3.678,3.678,0,0,0-.424-.536,6.284,6.284,0,0,0,1.624-.56,2.724,2.724,0,0,0,.944-.8,2.953,2.953,0,0,0,.464-1.112A10.14,10.14,0,0,0,43.36,91.32ZM46.5,98.344a10.1,10.1,0,0,0,1.12,1.592,10.554,10.554,0,0,0,1.488,1.44,9.029,9.029,0,0,0,1.632,1.048,4.5,4.5,0,0,0-.384.36,5.019,5.019,0,0,0-.384.448q-.176.232-.3.424a8.75,8.75,0,0,1-1.632-1.28,14.066,14.066,0,0,1-1.488-1.72,11.746,11.746,0,0,1-1.152-1.912ZM44.1,98.2l1.2.4a11.844,11.844,0,0,1-1.288,2.072,12.072,12.072,0,0,1-1.68,1.776,9.879,9.879,0,0,1-1.912,1.3q-.176-.256-.456-.608a3.447,3.447,0,0,0-.52-.544,9.565,9.565,0,0,0,1.848-1.1,10.468,10.468,0,0,0,1.624-1.528A8.4,8.4,0,0,0,44.1,98.2ZM36.48,90.76l.864-1.088a11.455,11.455,0,0,1,1.04.5q.544.3,1.024.608a5.521,5.521,0,0,1,.784.6l-.928,1.232a5.413,5.413,0,0,0-.752-.64q-.464-.336-1-.656T36.48,90.76Zm-.72,4.4.768-1.168q.512.16,1.072.392t1.056.5a5.307,5.307,0,0,1,.816.52l-.816,1.312a5.9,5.9,0,0,0-.792-.544q-.488-.288-1.04-.552T35.76,95.16Zm.416,8.128q.384-.624.848-1.464t.944-1.792q.48-.952.88-1.864l1.168.9q-.368.832-.792,1.736t-.864,1.768q-.44.864-.872,1.632ZM63.712,90.536q-.048.208-.1.472t-.112.52q-.056.256-.1.432-.224,1.024-.544,2.12t-.712,2.16a19.617,19.617,0,0,1-.856,1.992,11.575,11.575,0,0,1-.976,1.632,15.773,15.773,0,0,1-1.288,1.5,5.224,5.224,0,0,1-1.248.96,2.87,2.87,0,0,1-1.368.336,2.146,2.146,0,0,1-1.168-.344,2.41,2.41,0,0,1-.872-1.024,3.788,3.788,0,0,1-.328-1.656,5.862,5.862,0,0,1,.384-2.056,7.367,7.367,0,0,1,1.056-1.912,6.148,6.148,0,0,1,1.568-1.456,8.562,8.562,0,0,1,2.432-1.16,9.01,9.01,0,0,1,2.464-.344,5.856,5.856,0,0,1,2.848.68,5.017,5.017,0,0,1,1.96,1.888,5.427,5.427,0,0,1,.712,2.808,5.157,5.157,0,0,1-2.744,4.744,8.849,8.849,0,0,1-2.984.968l-.96-1.44A8.176,8.176,0,0,0,63,101.88a4.914,4.914,0,0,0,1.584-.952,3.818,3.818,0,0,0,.944-1.32,4.272,4.272,0,0,0-.192-3.616,3.539,3.539,0,0,0-1.424-1.376,4.433,4.433,0,0,0-2.136-.5,6.332,6.332,0,0,0-2.24.384,7.981,7.981,0,0,0-1.92,1.04,5.3,5.3,0,0,0-1.12,1.144A5.386,5.386,0,0,0,55.76,98.1a4.395,4.395,0,0,0-.256,1.432,1.9,1.9,0,0,0,.288,1.1.891.891,0,0,0,.768.416,1.441,1.441,0,0,0,.728-.208,3.665,3.665,0,0,0,.72-.56,6.935,6.935,0,0,0,.7-.8q.336-.448.64-.928a12.026,12.026,0,0,0,.824-1.488,18.921,18.921,0,0,0,.72-1.76q.328-.928.584-1.848a15.707,15.707,0,0,0,.384-1.72,5.091,5.091,0,0,0,.1-.688,4.987,4.987,0,0,0,.016-.672Zm-6.64.656q.08.352.168.728t.168.728q.176.624.416,1.36t.512,1.472q.272.736.56,1.36t.544,1.072q.416.672.952,1.392a10.492,10.492,0,0,0,1.1,1.264l-1.264,1.024q-.48-.544-.9-1.1a12.515,12.515,0,0,1-.84-1.256,10.18,10.18,0,0,1-.664-1.2q-.328-.688-.656-1.488T56.536,94.9q-.3-.848-.536-1.648-.128-.416-.272-.8t-.32-.752Zm17.008-.16q.3.032.648.048t.632.016q.24,0,.776-.008t1.216-.024q.68-.016,1.352-.04t1.208-.056l.792-.048q.432-.032.664-.064a1.755,1.755,0,0,0,.36-.08l.88,1.152q-.24.16-.5.32a5.1,5.1,0,0,0-.512.368q-.3.224-.792.616T79.76,94.1q-.56.472-1.1.92t-.976.8a4.783,4.783,0,0,1,.96-.216,8.278,8.278,0,0,1,.96-.056,5.4,5.4,0,0,1,2.384.512,4.253,4.253,0,0,1,1.664,1.376,3.388,3.388,0,0,1,.608,2,3.962,3.962,0,0,1-.664,2.256,4.386,4.386,0,0,1-1.92,1.552,7.461,7.461,0,0,1-3.048.56,5.631,5.631,0,0,1-1.936-.3,2.927,2.927,0,0,1-1.288-.856,1.939,1.939,0,0,1-.456-1.272,2.048,2.048,0,0,1,.328-1.112,2.349,2.349,0,0,1,.928-.832,2.957,2.957,0,0,1,1.384-.312,3.457,3.457,0,0,1,1.816.44,3.034,3.034,0,0,1,1.12,1.16,3.51,3.51,0,0,1,.424,1.568l-1.456.208a2.587,2.587,0,0,0-.552-1.568,1.666,1.666,0,0,0-1.352-.608,1.272,1.272,0,0,0-.84.272.811.811,0,0,0-.328.64.926.926,0,0,0,.536.832,2.786,2.786,0,0,0,1.384.3,6.907,6.907,0,0,0,2.32-.344,3.031,3.031,0,0,0,1.456-1.008,2.611,2.611,0,0,0,.5-1.608,2.169,2.169,0,0,0-.448-1.344,2.913,2.913,0,0,0-1.232-.92,4.608,4.608,0,0,0-1.792-.328,6.651,6.651,0,0,0-1.752.216,5.962,5.962,0,0,0-1.48.624,8.464,8.464,0,0,0-1.352,1.008q-.664.6-1.368,1.368L72.016,98.84q.48-.384,1.056-.864l1.16-.968q.584-.488,1.1-.928t.872-.728l.816-.664q.48-.392.992-.824l.976-.824q.464-.392.768-.664-.256.016-.7.032t-.984.04l-1.08.048q-.544.024-.992.048t-.688.04q-.288.016-.6.04t-.584.056Z" transform="translate(52 9713.76)" fill="#1a1a1a"/>
        <g id="グループ_263-2" data-name="グループ 263">
          <path id="パス_462" data-name="パス 462" d="M5.335,0,.494-17.455h2.77l3.4,13.517h.162l3.537-13.517h2.744L16.645-3.929h.162L20.2-17.455h2.778L18.128,0H15.477L11.8-13.074h-.136L7.994,0ZM27.707.29a5.3,5.3,0,0,1-2.25-.464,3.732,3.732,0,0,1-1.589-1.351A3.865,3.865,0,0,1,23.284-3.7a3.523,3.523,0,0,1,.426-1.824,3.145,3.145,0,0,1,1.151-1.134,6.009,6.009,0,0,1,1.619-.631A16.1,16.1,0,0,1,28.3-7.611q1.176-.136,1.909-.226a2.764,2.764,0,0,0,1.065-.294.721.721,0,0,0,.332-.665v-.06a2.312,2.312,0,0,0-.626-1.73,2.559,2.559,0,0,0-1.862-.614,3.246,3.246,0,0,0-2.024.567A3.073,3.073,0,0,0,26.08-9.375L23.685-9.92a4.62,4.62,0,0,1,1.249-1.93,5.085,5.085,0,0,1,1.9-1.074,7.506,7.506,0,0,1,2.259-.337,8.207,8.207,0,0,1,1.666.183,4.98,4.98,0,0,1,1.653.669,3.7,3.7,0,0,1,1.266,1.385,4.817,4.817,0,0,1,.494,2.331V0H31.679V-1.79h-.1a3.626,3.626,0,0,1-.741.972,3.939,3.939,0,0,1-1.27.793A4.926,4.926,0,0,1,27.707.29Zm.554-2.045a3.686,3.686,0,0,0,1.811-.418,2.952,2.952,0,0,0,1.151-1.1,2.83,2.83,0,0,0,.4-1.453V-6.409a1.292,1.292,0,0,1-.524.251,7.226,7.226,0,0,1-.882.2q-.494.081-.963.145l-.784.107a6.238,6.238,0,0,0-1.351.315,2.31,2.31,0,0,0-.972.635,1.6,1.6,0,0,0-.362,1.1,1.621,1.621,0,0,0,.7,1.428A3.071,3.071,0,0,0,28.261-1.756ZM43.67-13.091v2.045H36.52v-2.045Zm-5.233-3.136h2.548V-3.844a2.213,2.213,0,0,0,.222,1.112,1.127,1.127,0,0,0,.575.5,2.188,2.188,0,0,0,.771.132,2.98,2.98,0,0,0,.537-.043l.358-.068L43.909-.1a4.576,4.576,0,0,1-.631.175,5.237,5.237,0,0,1-1.023.1,4.487,4.487,0,0,1-1.875-.358,3.216,3.216,0,0,1-1.406-1.159,3.406,3.406,0,0,1-.537-1.969ZM51.861.264A5.988,5.988,0,0,1,48.592-.6a5.66,5.66,0,0,1-2.1-2.391,7.974,7.974,0,0,1-.733-3.494,7.909,7.909,0,0,1,.75-3.524A5.751,5.751,0,0,1,48.622-12.4a5.892,5.892,0,0,1,3.213-.861,6.171,6.171,0,0,1,2.659.55,4.837,4.837,0,0,1,1.888,1.538,4.657,4.657,0,0,1,.857,2.31h-2.48a2.982,2.982,0,0,0-.933-1.585,2.778,2.778,0,0,0-1.947-.665,3.163,3.163,0,0,0-1.862.558,3.636,3.636,0,0,0-1.24,1.585,6.087,6.087,0,0,0-.443,2.425,6.387,6.387,0,0,0,.435,2.472A3.658,3.658,0,0,0,50-2.463a3.141,3.141,0,0,0,1.879.571,3.153,3.153,0,0,0,1.317-.268,2.685,2.685,0,0,0,1-.771,2.947,2.947,0,0,0,.567-1.21h2.48a4.819,4.819,0,0,1-.827,2.267A4.764,4.764,0,0,1,54.567-.307,6.036,6.036,0,0,1,51.861.264ZM62.523-7.773V0H59.974V-17.455h2.514v6.494h.162a3.762,3.762,0,0,1,1.406-1.679,4.427,4.427,0,0,1,2.472-.622,4.823,4.823,0,0,1,2.357.554,3.784,3.784,0,0,1,1.568,1.649,5.98,5.98,0,0,1,.558,2.732V0H68.463V-8.02a3.16,3.16,0,0,0-.741-2.237,2.679,2.679,0,0,0-2.062-.8,3.35,3.35,0,0,0-1.615.384A2.738,2.738,0,0,0,62.928-9.55,3.642,3.642,0,0,0,62.523-7.773Z" transform="translate(89.506 9705)" fill="#1a1a1a"/>
          <g id="グループ_14-2" data-name="グループ 14" transform="translate(-361 9681)">
            <rect id="長方形_53-2" data-name="長方形 53" width="30" height="30" transform="translate(413)" fill="#fff"/>
            <path id="パス_463" data-name="パス 463" d="M-3.984.157A3.084,3.084,0,0,1-5.854-.42,3.555,3.555,0,0,1-7.04-2.087a7.515,7.515,0,0,1-.411-2.636,7.423,7.423,0,0,1,.413-2.627A3.564,3.564,0,0,1-5.847-9.011a3.056,3.056,0,0,1,1.863-.572,3.037,3.037,0,0,1,1.86.575A3.587,3.587,0,0,1-.935-7.347,7.4,7.4,0,0,1-.522-4.723,7.511,7.511,0,0,1-.933-2.084,3.571,3.571,0,0,1-2.119-.418,3.045,3.045,0,0,1-3.984.157Zm0-1.233a1.668,1.668,0,0,0,1.5-.937,5.486,5.486,0,0,0,.542-2.71,6.944,6.944,0,0,0-.247-1.992,2.708,2.708,0,0,0-.706-1.237,1.558,1.558,0,0,0-1.092-.422,1.669,1.669,0,0,0-1.5.942,5.512,5.512,0,0,0-.549,2.71,6.963,6.963,0,0,0,.247,2,2.685,2.685,0,0,0,.7,1.233A1.571,1.571,0,0,0-3.984-1.076ZM1.122,0V-1.034l3.2-3.315q.512-.54.847-.949a3.553,3.553,0,0,0,.5-.778,1.891,1.891,0,0,0,.166-.785,1.471,1.471,0,0,0-.222-.815,1.47,1.47,0,0,0-.6-.531,1.943,1.943,0,0,0-.863-.187,1.814,1.814,0,0,0-.886.208,1.424,1.424,0,0,0-.582.586,1.847,1.847,0,0,0-.2.886H1.113a2.826,2.826,0,0,1,.4-1.51,2.713,2.713,0,0,1,1.089-1,3.38,3.38,0,0,1,1.574-.358,3.366,3.366,0,0,1,1.572.353,2.7,2.7,0,0,1,1.064.96A2.511,2.511,0,0,1,7.192-6.9,2.811,2.811,0,0,1,7-5.872a4.556,4.556,0,0,1-.681,1.119A18.827,18.827,0,0,1,4.967-3.259L3.088-1.293v.069H7.345V0Z" transform="translate(428 20)" fill="#1a1a1a"/>
          </g>
        </g>
      </g>
      <g id="グループ_437" data-name="グループ 437" transform="translate(-859 1146)">
        <circle id="楕円形_28" data-name="楕円形 28" cx="40" cy="40" r="40" transform="translate(911 8685)" fill="#e9b2bf"/>
        <path id="楕円形_28_-_アウトライン" data-name="楕円形 28 - アウトライン" d="M40,4A36.011,36.011,0,0,0,25.988,73.173,36.01,36.01,0,0,0,54.012,6.827,35.771,35.771,0,0,0,40,4m0-4A40,40,0,1,1,0,40,40,40,0,0,1,40,0Z" transform="translate(911 8685)" fill="#fff"/>
        <g id="magnifying-glass" transform="translate(926.5 8700.48)">
          <path id="パス_100" data-name="パス 100" d="M18.917,12.874a6.617,6.617,0,0,0-4.274,1.574,1.029,1.029,0,1,1-1.455-1.456,8.642,8.642,0,0,1,5.649-2.175,8.208,8.208,0,0,1,6.157,2.154,1.029,1.029,0,0,1-1.456,1.455,6.163,6.163,0,0,0-4.621-1.554" transform="translate(0.199 0.139)" fill="#cb4c6a"/>
          <path id="パス_101" data-name="パス 101" d="M29.6,28A13.374,13.374,0,1,0,28,29.6l-.4,2.272L35.338,39.6,39.6,35.338,31.87,27.607ZM19.375,29.664A10.289,10.289,0,1,0,9.087,19.375,10.289,10.289,0,0,0,19.375,29.664" fill="#cb4c6a" fill-rule="evenodd"/>
          <path id="パス_102" data-name="パス 102" d="M35.928,40.192l4.264-4.264,1.4,1.4a2.009,2.009,0,0,1,0,2.842l-1.422,1.422a2.009,2.009,0,0,1-2.842,0Z" transform="translate(0.864 0.864)" fill="#cb4c6a"/>
        </g>
      </g>
    </g>
    <g id="グループ_443" data-name="グループ 443">
      <g id="グループ_266" data-name="グループ 266" transform="translate(88 372)">
        <path id="パス_464" data-name="パス 464" d="M6.848,6.552q-.112.288-.232.624t-.232.592q-.112.368-.3.832T5.7,9.536q-.2.472-.424.9A13.524,13.524,0,0,1,4.5,11.76a16.448,16.448,0,0,1-.984,1.328,9.191,9.191,0,0,1-1.032,1.08L.9,13.208a6.722,6.722,0,0,0,.84-.744,11.4,11.4,0,0,0,.776-.9q.368-.472.672-.92t.528-.816a10.028,10.028,0,0,0,.544-1.176q.224-.584.368-1.048a6.47,6.47,0,0,0,.184-.72,4.881,4.881,0,0,0,.088-.7ZM4.624,9.176h8.5q.3,0,.752-.016a6.042,6.042,0,0,0,.816-.08v1.728q-.4-.032-.848-.04t-.72-.008H4.448Zm6.032.9a16.08,16.08,0,0,1-.4,3.288,11.378,11.378,0,0,1-.968,2.656,9.163,9.163,0,0,1-1.5,2.1,10.443,10.443,0,0,1-2,1.624L4.1,18.584q.368-.16.744-.368a4.27,4.27,0,0,0,.648-.432,9.081,9.081,0,0,0,1.24-1.176A8.151,8.151,0,0,0,7.816,15,9.348,9.348,0,0,0,8.6,12.856a13.02,13.02,0,0,0,.328-2.8ZM32.672,8.184q-.112.128-.264.328t-.264.344a13.546,13.546,0,0,1-.936,1.392,18.956,18.956,0,0,1-1.36,1.608,10.62,10.62,0,0,1-1.624,1.416L26.9,12.2a7.139,7.139,0,0,0,1.032-.728,11.515,11.515,0,0,0,.944-.888,11.208,11.208,0,0,0,.776-.9,5.109,5.109,0,0,0,.512-.792H21.392q-.48,0-.928.024t-.96.072V7.208q.448.048.928.1t.96.048h8.944q.176,0,.44-.008t.512-.04a3.528,3.528,0,0,0,.376-.064Zm-6.464,2.128q0,1.248-.064,2.368a12.537,12.537,0,0,1-.3,2.12,7.267,7.267,0,0,1-.712,1.872,6.693,6.693,0,0,1-1.3,1.64,8.846,8.846,0,0,1-2.08,1.408l-1.472-1.2a5.6,5.6,0,0,0,.76-.312,5.022,5.022,0,0,0,.776-.472,5.844,5.844,0,0,0,1.392-1.216,4.715,4.715,0,0,0,.792-1.416,7.763,7.763,0,0,0,.368-1.64,15.972,15.972,0,0,0,.1-1.872q0-.32-.016-.624a5.217,5.217,0,0,0-.08-.656Zm18-4.24q-.032.272-.064.68t-.032.76V9.176H42.48V7.512q0-.368-.024-.768a6.044,6.044,0,0,0-.072-.672ZM48.64,9.336q-.256.256-.544.568t-.5.552q-.432.5-1.016,1.088T45.32,12.736a14.475,14.475,0,0,1-1.432,1.112,16.2,16.2,0,0,1-1.9,1.144,22.929,22.929,0,0,1-2.216.992q-1.176.456-2.5.856l-.976-1.488A19.036,19.036,0,0,0,40.16,14.08a23.965,23.965,0,0,0,2.64-1.432,12.482,12.482,0,0,0,1.256-.92q.584-.488,1.04-.952a7.544,7.544,0,0,0,.712-.816H39.536q-.272,0-.664.008t-.752.024q-.36.016-.6.032V8.36q.416.048.992.072t.992.024h6.944a5.732,5.732,0,0,0,.616-.032,3.133,3.133,0,0,0,.52-.1Zm-4.56,3.616V17.9q0,.288.008.632t.032.672q.024.328.04.584H42.336q.032-.24.056-.568t.04-.68q.016-.352.016-.64V13.624Zm5.088,4.08q-.688-.544-1.3-.952T46.656,15.3q-.608-.376-1.328-.76l1.04-1.2q.752.384,1.336.72t1.176.7q.592.368,1.344.88Zm11.52-7.376q.112.24.288.712l.376,1.008q.2.536.368,1.016t.248.736l-1.5.544a7.712,7.712,0,0,0-.224-.76q-.16-.472-.352-.992t-.376-1q-.184-.48-.328-.768Zm5.84,1.024q-.112.3-.184.528t-.12.416a16.038,16.038,0,0,1-.856,2.512,10.721,10.721,0,0,1-1.384,2.32,11.457,11.457,0,0,1-2.5,2.376,13.425,13.425,0,0,1-2.76,1.5l-1.328-1.36a10.805,10.805,0,0,0,1.856-.736A11.819,11.819,0,0,0,61.1,17.08a8.717,8.717,0,0,0,1.544-1.488,9.248,9.248,0,0,0,.992-1.576,10.843,10.843,0,0,0,.736-1.888,12.056,12.056,0,0,0,.4-2.008Zm-9.568-.192q.144.272.344.744t.416,1.016q.216.544.408,1.04t.3.832l-1.52.56q-.1-.3-.288-.824t-.408-1.08q-.216-.56-.416-1.032a6.063,6.063,0,0,0-.344-.712Zm18.672,7.04V8.28q0-.384-.032-.888a6.853,6.853,0,0,0-.112-.9h1.968q-.032.384-.072.88t-.04.912v9.248q0,.256.016.624t.048.744q.032.376.064.68H75.5q.064-.416.1-1T75.632,17.528Zm1.344-6.864q.784.224,1.76.552t1.968.7q.992.376,1.888.744t1.52.672l-.72,1.744q-.672-.368-1.512-.744t-1.72-.728q-.88-.352-1.7-.64t-1.48-.5Zm20.64-5.136h1.536v13.3H97.616Zm-4.224,12.8q1.088-.1,2.544-.232t3.088-.3q1.632-.168,3.232-.344l.032,1.472q-1.52.192-3.08.376t-2.984.336q-1.424.152-2.576.3Zm6.8-2.736,1.408-.416q.352.736.72,1.584t.688,1.64a14.774,14.774,0,0,1,.5,1.4l-1.52.5a13.331,13.331,0,0,0-.44-1.4q-.3-.808-.648-1.68T100.192,15.592ZM95.7,9.88V13.4h5.344V9.88ZM94.208,8.568h8.4v6.144h-8.4Zm-5.488-2,1.056-.816A9.578,9.578,0,0,1,91.608,7.72,8.189,8.189,0,0,1,92.632,9.8a10.608,10.608,0,0,1,.456,2.176,22.342,22.342,0,0,1,.112,2.256q0,1.136-.072,2.2a12.647,12.647,0,0,1-.256,1.888,3.323,3.323,0,0,1-.536,1.288,1.569,1.569,0,0,1-.408.368,1.653,1.653,0,0,1-.552.208,4.581,4.581,0,0,1-.92.1q-.488.008-1.032-.008a3.411,3.411,0,0,0-.12-.736,2.766,2.766,0,0,0-.3-.7q.576.032,1.016.032a6.346,6.346,0,0,0,.712-.032.756.756,0,0,0,.512-.272,2.218,2.218,0,0,0,.3-.9,13.462,13.462,0,0,0,.16-1.552q.048-.9.048-1.912a19.2,19.2,0,0,0-.112-2.1,9.569,9.569,0,0,0-.424-1.96,7.58,7.58,0,0,0-.912-1.84A8.346,8.346,0,0,0,88.72,6.568Zm3.168,4.96,1.12.672a13.641,13.641,0,0,1-.976,1.608,15.35,15.35,0,0,1-1.24,1.552,11.909,11.909,0,0,1-1.32,1.256,5.8,5.8,0,0,0-.464-.608,3.153,3.153,0,0,0-.56-.528,8.605,8.605,0,0,0,1.3-1.064,11.8,11.8,0,0,0,1.224-1.4A9.022,9.022,0,0,0,91.888,11.528Zm.72-5.728,1.328.672a17.919,17.919,0,0,1-1.976,2.72,17.142,17.142,0,0,1-2.424,2.3,2.637,2.637,0,0,0-.3-.344q-.184-.184-.376-.36A2.69,2.69,0,0,0,88.5,10.5a13.316,13.316,0,0,0,1.592-1.368A15.3,15.3,0,0,0,91.512,7.5,13.541,13.541,0,0,0,92.608,5.8Zm16.48,5.36,9.056-.016v1.408l-9.04.016Zm0,3.456,9.056-.016v1.408H109.1Zm0,3.472,9.056-.016V19.48l-9.04.016ZM108.08,7.64l11.28-.016V20.28l-1.584.016V9.08H109.6V20.344h-1.52Zm4.608-2.176,1.808.224q-.288.736-.592,1.472t-.576,1.28l-1.36-.256q.144-.4.28-.872t.256-.96Q112.624,5.864,112.688,5.464Zm19.728,2.592q-.16,1.232-.408,2.6a23.1,23.1,0,0,1-.664,2.712,14.827,14.827,0,0,1-1.08,2.76,5.738,5.738,0,0,1-1.3,1.72,2.28,2.28,0,0,1-1.488.592,2.331,2.331,0,0,1-1.488-.552,3.946,3.946,0,0,1-1.12-1.552,5.83,5.83,0,0,1-.432-2.328,6.016,6.016,0,0,1,.552-2.544,6.884,6.884,0,0,1,1.528-2.128,7.21,7.21,0,0,1,2.272-1.456,7.35,7.35,0,0,1,2.8-.528,6.947,6.947,0,0,1,2.6.464A5.828,5.828,0,0,1,136.168,9.1a5.561,5.561,0,0,1,1.256,1.928,6.4,6.4,0,0,1,.432,2.352,6.239,6.239,0,0,1-.7,2.984,5.53,5.53,0,0,1-2.04,2.128,8.675,8.675,0,0,1-3.3,1.112l-.944-1.5q.416-.048.768-.1t.656-.12a5.974,5.974,0,0,0,1.464-.544,4.836,4.836,0,0,0,1.24-.936,4.188,4.188,0,0,0,.856-1.336,4.555,4.555,0,0,0,.312-1.728,5.115,5.115,0,0,0-.3-1.784,4.022,4.022,0,0,0-.9-1.432,4.135,4.135,0,0,0-1.456-.952,5.24,5.24,0,0,0-1.952-.344,5.6,5.6,0,0,0-2.336.464,5.4,5.4,0,0,0-1.736,1.224,5.5,5.5,0,0,0-1.08,1.64,4.549,4.549,0,0,0-.144,3.208,2.123,2.123,0,0,0,.56.888.93.93,0,0,0,1.408-.072,4.1,4.1,0,0,0,.744-1.144,14.291,14.291,0,0,0,.744-2,20.909,20.909,0,0,0,.616-2.456q.248-1.3.36-2.552ZM144.48,10.92h7.7v1.328h-7.7Zm-2.752,3.632h14.224v1.392H141.728Zm6.3-1.12h1.552v5.216a2.031,2.031,0,0,1-.184.96,1.185,1.185,0,0,1-.7.512,4.946,4.946,0,0,1-1.232.2q-.736.04-1.808.04a3.78,3.78,0,0,0-.248-.744,5.385,5.385,0,0,0-.376-.728l1.1.032q.536.016.936.008t.56-.008a.619.619,0,0,0,.32-.08.3.3,0,0,0,.08-.24ZM151.7,10.92h.368l.336-.08.96.736a11.913,11.913,0,0,1-1.248,1.136,15.323,15.323,0,0,1-1.48,1.04,16.456,16.456,0,0,1-1.544.848,4.227,4.227,0,0,0-.392-.472,5.141,5.141,0,0,0-.44-.424,10.593,10.593,0,0,0,1.32-.736,14.206,14.206,0,0,0,1.224-.888,6.108,6.108,0,0,0,.9-.872ZM141.984,8.1h13.728v3.728h-1.488V9.448h-10.8v2.384h-1.44Zm11.28-2.512,1.616.512q-.528.768-1.12,1.52T152.672,8.9l-1.216-.48q.32-.384.656-.88t.648-1.008A8.379,8.379,0,0,0,153.264,5.592Zm-10.192.656,1.28-.576a10.538,10.538,0,0,1,.88,1.088,5.661,5.661,0,0,1,.624,1.072l-1.344.656A6.561,6.561,0,0,0,143.9,7.4Q143.488,6.776,143.072,6.248Zm4.08-.336,1.328-.5a13.207,13.207,0,0,1,.76,1.224,5.957,5.957,0,0,1,.52,1.176l-1.408.56a6.226,6.226,0,0,0-.472-1.208A10.251,10.251,0,0,0,147.152,5.912Zm14.112,7.76h10.464v6.72H170.16V14.856h-7.392v5.536h-1.5Zm.768,2.448h8.56v1.168h-8.56Zm.064,2.5h8.544v1.168H162.1Zm3.488-6.432,1.616.272q-.288.56-.6,1.1t-.552.9l-1.232-.288q.208-.432.44-.992A6.112,6.112,0,0,0,165.584,12.184Zm-6.1-5.92h5.248v1.2h-5.248Zm4.88,0h1.376v5.312a1.738,1.738,0,0,1-.12.72.836.836,0,0,1-.456.4,2.376,2.376,0,0,1-.856.16q-.52.016-1.256.016a3.97,3.97,0,0,0-.16-.552,3.4,3.4,0,0,0-.24-.536q.48.016.9.016t.56-.016a.277.277,0,0,0,.208-.056.253.253,0,0,0,.048-.168Zm2.32,0h5.568v1.2h-5.568Zm4.864,0h1.408v5.3a1.735,1.735,0,0,1-.128.752,1.015,1.015,0,0,1-.48.432,2.755,2.755,0,0,1-.912.168q-.56.024-1.344.024a3.573,3.573,0,0,0-.168-.6,5.658,5.658,0,0,0-.248-.584q.512.016.976.024t.624.008a.412.412,0,0,0,.216-.064.224.224,0,0,0,.056-.176Zm-5.264,4.72q.864-.256,2.048-.664l2.432-.84.224,1.1q-1.072.4-2.176.808t-2,.744Zm.784-2.624.736-.9A13.32,13.32,0,0,1,169,8.128a4.976,4.976,0,0,1,.968.744l-.784.992a5.484,5.484,0,0,0-.936-.776A13.171,13.171,0,0,0,167.072,8.36Zm-8,2.928q.816-.256,1.952-.656t2.3-.832l.24,1.1q-1.024.416-2.048.848t-1.888.784Zm.976-2.928L160.8,7.5a10.428,10.428,0,0,1,1.168.672,4.915,4.915,0,0,1,.928.752l-.784.976a6.143,6.143,0,0,0-.912-.784A12.4,12.4,0,0,0,160.048,8.36Zm22.944-2.832h1.5V9.992q0,.432.216.544a2.576,2.576,0,0,0,.968.112h3.248a1.2,1.2,0,0,0,.632-.136.818.818,0,0,0,.3-.552A9.053,9.053,0,0,0,190,8.712a2.671,2.671,0,0,0,.656.328,5.386,5.386,0,0,0,.72.216,6.161,6.161,0,0,1-.312,1.7,1.452,1.452,0,0,1-.712.832,3.106,3.106,0,0,1-1.328.232h-3.472a5.378,5.378,0,0,1-1.56-.176,1.238,1.238,0,0,1-.776-.624,2.793,2.793,0,0,1-.224-1.232Zm6.272.8,1.152,1.1q-.88.352-1.944.664t-2.192.568q-1.128.256-2.184.448a2.846,2.846,0,0,0-.192-.568q-.144-.328-.272-.568,1.008-.208,2.056-.472t1.984-.568A14.462,14.462,0,0,0,189.264,6.328Zm-6.272,6.848h7.664v7.088h-1.5V14.44h-4.736v5.9h-1.424Zm.752,2.608h5.92v1.2h-5.92Zm-.064,2.608H189.7v1.216H183.68Zm-7.248-4.56q.72-.16,1.656-.4t1.968-.528l2.056-.576.192,1.392q-1.424.432-2.872.84t-2.6.728Zm.224-5.2h5.392V10.04h-5.392ZM178.784,5.5h1.488V18.648a2.413,2.413,0,0,1-.136.912.98.98,0,0,1-.488.5,2.519,2.519,0,0,1-.9.224q-.552.048-1.368.048a3.348,3.348,0,0,0-.168-.688q-.136-.4-.264-.7.5.016.944.024a5.829,5.829,0,0,0,.592-.008.248.248,0,0,0,.3-.3Zm21.872,7.6h7.536v1.136h-7.536Zm-.944-6.912h9.3V7.4h-9.3Zm-.08,8.976h9.392v1.232h-9.392Zm6.24,2.24,1.072-.72q.384.368.808.792t.8.848a7.194,7.194,0,0,1,.6.76l-1.136.8a8.132,8.132,0,0,0-.56-.776q-.352-.44-.768-.888T205.872,17.4Zm-4.416-7.9v1.68h5.824V9.5ZM200.192,8.36h8.416v3.952h-8.416Zm3.408,7.376h1.408v3.2a2.165,2.165,0,0,1-.112.768.835.835,0,0,1-.448.448,2.557,2.557,0,0,1-.84.176q-.5.032-1.224.032a2.562,2.562,0,0,0-.16-.624,5.445,5.445,0,0,0-.272-.608q.5.016.888.016t.52-.016a.32.32,0,0,0,.192-.04.218.218,0,0,0,.048-.168Zm-2.224.912,1.168.64a9.046,9.046,0,0,1-1.176,1.408,11.083,11.083,0,0,1-1.4,1.184,3.361,3.361,0,0,0-.432-.48,5.526,5.526,0,0,0-.512-.432,8.253,8.253,0,0,0,1.328-1.088A7.712,7.712,0,0,0,201.376,16.648Zm1.136-9.76H203.7v2.16h-1.184Zm.128,1.968H203.7v3.072H202.64Zm2.288-1.968h1.2v2.16h-1.2Zm0,1.968h1.056v3.072h-1.056ZM194.384,8.9h5.2v1.408h-5.2ZM196.5,5.5h1.376V20.328H196.5Zm-.032,4.3.88.3q-.176.944-.448,1.968t-.608,2.016a18.633,18.633,0,0,1-.728,1.84,10.07,10.07,0,0,1-.808,1.456,4.864,4.864,0,0,0-.328-.688q-.216-.384-.392-.64a9.52,9.52,0,0,0,.76-1.264,15.924,15.924,0,0,0,.7-1.576q.32-.84.568-1.72T196.464,9.8Zm1.328,1.344q.144.176.424.584t.608.9q.328.5.592.9t.376.584l-.816,1.12a8.209,8.209,0,0,0-.376-.816q-.248-.48-.52-.992t-.528-.952q-.256-.44-.416-.712ZM1.2,36.28q.464-.016.856-.04l.632-.04q.432-.048,1.16-.12T5.5,35.928q.928-.08,1.984-.176t2.16-.192q.848-.064,1.656-.12t1.512-.1q.7-.04,1.248-.056V36.9q-.448-.016-1.016,0t-1.12.064a6.021,6.021,0,0,0-.984.16,4.431,4.431,0,0,0-1.44.752,5.52,5.52,0,0,0-1.128,1.184,5.424,5.424,0,0,0-.72,1.424,4.639,4.639,0,0,0-.248,1.456,3.65,3.65,0,0,0,.3,1.528,3.192,3.192,0,0,0,.824,1.1,4.667,4.667,0,0,0,1.216.752,6.857,6.857,0,0,0,1.464.44,11,11,0,0,0,1.56.176l-.576,1.712a9.74,9.74,0,0,1-1.872-.28,7.948,7.948,0,0,1-1.744-.656,5.739,5.739,0,0,1-1.448-1.064,4.775,4.775,0,0,1-.992-1.472,4.711,4.711,0,0,1-.36-1.888,6,6,0,0,1,.408-2.24,6.689,6.689,0,0,1,1.032-1.784A5.509,5.509,0,0,1,8.5,37.1l-1.184.12q-.7.072-1.512.168t-1.624.2q-.816.1-1.544.216t-1.272.224Zm10.56,2.4q.192.272.432.664t.48.8q.24.408.4.744l-.992.448q-.288-.608-.6-1.168A11.048,11.048,0,0,0,10.8,39.1Zm1.776-.688q.192.272.448.648t.5.776q.24.4.416.752l-.976.464q-.32-.608-.64-1.144t-.7-1.064Zm11.616-3.744-.1.384q-.056.208-.088.384-.144.7-.272,1.688t-.208,2.088q-.08,1.1-.08,2.16a16.05,16.05,0,0,0,.136,2.144,16.728,16.728,0,0,0,.36,1.888q.224.88.48,1.664l-1.456.432a17.334,17.334,0,0,1-.456-1.688,20.384,20.384,0,0,1-.344-2.056,18.608,18.608,0,0,1-.128-2.176q0-.8.048-1.648t.12-1.656q.072-.808.16-1.528t.136-1.28a3.78,3.78,0,0,0,.04-.448q.008-.24.008-.4ZM22.464,36.12q1.456,0,2.816-.072t2.616-.232a23.279,23.279,0,0,0,2.408-.432l.016,1.488q-.848.144-1.84.264t-2.048.2q-1.056.08-2.088.128t-1.928.048q-.368,0-.864-.024l-.984-.048-.84-.04-.048-1.488q.288.048.792.1t1.048.08Q22.064,36.12,22.464,36.12Zm6.768,2.08q-.048.128-.12.336l-.144.416q-.072.208-.136.352a14.766,14.766,0,0,1-1.128,2.68,13,13,0,0,1-1.44,2.128,9.645,9.645,0,0,1-1.592,1.528,8.143,8.143,0,0,1-1.72,1.008,4.669,4.669,0,0,1-1.88.416,2.288,2.288,0,0,1-1.008-.224,1.672,1.672,0,0,1-.736-.7,2.443,2.443,0,0,1-.272-1.216,4.127,4.127,0,0,1,.352-1.648,6.312,6.312,0,0,1,.968-1.552,7.483,7.483,0,0,1,1.432-1.312,7.954,7.954,0,0,1,1.728-.928,11.4,11.4,0,0,1,1.72-.464,9.333,9.333,0,0,1,1.752-.176,6.111,6.111,0,0,1,2.648.536,4.31,4.31,0,0,1,1.76,1.464,3.637,3.637,0,0,1,.632,2.1,4.931,4.931,0,0,1-.28,1.656,4.125,4.125,0,0,1-.9,1.456,5.409,5.409,0,0,1-1.624,1.144,8.757,8.757,0,0,1-2.424.7l-.864-1.328a6.975,6.975,0,0,0,2.5-.688,4.014,4.014,0,0,0,1.528-1.312,3.009,3.009,0,0,0,.52-1.7,2.424,2.424,0,0,0-.408-1.368,2.924,2.924,0,0,0-1.2-1,4.432,4.432,0,0,0-1.944-.384,6.8,6.8,0,0,0-1.9.248,10.534,10.534,0,0,0-1.448.52A5.7,5.7,0,0,0,22.048,41.9a5.416,5.416,0,0,0-1.088,1.352,2.839,2.839,0,0,0-.4,1.376.934.934,0,0,0,.216.672.838.838,0,0,0,.632.224,3.206,3.206,0,0,0,1.328-.352,6.067,6.067,0,0,0,1.5-1.04,11.577,11.577,0,0,0,1.848-2.128,10.342,10.342,0,0,0,1.368-3.072,2.9,2.9,0,0,0,.088-.344q.04-.2.072-.416t.048-.36Zm9.488-3.168q.3.032.648.048T40,35.1q.24,0,.776-.008t1.216-.024q.68-.016,1.352-.04t1.208-.056l.792-.048q.432-.032.664-.064a1.755,1.755,0,0,0,.36-.08l.88,1.152q-.24.16-.5.32a5.1,5.1,0,0,0-.512.368q-.3.224-.792.616T44.4,38.1q-.56.472-1.1.92t-.976.8a4.784,4.784,0,0,1,.96-.216,8.277,8.277,0,0,1,.96-.056,5.4,5.4,0,0,1,2.384.512,4.253,4.253,0,0,1,1.664,1.376,3.388,3.388,0,0,1,.608,2,3.962,3.962,0,0,1-.664,2.256,4.386,4.386,0,0,1-1.92,1.552,7.461,7.461,0,0,1-3.048.56,5.631,5.631,0,0,1-1.936-.3,2.927,2.927,0,0,1-1.288-.856,1.939,1.939,0,0,1-.456-1.272,2.048,2.048,0,0,1,.328-1.112,2.349,2.349,0,0,1,.928-.832,2.957,2.957,0,0,1,1.384-.312,3.457,3.457,0,0,1,1.816.44,3.035,3.035,0,0,1,1.12,1.16,3.51,3.51,0,0,1,.424,1.568l-1.456.208a2.587,2.587,0,0,0-.552-1.568,1.666,1.666,0,0,0-1.352-.608,1.272,1.272,0,0,0-.84.272.811.811,0,0,0-.328.64.926.926,0,0,0,.536.832,2.786,2.786,0,0,0,1.384.3,6.907,6.907,0,0,0,2.32-.344,3.031,3.031,0,0,0,1.456-1.008,2.611,2.611,0,0,0,.5-1.608,2.169,2.169,0,0,0-.448-1.344,2.913,2.913,0,0,0-1.232-.92,4.608,4.608,0,0,0-1.792-.328,6.651,6.651,0,0,0-1.752.216,5.962,5.962,0,0,0-1.48.624,8.465,8.465,0,0,0-1.352,1.008q-.664.6-1.368,1.368L36.656,42.84q.48-.384,1.056-.864l1.16-.968q.584-.488,1.1-.928t.872-.728l.816-.664q.48-.392.992-.824l.976-.824q.464-.392.768-.664-.256.016-.7.032t-.984.04l-1.08.048q-.544.024-.992.048t-.688.04q-.288.016-.6.04t-.584.056Zm28.992,1.152q-.112.128-.264.328t-.264.344a13.545,13.545,0,0,1-.936,1.392,18.958,18.958,0,0,1-1.36,1.608,10.62,10.62,0,0,1-1.624,1.416L61.936,40.2a7.139,7.139,0,0,0,1.032-.728,11.514,11.514,0,0,0,.944-.888,11.209,11.209,0,0,0,.776-.9,5.109,5.109,0,0,0,.512-.792H56.432q-.48,0-.928.024t-.96.072V35.208q.448.048.928.1t.96.048h8.944q.176,0,.44-.008t.512-.04a3.527,3.527,0,0,0,.376-.064Zm-6.464,2.128q0,1.248-.064,2.368a12.537,12.537,0,0,1-.3,2.12,7.267,7.267,0,0,1-.712,1.872,6.693,6.693,0,0,1-1.3,1.64A8.846,8.846,0,0,1,56.8,47.72l-1.472-1.2a5.6,5.6,0,0,0,.76-.312,5.022,5.022,0,0,0,.776-.472,5.844,5.844,0,0,0,1.392-1.216,4.715,4.715,0,0,0,.792-1.416,7.763,7.763,0,0,0,.368-1.64,15.972,15.972,0,0,0,.1-1.872q0-.32-.016-.624a5.216,5.216,0,0,0-.08-.656Zm16.88-.656q.112.24.288.712l.376,1.008q.2.536.368,1.016t.248.736l-1.5.544a7.712,7.712,0,0,0-.224-.76q-.16-.472-.352-.992t-.376-1q-.184-.48-.328-.768Zm5.84,1.024q-.112.3-.184.528t-.12.416a16.039,16.039,0,0,1-.856,2.512,10.721,10.721,0,0,1-1.384,2.32,11.457,11.457,0,0,1-2.5,2.376,13.425,13.425,0,0,1-2.76,1.5l-1.328-1.36a10.8,10.8,0,0,0,1.856-.736,11.82,11.82,0,0,0,1.848-1.152,8.717,8.717,0,0,0,1.544-1.488,9.248,9.248,0,0,0,.992-1.576,10.842,10.842,0,0,0,.736-1.888,12.056,12.056,0,0,0,.4-2.008ZM74.4,38.488q.144.272.344.744t.416,1.016q.216.544.408,1.04t.3.832l-1.52.56q-.1-.3-.288-.824t-.408-1.08q-.216-.56-.416-1.032a6.062,6.062,0,0,0-.344-.712ZM100.72,35.4a.983.983,0,0,0,.992.992.984.984,0,0,0,.712-.288.945.945,0,0,0,.3-.7,1.011,1.011,0,0,0-1.008-1.008.945.945,0,0,0-.7.3A.984.984,0,0,0,100.72,35.4Zm-.848,0a1.778,1.778,0,0,1,.248-.928,1.885,1.885,0,0,1,.664-.664,1.86,1.86,0,0,1,1.856,0,1.953,1.953,0,0,1,.672.664,1.81,1.81,0,0,1,0,1.856,1.953,1.953,0,0,1-.672.664,1.86,1.86,0,0,1-1.856,0,1.885,1.885,0,0,1-.664-.664A1.778,1.778,0,0,1,99.872,35.4Zm1.632,1.168a2.7,2.7,0,0,0-.168.432,4.808,4.808,0,0,0-.12.5q-.144.608-.344,1.36t-.5,1.552a13.992,13.992,0,0,1-.688,1.56,9.861,9.861,0,0,1-.872,1.4A14.188,14.188,0,0,1,97.16,45.12a11.412,11.412,0,0,1-2.088,1.472A14.585,14.585,0,0,1,92.464,47.7l-1.376-1.5a14.365,14.365,0,0,0,2.72-.96,9.474,9.474,0,0,0,2.008-1.288,11.7,11.7,0,0,0,1.528-1.56,8.464,8.464,0,0,0,.952-1.568,12.647,12.647,0,0,0,.672-1.736,11.635,11.635,0,0,0,.376-1.608H91.472q-.512,0-.96.016t-.768.048V35.752q.24.016.536.048t.616.048q.32.016.576.016h7.76q.208,0,.488-.016a2.884,2.884,0,0,0,.536-.08Zm14.832,4.352a10.713,10.713,0,0,1,.408-3.024,10.168,10.168,0,0,1,1.128-2.544,12.114,12.114,0,0,1,1.632-2.08l1.216.576a11.335,11.335,0,0,0-1.536,1.992,10.005,10.005,0,0,0-1.032,2.336,10.172,10.172,0,0,0,0,5.48,9.812,9.812,0,0,0,1.032,2.336,12.015,12.015,0,0,0,1.536,2l-1.216.576a12.114,12.114,0,0,1-1.632-2.08,10.139,10.139,0,0,1-1.128-2.552A10.736,10.736,0,0,1,116.336,40.92Zm10.688,6.3a2.369,2.369,0,0,1-2.064-.912,4.358,4.358,0,0,1-.656-2.576V38.184h1.856v5.328a2.857,2.857,0,0,0,.352,1.616,1.278,1.278,0,0,0,1.12.5,1.952,1.952,0,0,0,1.088-.312,4.543,4.543,0,0,0,1.024-1V38.184H131.6V47h-1.52l-.144-1.328h-.048a6.182,6.182,0,0,1-1.28,1.12A2.865,2.865,0,0,1,127.024,47.224Zm8.928,3.344V38.184h1.5l.16.976h.032a7.32,7.32,0,0,1,1.28-.832,3.121,3.121,0,0,1,1.44-.352,3.163,3.163,0,0,1,1.888.56,3.422,3.422,0,0,1,1.184,1.56,6.337,6.337,0,0,1,.4,2.36,5.706,5.706,0,0,1-.536,2.576,4.036,4.036,0,0,1-1.4,1.632,3.35,3.35,0,0,1-1.856.56,2.852,2.852,0,0,1-1.168-.264,4.476,4.476,0,0,1-1.136-.744l.048,1.5v2.848Zm3.744-4.9a1.891,1.891,0,0,0,1.144-.368,2.468,2.468,0,0,0,.8-1.08,4.524,4.524,0,0,0,.3-1.736,5.176,5.176,0,0,0-.216-1.592,2.108,2.108,0,0,0-.664-1.024,1.834,1.834,0,0,0-1.184-.36,2.17,2.17,0,0,0-1.016.264,4.713,4.713,0,0,0-1.064.808v4.3a3.3,3.3,0,0,0,1.008.608A2.71,2.71,0,0,0,139.7,45.672Zm11.648-4.752a10.736,10.736,0,0,1-.408,3.016,10.139,10.139,0,0,1-1.128,2.552,12.114,12.114,0,0,1-1.632,2.08l-1.216-.576a12.015,12.015,0,0,0,1.536-2,9.812,9.812,0,0,0,1.032-2.336,10.171,10.171,0,0,0,0-5.48A10,10,0,0,0,148.5,35.84a11.335,11.335,0,0,0-1.536-1.992l1.216-.576a12.114,12.114,0,0,1,1.632,2.08,10.169,10.169,0,0,1,1.128,2.544A10.712,10.712,0,0,1,151.344,40.92Zm19.5-6.384q-.064.24-.12.544t-.12.56q-.048.32-.144.792t-.184.976q-.088.5-.2.968-.16.672-.4,1.552t-.552,1.88q-.312,1-.7,2.032t-.848,2.016a16.929,16.929,0,0,1-.984,1.832l-1.648-.656a11.361,11.361,0,0,0,1.04-1.664q.48-.928.88-1.912t.72-1.944q.32-.96.544-1.784t.352-1.416q.224-1.024.36-2.048a14.628,14.628,0,0,0,.136-1.92Zm5.5,1.744a12.469,12.469,0,0,1,.792,1.24q.424.744.824,1.576T178.7,40.7q.336.776.528,1.336l-1.584.752q-.176-.64-.472-1.44t-.672-1.624q-.376-.824-.8-1.56a8.622,8.622,0,0,0-.84-1.232Zm-11.584,1.664q.4.016.768.016t.784-.016q.368-.016.936-.056t1.216-.1l1.288-.112q.64-.056,1.192-.088t.888-.032a3.677,3.677,0,0,1,1.384.248,1.955,1.955,0,0,1,.976.872,3.512,3.512,0,0,1,.36,1.744q0,.944-.088,2.04a18.052,18.052,0,0,1-.288,2.1,6.7,6.7,0,0,1-.536,1.672,2.148,2.148,0,0,1-1.008,1.12,3.443,3.443,0,0,1-1.456.288,7.189,7.189,0,0,1-.984-.072q-.52-.072-.92-.168l-.272-1.664q.336.1.7.168t.7.112a4.89,4.89,0,0,0,.56.04,1.8,1.8,0,0,0,.752-.152,1.214,1.214,0,0,0,.56-.6,5.6,5.6,0,0,0,.392-1.3,16.593,16.593,0,0,0,.232-1.68q.08-.9.08-1.728a2.169,2.169,0,0,0-.192-1.04.971.971,0,0,0-.56-.456,2.854,2.854,0,0,0-.88-.12q-.384,0-1.048.056t-1.408.136l-1.392.152q-.648.072-1,.12-.3.032-.776.1t-.808.128Zm11.552-3.952q.208.288.448.688t.464.8q.224.4.384.72l-1.056.448q-.144-.32-.368-.72t-.456-.8a7.72,7.72,0,0,0-.456-.7Zm1.824-.672q.208.3.464.7t.488.792q.232.392.376.68l-1.04.464q-.256-.512-.616-1.136a9.11,9.11,0,0,0-.712-1.072Zm3.952,1.072,1.056-.784a9.339,9.339,0,0,1,1.688,1.984,8.753,8.753,0,0,1,.952,2.1,11.722,11.722,0,0,1,.432,2.2q.112,1.128.112,2.3,0,1.152-.064,2.232a13.7,13.7,0,0,1-.24,1.936,3.442,3.442,0,0,1-.512,1.32,1.451,1.451,0,0,1-.928.56,5.316,5.316,0,0,1-.856.1q-.456.016-.92,0a4.139,4.139,0,0,0-.1-.736,2.17,2.17,0,0,0-.3-.7q.512.032.9.032a4.9,4.9,0,0,0,.624-.032.634.634,0,0,0,.48-.256,2.062,2.062,0,0,0,.3-.912,16.09,16.09,0,0,0,.152-1.608q.048-.936.048-1.96a19.077,19.077,0,0,0-.2-2.824,8.961,8.961,0,0,0-.792-2.568A7.947,7.947,0,0,0,182.1,34.392ZM184.96,39.4l1.1.656a12.183,12.183,0,0,1-.888,1.56,16.471,16.471,0,0,1-1.152,1.536,10.389,10.389,0,0,1-1.224,1.24,4.042,4.042,0,0,0-.448-.6,4.613,4.613,0,0,0-.544-.536,8.593,8.593,0,0,0,1.2-1.04,10.417,10.417,0,0,0,1.12-1.368A9.52,9.52,0,0,0,184.96,39.4Zm.736-5.792,1.328.656a16.672,16.672,0,0,1-1.848,2.688,16.9,16.9,0,0,1-2.3,2.288,4.568,4.568,0,0,0-.488-.512,6.551,6.551,0,0,0-.552-.464,13.019,13.019,0,0,0,1.5-1.36,14.9,14.9,0,0,0,1.336-1.624A13.457,13.457,0,0,0,185.7,33.608Zm1.264,1.008h9.808v1.168H186.96Zm.976,7.424H196.7v.944h-8.768Zm-.592,1.6h7.7v1.1h-7.7ZM188.432,39h7.36v.768h-7.36Zm.016,1.5h7.344v.768h-7.344Zm.768-7.04h1.36v3.12h-1.36Zm2.272,4.352h1.344v4.72h-1.344Zm1.456-4.352h1.376v3.12h-1.376Zm-4.368,2.608,1.216.336a11.57,11.57,0,0,1-1.184,2.16,10.458,10.458,0,0,1-1.5,1.76,2.01,2.01,0,0,0-.248-.3l-.344-.36a3.036,3.036,0,0,0-.32-.3,7.689,7.689,0,0,0,1.384-1.48A8.11,8.11,0,0,0,188.576,36.072Zm-.64,2.208,1.312-.72V42.7h-1.312Zm.656-.928h7.664V38.3h-8.144ZM191.92,36.2l1.456.272q-.24.432-.472.824t-.44.68l-1.152-.256q.16-.352.344-.776A4.9,4.9,0,0,0,191.92,36.2Zm2.736,7.44h.3l.24-.048.832.512a6.406,6.406,0,0,1-1.544,1.72,9.481,9.481,0,0,1-2.12,1.232,15.689,15.689,0,0,1-2.536.824,25.767,25.767,0,0,1-2.776.5q-.064-.16-.176-.384t-.248-.44a2.787,2.787,0,0,0-.248-.344,25.655,25.655,0,0,0,2.656-.384,16.892,16.892,0,0,0,2.376-.648,8.251,8.251,0,0,0,1.928-.968,4.465,4.465,0,0,0,1.312-1.376Zm-4.864.96a5.3,5.3,0,0,0,1.744,1.264,11.9,11.9,0,0,0,2.528.848,21.675,21.675,0,0,0,3.024.448,3.2,3.2,0,0,0-.464.568q-.24.36-.384.632a18.07,18.07,0,0,1-3.112-.6,11.484,11.484,0,0,1-2.624-1.1,7.283,7.283,0,0,1-1.944-1.624Zm17.216-7.408V38.28h4.816V37.192Zm0-2.112v1.072h4.816V35.08Zm-1.456-1.1h7.792v5.408h-7.792Zm-.912,6.336H214v1.264h-9.36Zm-.384,2.432H214.3v1.3H204.256Zm6.224-1.328H212v5.36a2.13,2.13,0,0,1-.144.872.95.95,0,0,1-.544.472,3.171,3.171,0,0,1-1,.192q-.6.032-1.464.032a3.422,3.422,0,0,0-.192-.68,6.3,6.3,0,0,0-.3-.68q.608.016,1.128.024t.68-.008a.542.542,0,0,0,.256-.064.23.23,0,0,0,.064-.192Zm-4.976,3.44,1.072-.72q.528.5,1.1,1.112a8.372,8.372,0,0,1,.88,1.08l-1.136.816a4.885,4.885,0,0,0-.5-.72q-.328-.4-.7-.816T205.5,44.856Zm-2.24-7.808,1.328.544a17.7,17.7,0,0,1-1.3,1.92,22.412,22.412,0,0,1-1.568,1.816,15.979,15.979,0,0,1-1.64,1.5q-.064-.176-.192-.464t-.288-.584q-.16-.3-.272-.472a13.564,13.564,0,0,0,1.448-1.2,16.386,16.386,0,0,0,1.376-1.472A11.735,11.735,0,0,0,203.264,37.048Zm-.336-3.52,1.44.576a13.469,13.469,0,0,1-1.168,1.424,18.794,18.794,0,0,1-1.408,1.36,15.167,15.167,0,0,1-1.472,1.136,3.025,3.025,0,0,0-.224-.424l-.288-.464a4.065,4.065,0,0,0-.272-.392,12.528,12.528,0,0,0,2.488-2.072A8.685,8.685,0,0,0,202.928,33.528ZM201.76,40.2l1.424-1.408.064.032v9.52H201.76ZM1.2,64.28q.464-.016.856-.04l.632-.04q.432-.048,1.16-.12T5.5,63.928q.928-.08,1.984-.176t2.16-.192q.848-.064,1.656-.12t1.512-.1q.7-.04,1.248-.056V64.9q-.448-.016-1.016,0t-1.12.064a6.021,6.021,0,0,0-.984.16,4.431,4.431,0,0,0-1.44.752,5.52,5.52,0,0,0-1.128,1.184,5.423,5.423,0,0,0-.72,1.424,4.639,4.639,0,0,0-.248,1.456,3.65,3.65,0,0,0,.3,1.528,3.192,3.192,0,0,0,.824,1.1,4.667,4.667,0,0,0,1.216.752,6.857,6.857,0,0,0,1.464.44,11,11,0,0,0,1.56.176l-.576,1.712a9.74,9.74,0,0,1-1.872-.28,7.949,7.949,0,0,1-1.744-.656,5.74,5.74,0,0,1-1.448-1.064,4.775,4.775,0,0,1-.992-1.472,4.711,4.711,0,0,1-.36-1.888,6,6,0,0,1,.408-2.24,6.688,6.688,0,0,1,1.032-1.784A5.509,5.509,0,0,1,8.5,65.1l-1.184.12q-.7.072-1.512.168t-1.624.2q-.816.1-1.544.216t-1.272.224Zm10.56,2.4q.192.272.432.664t.48.8q.24.408.4.744l-.992.448q-.288-.608-.6-1.168A11.048,11.048,0,0,0,10.8,67.1Zm1.776-.688q.192.272.448.648t.5.776q.24.4.416.752l-.976.464q-.32-.608-.64-1.144t-.7-1.064Zm6.832-2.176q1.712.192,3.216.224t2.752-.064q1.024-.1,2.008-.288a15.945,15.945,0,0,0,1.912-.5l.208,1.456a18.187,18.187,0,0,1-1.808.424q-.992.184-1.984.28-1.232.1-2.84.088t-3.368-.168Zm-.3,3.312q1.408.128,2.728.176t2.5,0q1.184-.048,2.128-.16a17.36,17.36,0,0,0,2.136-.32q.936-.208,1.608-.416l.256,1.5q-.688.176-1.568.344t-1.872.28q-.992.112-2.288.168t-2.72.032q-1.424-.024-2.832-.12Zm5.408-3.248q-.1-.4-.224-.792t-.272-.792l1.712-.192a12.792,12.792,0,0,0,.248,1.432q.168.728.376,1.408t.4,1.272q.208.592.512,1.3T28.9,68.9q.368.688.752,1.28a4.5,4.5,0,0,0,.3.392,4.453,4.453,0,0,0,.352.36l-.8,1.184a10.5,10.5,0,0,0-1.08-.2q-.632-.088-1.3-.168t-1.24-.128l.128-1.216q.576.048,1.216.112t1.008.112A16.918,16.918,0,0,1,27.1,68.52q-.48-1.072-.816-2-.192-.56-.336-1.008t-.256-.84Q25.584,64.28,25.472,63.88Zm-2.752,6.8a5.9,5.9,0,0,0-.488.84,2.2,2.2,0,0,0-.2.952,1.489,1.489,0,0,0,.864,1.4,5.829,5.829,0,0,0,2.624.456q1.12,0,2.08-.088a16.844,16.844,0,0,0,1.824-.264l-.08,1.616q-.832.128-1.816.208t-1.992.08a9.714,9.714,0,0,1-2.7-.328A3.616,3.616,0,0,1,21.1,74.544a2.613,2.613,0,0,1-.624-1.768,4.012,4.012,0,0,1,.192-1.288,7.523,7.523,0,0,1,.48-1.112ZM44.528,62.2q-.016.224-.04.488t-.04.6q-.016.272-.024.784T44.408,65.2q-.008.616-.008,1.232V67.56q0,.736.04,1.592t.088,1.688q.048.832.088,1.536t.04,1.152a2.239,2.239,0,0,1-.3,1.136,2.2,2.2,0,0,1-.96.856,3.839,3.839,0,0,1-1.712.328,4.857,4.857,0,0,1-2.752-.648,2.252,2.252,0,0,1-.488-3.192,2.988,2.988,0,0,1,1.312-.9,5.7,5.7,0,0,1,2.04-.328,9.705,9.705,0,0,1,2.408.288,11.174,11.174,0,0,1,2.064.736,12.814,12.814,0,0,1,1.656.936q.72.488,1.216.872l-.928,1.424q-.56-.512-1.264-1.04a10.6,10.6,0,0,0-1.552-.96,9.237,9.237,0,0,0-1.8-.688,7.7,7.7,0,0,0-2.008-.256,2.9,2.9,0,0,0-1.56.344.982.982,0,0,0-.536.824.922.922,0,0,0,.216.6,1.423,1.423,0,0,0,.648.416,3.439,3.439,0,0,0,1.12.152,2.715,2.715,0,0,0,.808-.112,1.088,1.088,0,0,0,.568-.392,1.308,1.308,0,0,0,.208-.792q0-.416-.032-1.12t-.056-1.528q-.024-.824-.056-1.6t-.032-1.32q0-.56.008-1.16t.008-1.184V63.208q0-.208-.016-.52a2.414,2.414,0,0,0-.064-.488Zm-6.336,1.632q.4.064.936.128t1.1.12q.568.056,1.08.08t.9.024q1.584,0,3.184-.112t3.232-.384V65.16q-.864.1-1.92.192t-2.2.16q-1.144.064-2.28.064-.528,0-1.272-.048t-1.48-.112q-.736-.064-1.264-.128Zm-.08,3.424q.4.064.928.12t1.088.088q.56.032,1.064.056t.872.024q1.3,0,2.44-.056t2.208-.16q1.064-.1,2.072-.232l-.016,1.488q-.816.112-1.6.184t-1.576.12q-.792.048-1.664.064t-1.9.016q-.5,0-1.2-.024t-1.424-.072q-.72-.048-1.28-.112Zm24.912-5.024q-.016.1-.04.336t-.04.48q-.016.24-.016.352-.016.3-.024.84T62.9,65.416q0,.64.008,1.288t.016,1.216q.008.568.008.952l-1.552-.64V67.5q0-.472-.008-1.072t-.016-1.192q-.008-.592-.016-1.088t-.024-.752q-.032-.384-.072-.72t-.056-.448ZM54.272,64.36q.688-.016,1.544-.032t1.816-.04l1.912-.048q.952-.024,1.816-.032T62.9,64.2h4.816l-.032,1.5q-.688-.032-1.864-.056t-2.952-.024q-1.056,0-2.176.016T58.44,65.7q-1.128.04-2.176.088T54.32,65.9Zm8.512,4.672a5.3,5.3,0,0,1-.312,1.96,2.482,2.482,0,0,1-.888,1.168,2.415,2.415,0,0,1-1.392.392,2.75,2.75,0,0,1-.968-.176,2.645,2.645,0,0,1-1.488-1.416,2.9,2.9,0,0,1-.232-1.192,2.748,2.748,0,0,1,.408-1.5A2.888,2.888,0,0,1,59,67.256a3.06,3.06,0,0,1,1.48-.368,2.9,2.9,0,0,1,1.656.448,2.779,2.779,0,0,1,1,1.208,4.212,4.212,0,0,1,.336,1.72,5.9,5.9,0,0,1-.24,1.624,5.291,5.291,0,0,1-.8,1.624,5.921,5.921,0,0,1-1.512,1.432,8.391,8.391,0,0,1-2.376,1.064l-1.36-1.344a9.946,9.946,0,0,0,1.936-.6,5.593,5.593,0,0,0,1.488-.928,3.854,3.854,0,0,0,.968-1.312,4.251,4.251,0,0,0,.344-1.768,1.932,1.932,0,0,0-.424-1.392,1.392,1.392,0,0,0-1.032-.432,1.5,1.5,0,0,0-.7.176,1.392,1.392,0,0,0-.544.512,1.521,1.521,0,0,0-.208.816,1.3,1.3,0,0,0,.44,1.048,1.518,1.518,0,0,0,1.016.376,1.223,1.223,0,0,0,.792-.264,1.429,1.429,0,0,0,.456-.832,3.43,3.43,0,0,0-.064-1.448Z" transform="translate(52 9721.584)" fill="#fff"/>
        <g id="グループ_263-3" data-name="グループ 263">
          <path id="パス_465" data-name="パス 465" d="M1.918,0V-17.455H8.139a7.256,7.256,0,0,1,3.371.7,4.647,4.647,0,0,1,2.007,1.93,5.891,5.891,0,0,1,.665,2.842,5.744,5.744,0,0,1-.669,2.817A4.553,4.553,0,0,1,11.5-7.278a7.489,7.489,0,0,1-3.371.673H3.418V-8.872H7.892a5.065,5.065,0,0,0,2.084-.366,2.427,2.427,0,0,0,1.18-1.065,3.506,3.506,0,0,0,.375-1.679,3.646,3.646,0,0,0-.379-1.713,2.524,2.524,0,0,0-1.185-1.112A4.891,4.891,0,0,0,7.858-15.2H4.551V0Zm8.616-7.875L14.847,0h-3L7.619-7.875ZM22.67.264a6.381,6.381,0,0,1-3.328-.831,5.538,5.538,0,0,1-2.148-2.344,7.864,7.864,0,0,1-.754-3.55,7.939,7.939,0,0,1,.754-3.545A5.784,5.784,0,0,1,19.308-12.4a5.823,5.823,0,0,1,3.183-.861,6.415,6.415,0,0,1,2.148.366,5.2,5.2,0,0,1,1.866,1.151,5.41,5.41,0,0,1,1.3,2.033,8.509,8.509,0,0,1,.477,3.03v.9H17.881V-7.687H25.79a3.787,3.787,0,0,0-.409-1.786A3.11,3.11,0,0,0,24.234-10.7a3.237,3.237,0,0,0-1.726-.452,3.326,3.326,0,0,0-1.871.524,3.542,3.542,0,0,0-1.227,1.364,3.93,3.93,0,0,0-.43,1.82v1.491a4.913,4.913,0,0,0,.464,2.233,3.275,3.275,0,0,0,1.3,1.4,3.839,3.839,0,0,0,1.952.482,3.977,3.977,0,0,0,1.321-.209,2.805,2.805,0,0,0,1.031-.626,2.74,2.74,0,0,0,.665-1.031l2.412.435a4.358,4.358,0,0,1-1.036,1.862A5.017,5.017,0,0,1,25.223-.175,6.959,6.959,0,0,1,22.67.264ZM37.236-13.091v2.045H30.085v-2.045ZM32-16.227h2.548V-3.844a2.213,2.213,0,0,0,.222,1.112,1.127,1.127,0,0,0,.575.5,2.188,2.188,0,0,0,.771.132,2.98,2.98,0,0,0,.537-.043l.358-.068L37.474-.1a4.576,4.576,0,0,1-.631.175,5.237,5.237,0,0,1-1.023.1,4.487,4.487,0,0,1-1.875-.358A3.216,3.216,0,0,1,32.54-1.347,3.406,3.406,0,0,1,32-3.315Zm16.338,10.8v-7.662H50.9V0H48.392V-2.267h-.136A4.068,4.068,0,0,1,46.811-.524,4.2,4.2,0,0,1,44.344.17a4.378,4.378,0,0,1-2.229-.558A3.831,3.831,0,0,1,40.6-2.045a6.043,6.043,0,0,1-.55-2.719v-8.327H42.6v8.02a2.994,2.994,0,0,0,.741,2.131,2.517,2.517,0,0,0,1.926.793,3.151,3.151,0,0,0,1.428-.358,3.036,3.036,0,0,0,1.185-1.082A3.258,3.258,0,0,0,48.341-5.429ZM54.315,0V-13.091h2.463v2.08h.136a3.179,3.179,0,0,1,1.266-1.666,3.608,3.608,0,0,1,2.058-.609q.239,0,.567.017t.516.043v2.438a4.951,4.951,0,0,0-.545-.1,5.6,5.6,0,0,0-.784-.055,3.33,3.33,0,0,0-1.607.379,2.883,2.883,0,0,0-1.112,1.048,2.857,2.857,0,0,0-.409,1.521V0Zm11.77-7.773V0H63.537V-13.091h2.446v2.131h.162a3.734,3.734,0,0,1,1.419-1.67,4.386,4.386,0,0,1,2.442-.631,4.751,4.751,0,0,1,2.344.558,3.787,3.787,0,0,1,1.56,1.658,6,6,0,0,1,.554,2.719V0H71.915V-8.02a3.166,3.166,0,0,0-.741-2.229,2.631,2.631,0,0,0-2.037-.805,3.168,3.168,0,0,0-1.572.384A2.729,2.729,0,0,0,66.482-9.55,3.706,3.706,0,0,0,66.085-7.773Z" transform="translate(88.082 9705)" fill="#fff"/>
          <g id="グループ_14-3" data-name="グループ 14" transform="translate(-361 9681)">
            <rect id="長方形_53-3" data-name="長方形 53" width="30" height="30" transform="translate(413)" fill="#fff"/>
            <path id="パス_466" data-name="パス 466" d="M-4.185.157A3.084,3.084,0,0,1-6.055-.42,3.555,3.555,0,0,1-7.241-2.087a7.515,7.515,0,0,1-.411-2.636,7.423,7.423,0,0,1,.413-2.627A3.564,3.564,0,0,1-6.048-9.011a3.056,3.056,0,0,1,1.863-.572,3.037,3.037,0,0,1,1.86.575A3.587,3.587,0,0,1-1.136-7.347,7.4,7.4,0,0,1-.722-4.723a7.511,7.511,0,0,1-.411,2.638A3.571,3.571,0,0,1-2.32-.418,3.045,3.045,0,0,1-4.185.157Zm0-1.233a1.668,1.668,0,0,0,1.5-.937,5.486,5.486,0,0,0,.542-2.71,6.944,6.944,0,0,0-.247-1.992,2.708,2.708,0,0,0-.706-1.237,1.558,1.558,0,0,0-1.092-.422,1.669,1.669,0,0,0-1.5.942,5.512,5.512,0,0,0-.549,2.71,6.963,6.963,0,0,0,.247,2,2.685,2.685,0,0,0,.7,1.233A1.571,1.571,0,0,0-4.185-1.076Zm8.4,1.2A4.176,4.176,0,0,1,2.516-.2,2.855,2.855,0,0,1,1.339-1.11,2.394,2.394,0,0,1,.875-2.465h1.45a1.231,1.231,0,0,0,.284.727,1.656,1.656,0,0,0,.672.473A2.466,2.466,0,0,0,4.2-1.1a2.394,2.394,0,0,0,.99-.194,1.61,1.61,0,0,0,.676-.542,1.367,1.367,0,0,0,.245-.806,1.472,1.472,0,0,0-.242-.838,1.617,1.617,0,0,0-.706-.57,2.728,2.728,0,0,0-1.119-.208h-.8V-5.42h.8a2.138,2.138,0,0,0,.926-.189A1.509,1.509,0,0,0,5.6-6.138a1.4,1.4,0,0,0,.226-.8,1.451,1.451,0,0,0-.2-.764,1.357,1.357,0,0,0-.554-.51,1.814,1.814,0,0,0-.843-.185,2.192,2.192,0,0,0-.861.169,1.619,1.619,0,0,0-.649.48A1.245,1.245,0,0,0,2.454-7H1.073a2.323,2.323,0,0,1,.455-1.348,2.907,2.907,0,0,1,1.143-.909,3.726,3.726,0,0,1,1.579-.328,3.3,3.3,0,0,1,1.572.353,2.625,2.625,0,0,1,1.025.939A2.364,2.364,0,0,1,7.2-7.008,2.063,2.063,0,0,1,6.763-5.66a2.16,2.16,0,0,1-1.184.743v.074a2.3,2.3,0,0,1,1.461.748,2.2,2.2,0,0,1,.515,1.5,2.343,2.343,0,0,1-.432,1.4,2.955,2.955,0,0,1-1.189.972A4.008,4.008,0,0,1,4.213.129Z" transform="translate(428 20)" fill="#1a1a1a"/>
          </g>
        </g>
      </g>
      <g id="グループ_436" data-name="グループ 436" transform="translate(-1271 1368)">
        <circle id="楕円形_29" data-name="楕円形 29" cx="40" cy="40" r="40" transform="translate(1323 8685)" fill="#cb4c6a"/>
        <path id="楕円形_29_-_アウトライン" data-name="楕円形 29 - アウトライン" d="M40,4A36.011,36.011,0,0,0,25.988,73.173,36.01,36.01,0,0,0,54.012,6.827,35.771,35.771,0,0,0,40,4m0-4A40,40,0,1,1,0,40,40,40,0,0,1,40,0Z" transform="translate(1323 8685)" fill="#fff"/>
        <g id="グループ_435" data-name="グループ 435" transform="translate(1343.578 8703.642)">
          <g id="グループ_109" data-name="グループ 109" clip-path="url(#clip-path-2)">
            <path id="パス_9" data-name="パス 9" d="M18.554,18.074a15.4,15.4,0,0,1-6.03-1.106c-1.749-.77-2.713-1.844-2.713-3.024s.963-2.255,2.712-3.025a15.393,15.393,0,0,1,6.03-1.106,15.393,15.393,0,0,1,6.03,1.106c1.749.771,2.712,1.845,2.712,3.025s-.963,2.254-2.712,3.024A15.4,15.4,0,0,1,18.554,18.074Zm0-7.261a14.385,14.385,0,0,0-5.627,1.021c-1.344.592-2.116,1.361-2.116,2.11s.771,1.517,2.116,2.109a14.39,14.39,0,0,0,5.627,1.021,14.39,14.39,0,0,0,5.627-1.021c1.344-.592,2.116-1.361,2.116-2.109s-.771-1.518-2.116-2.11A14.385,14.385,0,0,0,18.554,10.813Z" transform="translate(-9.125 -9.126)" fill="#fff"/>
            <path id="パス_10" data-name="パス 10" d="M18.554,92.519a15.4,15.4,0,0,1-6.03-1.106c-1.749-.77-2.713-1.844-2.713-3.024a.5.5,0,0,1,1,0c0,.748.771,1.517,2.116,2.109a14.39,14.39,0,0,0,5.627,1.021A14.39,14.39,0,0,0,24.181,90.5c1.344-.592,2.116-1.361,2.116-2.109a.5.5,0,0,1,1,0c0,1.18-.963,2.254-2.712,3.024A15.4,15.4,0,0,1,18.554,92.519Z" transform="translate(-9.125 -78.213)" fill="#fff"/>
            <path id="パス_11" data-name="パス 11" d="M18.554,142.524a15.4,15.4,0,0,1-6.03-1.106c-1.749-.77-2.713-1.844-2.713-3.024a.5.5,0,0,1,1,0c0,.748.771,1.517,2.116,2.109a14.39,14.39,0,0,0,5.627,1.021,14.39,14.39,0,0,0,5.627-1.021c1.344-.592,2.116-1.361,2.116-2.109a.5.5,0,0,1,1,0c0,1.18-.963,2.254-2.712,3.024A15.4,15.4,0,0,1,18.554,142.524Z" transform="translate(-9.125 -122.46)" fill="#fff"/>
            <path id="パス_12" data-name="パス 12" d="M18.554,192.53a15.4,15.4,0,0,1-6.03-1.106c-1.749-.77-2.713-1.844-2.713-3.024a.5.5,0,0,1,1,0c0,.748.771,1.517,2.116,2.109a14.39,14.39,0,0,0,5.627,1.021,14.39,14.39,0,0,0,5.627-1.021c1.344-.592,2.116-1.361,2.116-2.109a.5.5,0,0,1,1,0c0,1.18-.963,2.254-2.712,3.024A15.4,15.4,0,0,1,18.554,192.53Z" transform="translate(-9.125 -166.709)" fill="#fff"/>
            <path id="パス_13" data-name="パス 13" d="M18.554,242.535a15.4,15.4,0,0,1-6.03-1.106c-1.749-.77-2.713-1.844-2.713-3.024a.5.5,0,0,1,1,0c0,.748.771,1.517,2.116,2.109a14.39,14.39,0,0,0,5.627,1.021,14.39,14.39,0,0,0,5.627-1.021c1.344-.592,2.116-1.361,2.116-2.109a.5.5,0,1,1,1,0c0,1.18-.963,2.254-2.712,3.024A15.4,15.4,0,0,1,18.554,242.535Z" transform="translate(-9.125 -210.956)" fill="#fff"/>
            <path id="パス_14" data-name="パス 14" d="M10.312,41.351a.5.5,0,0,1,.5.5c0,.748.771,1.517,2.116,2.109a14.39,14.39,0,0,0,5.627,1.021,14.39,14.39,0,0,0,5.627-1.021c1.344-.592,2.116-1.361,2.116-2.109a.5.5,0,0,1,1,0V70.234c0,1.18-.963,2.255-2.712,3.025a15.394,15.394,0,0,1-6.03,1.106,15.394,15.394,0,0,1-6.03-1.106c-1.749-.771-2.712-1.845-2.712-3.025V41.851A.5.5,0,0,1,10.312,41.351Zm8.242,4.629a15.4,15.4,0,0,1-6.03-1.106,6.424,6.424,0,0,1-1.713-1.059V70.234c0,.749.771,1.518,2.116,2.11a14.386,14.386,0,0,0,5.627,1.021,14.386,14.386,0,0,0,5.627-1.021c1.344-.592,2.116-1.361,2.116-2.11V43.816a6.423,6.423,0,0,1-1.712,1.059A15.4,15.4,0,0,1,18.554,45.98Z" transform="translate(-9.125 -37.032)" fill="#fff"/>
            <path id="パス_15" data-name="パス 15" d="M192.127,155.409a15.4,15.4,0,0,1-6.03-1.106c-1.749-.77-2.713-1.844-2.713-3.024s.963-2.255,2.712-3.025a16.992,16.992,0,0,1,12.06,0c1.749.771,2.712,1.845,2.712,3.025s-.963,2.254-2.712,3.024A15.4,15.4,0,0,1,192.127,155.409Zm0-7.261a14.385,14.385,0,0,0-5.627,1.021c-1.345.592-2.116,1.361-2.116,2.11s.771,1.517,2.116,2.109a16.019,16.019,0,0,0,11.254,0c1.344-.592,2.116-1.361,2.116-2.109s-.771-1.518-2.116-2.11A14.385,14.385,0,0,0,192.127,148.148Z" transform="translate(-162.713 -130.648)" fill="#fff"/>
            <path id="パス_16" data-name="パス 16" d="M192.127,183.315a15.4,15.4,0,0,1-6.03-1.106c-1.749-.77-2.713-1.844-2.713-3.024a.5.5,0,0,1,1,0c0,.748.771,1.517,2.116,2.109a16.019,16.019,0,0,0,11.254,0c1.344-.592,2.116-1.361,2.116-2.109a.5.5,0,0,1,1,0c0,1.18-.963,2.254-2.712,3.024A15.4,15.4,0,0,1,192.127,183.315Z" transform="translate(-162.713 -158.555)" fill="#fff"/>
            <path id="パス_17" data-name="パス 17" d="M192.127,233.32a15.4,15.4,0,0,1-6.03-1.106c-1.749-.77-2.713-1.844-2.713-3.024a.5.5,0,0,1,1,0c0,.748.771,1.517,2.116,2.109a16.019,16.019,0,0,0,11.254,0c1.344-.592,2.116-1.361,2.116-2.109a.5.5,0,0,1,1,0c0,1.18-.963,2.254-2.712,3.024A15.4,15.4,0,0,1,192.127,233.32Z" transform="translate(-162.713 -202.802)" fill="#fff"/>
            <path id="パス_18" data-name="パス 18" d="M192.127,283.326a15.4,15.4,0,0,1-6.03-1.106c-1.749-.77-2.713-1.844-2.713-3.024a.5.5,0,0,1,1,0c0,.748.771,1.517,2.116,2.109a16.018,16.018,0,0,0,11.254,0c1.344-.592,2.116-1.361,2.116-2.109a.5.5,0,0,1,1,0c0,1.18-.963,2.254-2.712,3.024A15.4,15.4,0,0,1,192.127,283.326Z" transform="translate(-162.713 -247.049)" fill="#fff"/>
            <path id="パス_19" data-name="パス 19" d="M192.127,200.584a15.394,15.394,0,0,1-6.03-1.106c-1.749-.771-2.712-1.845-2.712-3.025V179.186a.5.5,0,0,1,1,0v17.267c0,.749.771,1.518,2.116,2.11a16.016,16.016,0,0,0,11.253,0c1.344-.592,2.116-1.361,2.116-2.11V179.186a.5.5,0,0,1,1,0v17.267c0,1.18-.963,2.255-2.712,3.025A15.394,15.394,0,0,1,192.127,200.584Z" transform="translate(-162.713 -158.555)" fill="#fff"/>
          </g>
        </g>
      </g>
    </g>
  </g>
</svg>
