<svg xmlns="http://www.w3.org/2000/svg" xmlns:xlink="http://www.w3.org/1999/xlink" width="140" height="140" viewBox="0 0 140 140">
  <defs>
    <clipPath id="clip-path">
      <rect id="長方形_66" data-name="長方形 66" width="77.837" height="77.837" fill="none" stroke="#1a1a1a" stroke-width="2"/>
    </clipPath>
  </defs>
  <g id="グループ_629" data-name="グループ 629" transform="translate(0 -1897)">
    <circle id="楕円形_7" data-name="楕円形 7" cx="70" cy="70" r="70" transform="translate(0 1897)" fill="#f1f1f1"/>
    <g id="グループ_41" data-name="グループ 41" transform="translate(31.002 1928.001)">
      <g id="グループ_40" data-name="グループ 40" clip-path="url(#clip-path)">
        <path id="パス_4" data-name="パス 4" d="M36.344,3.75a32.595,32.595,0,1,1,0,65.189h0a32.595,32.595,0,1,1,0-65.189Zm0,63.189A30.5,30.5,0,1,0,24.831,64.7,30.493,30.493,0,0,0,36.344,66.94Z" transform="translate(-3.092 -3.093)" fill="#1a1a1a"/>
        <path id="線_12" data-name="線 12" d="M20.587,21.587a1,1,0,0,1-.707-.293L-.707.707a1,1,0,0,1,0-1.414,1,1,0,0,1,1.414,0L21.294,19.88a1,1,0,0,1-.707,1.707Z" transform="translate(55.593 55.593)" fill="#1a1a1a"/>
        <path id="パス_5" data-name="パス 5" d="M65.84,49.811a2.747,2.747,0,0,1,2.479,1.541l3.513,7.117a.764.764,0,0,0,.575.418l7.855,1.141a2.764,2.764,0,0,1,1.532,4.715l-5.683,5.54a.763.763,0,0,0-.22.676l1.342,7.823A2.76,2.76,0,0,1,73.221,81.7L66.2,78a.778.778,0,0,0-.711,0L58.46,81.7a2.74,2.74,0,0,1-1.287.321,2.768,2.768,0,0,1-2.724-3.235l1.342-7.823a.765.765,0,0,0-.22-.676l-5.683-5.54a2.764,2.764,0,0,1,1.532-4.715l7.854-1.141a.763.763,0,0,0,.575-.418l3.513-7.117A2.747,2.747,0,0,1,65.84,49.811Zm8.667,30.207a.786.786,0,0,0,.591-.282.733.733,0,0,0,.162-.616L73.919,71.3a2.763,2.763,0,0,1,.795-2.447l5.683-5.54a.764.764,0,0,0-.423-1.3L72.12,60.867a2.764,2.764,0,0,1-2.081-1.512l-3.513-7.118a.764.764,0,0,0-1.371,0l-3.513,7.117a2.763,2.763,0,0,1-2.081,1.512l-7.854,1.141a.764.764,0,0,0-.424,1.3l5.683,5.54a2.764,2.764,0,0,1,.8,2.447L56.42,79.121a.734.734,0,0,0,.162.616.785.785,0,0,0,.591.282.76.76,0,0,0,.356-.092l7.025-3.693a2.765,2.765,0,0,1,2.572,0l7.025,3.693A.76.76,0,0,0,74.508,80.018Z" transform="translate(-32.589 -33.084)" fill="#1a1a1a"/>
      </g>
    </g>
  </g>
</svg>
