<svg xmlns="http://www.w3.org/2000/svg" width="54.001" height="10.49" viewBox="0 0 54.001 10.49">
  <path id="パス_371" data-name="パス 371" d="M-25.524-10.182l2.834,8.293h.114l2.834-8.293h1.661L-21.746,0h-1.775l-3.664-10.182ZM-7.578-5.091a6.1,6.1,0,0,1-.6,2.8A4.364,4.364,0,0,1-9.807-.49a4.448,4.448,0,0,1-2.354.629A4.457,4.457,0,0,1-14.521-.49a4.361,4.361,0,0,1-1.633-1.8,6.109,6.109,0,0,1-.6-2.8,6.1,6.1,0,0,1,.6-2.8,4.364,4.364,0,0,1,1.633-1.8,4.457,4.457,0,0,1,2.359-.629,4.448,4.448,0,0,1,2.354.629,4.364,4.364,0,0,1,1.633,1.8A6.1,6.1,0,0,1-7.578-5.091Zm-1.521,0a4.914,4.914,0,0,0-.4-2.1,2.98,2.98,0,0,0-1.094-1.293,2.866,2.866,0,0,0-1.569-.44,2.862,2.862,0,0,0-1.571.44,2.987,2.987,0,0,0-1.091,1.293,4.914,4.914,0,0,0-.4,2.1,4.914,4.914,0,0,0,.4,2.1A2.987,2.987,0,0,0-13.733-1.7a2.862,2.862,0,0,0,1.571.44,2.866,2.866,0,0,0,1.569-.44A2.98,2.98,0,0,0-9.5-3,4.914,4.914,0,0,0-9.1-5.091Zm5.667-5.091V0H-4.969V-10.182ZM7.962-6.871H6.41a2.371,2.371,0,0,0-.333-.875,2.448,2.448,0,0,0-.6-.641,2.576,2.576,0,0,0-.788-.4,3.111,3.111,0,0,0-.922-.134A2.863,2.863,0,0,0,2.2-8.477,3,3,0,0,0,1.1-7.179,4.9,4.9,0,0,0,.7-5.091a4.931,4.931,0,0,0,.4,2.1A2.955,2.955,0,0,0,2.2-1.7a2.881,2.881,0,0,0,1.566.438,3.148,3.148,0,0,0,.917-.132,2.6,2.6,0,0,0,.788-.39,2.428,2.428,0,0,0,.6-.634,2.382,2.382,0,0,0,.341-.863l1.551,0a4.161,4.161,0,0,1-.48,1.38,3.823,3.823,0,0,1-.91,1.084,4.118,4.118,0,0,1-1.265.7A4.67,4.67,0,0,1,3.756.139,4.444,4.444,0,0,1,1.4-.49a4.35,4.35,0,0,1-1.628-1.8,6.13,6.13,0,0,1-.594-2.8,6.1,6.1,0,0,1,.6-2.8A4.37,4.37,0,0,1,1.4-9.692a4.435,4.435,0,0,1,2.352-.629,4.821,4.821,0,0,1,1.514.231,4.062,4.062,0,0,1,1.265.676,3.763,3.763,0,0,1,.93,1.084A4.209,4.209,0,0,1,7.962-6.871ZM10.5,0V-10.182h6.384v1.322H12.037v3.1h4.514V-4.44H12.037v3.117h4.907V0ZM25.2-7.507a1.46,1.46,0,0,0-.656-1.1,2.535,2.535,0,0,0-1.452-.39A2.734,2.734,0,0,0,22-8.8a1.676,1.676,0,0,0-.708.537,1.27,1.27,0,0,0-.251.773,1.123,1.123,0,0,0,.172.626,1.454,1.454,0,0,0,.452.44,3.135,3.135,0,0,0,.6.293,6.393,6.393,0,0,0,.621.191l.994.259a7.584,7.584,0,0,1,1,.323,4.006,4.006,0,0,1,.95.537,2.6,2.6,0,0,1,.708.825,2.409,2.409,0,0,1,.271,1.178,2.716,2.716,0,0,1-.445,1.536A3,3,0,0,1,25.084-.219a4.845,4.845,0,0,1-2.036.388A4.939,4.939,0,0,1,21.07-.194a3.039,3.039,0,0,1-1.308-1.032,2.97,2.97,0,0,1-.522-1.588h1.541a1.554,1.554,0,0,0,.36.917,1.883,1.883,0,0,0,.81.542,3.212,3.212,0,0,0,1.086.176A3.072,3.072,0,0,0,24.2-1.385a1.913,1.913,0,0,0,.8-.577,1.356,1.356,0,0,0,.293-.868,1.074,1.074,0,0,0-.256-.741,1.939,1.939,0,0,0-.691-.477,6.861,6.861,0,0,0-.982-.333l-1.2-.328a4.662,4.662,0,0,1-1.936-.979,2.2,2.2,0,0,1-.713-1.71,2.542,2.542,0,0,1,.477-1.536,3.153,3.153,0,0,1,1.293-1.022,4.451,4.451,0,0,1,1.839-.365,4.348,4.348,0,0,1,1.827.363,3.087,3.087,0,0,1,1.25,1,2.531,2.531,0,0,1,.477,1.454Z" transform="translate(27.185 10.321)" fill="#1a1a1a"/>
</svg>
