<svg xmlns="http://www.w3.org/2000/svg" xmlns:xlink="http://www.w3.org/1999/xlink" width="180" height="180" viewBox="0 0 180 180"><defs><clipPath id="a"><rect width="115.946" height="81.553" fill="none" stroke="#707070" stroke-width="2"/></clipPath></defs><g transform="translate(14258 1782)"><path d="M90,0A90,90,0,1,1,0,90,90,90,0,0,1,90,0Z" transform="translate(-14258 -1782)" fill="#fff"/><g transform="translate(-14225.973 -1732.776)" clip-path="url(#a)"><path d="M5-1h99.163a6.007,6.007,0,0,1,6,6V69.769a6.007,6.007,0,0,1-6,6H5a6.007,6.007,0,0,1-6-6V5A6.007,6.007,0,0,1,5-1Zm99.163,74.769a4,4,0,0,0,4-4V5a4,4,0,0,0-4-4H5A4,4,0,0,0,1,5V69.769a4,4,0,0,0,4,4Z" transform="translate(3.392 3.391)" fill="#1a1a1a"/></g><path d="M-26.025.137A4.561,4.561,0,0,1-28.448-.5a4.315,4.315,0,0,1-1.627-1.808,6.162,6.162,0,0,1-.584-2.779,6.151,6.151,0,0,1,.591-2.8,4.361,4.361,0,0,1,1.624-1.8,4.41,4.41,0,0,1,2.352-.632,4.74,4.74,0,0,1,1.535.243,4.221,4.221,0,0,1,1.278.69,3.856,3.856,0,0,1,.93,1.066,3.9,3.9,0,0,1,.489,1.357h-1.6a3.061,3.061,0,0,0-.376-.8,2.522,2.522,0,0,0-.571-.612,2.448,2.448,0,0,0-.752-.386A3.029,3.029,0,0,0-26.08-8.9a2.821,2.821,0,0,0-1.548.438,2.979,2.979,0,0,0-1.087,1.289,4.873,4.873,0,0,0-.4,2.082,4.85,4.85,0,0,0,.4,2.078,2.98,2.98,0,0,0,1.1,1.289,2.929,2.929,0,0,0,1.6.441,2.961,2.961,0,0,0,1.432-.332,2.338,2.338,0,0,0,.95-.943A2.942,2.942,0,0,0-23.3-4.006l.4.068h-2.9V-5.223h4.02v1.169a4.326,4.326,0,0,1-.55,2.225A3.788,3.788,0,0,1-23.831-.376,4.575,4.575,0,0,1-26.025.137ZM-19.255,0V-7.643h1.5L-17.751,0Zm.759-8.812a.945.945,0,0,1-.67-.263.837.837,0,0,1-.28-.632.854.854,0,0,1,.284-.629.939.939,0,0,1,.667-.26.973.973,0,0,1,.667.263.82.82,0,0,1,.277.625.812.812,0,0,1-.273.636A.951.951,0,0,1-18.5-8.812Zm7.256,1.169v1.224H-15.9V-7.643ZM-14.453,0V-8.518a2.1,2.1,0,0,1,.318-1.189,1.983,1.983,0,0,1,.837-.718,2.648,2.648,0,0,1,1.121-.239,3.518,3.518,0,0,1,.783.075,4.492,4.492,0,0,1,.475.13l-.349,1.217q-.109-.034-.27-.072a1.791,1.791,0,0,0-.4-.038.991.991,0,0,0-.772.267,1.12,1.12,0,0,0-.239.772V0Zm8.2-7.643v1.224H-10.4V-7.643ZM-9.283-9.461h1.5v7.4a.982.982,0,0,0,.195.673.826.826,0,0,0,.639.215A2.284,2.284,0,0,0-6.637-1.2q.191-.027.328-.055l.267,1.2a2.72,2.72,0,0,1-.513.12A3.961,3.961,0,0,1-7.1.1,2.272,2.272,0,0,1-8.708-.434a1.962,1.962,0,0,1-.574-1.507ZM3.588.157a3.515,3.515,0,0,1-1.88-.492A3.328,3.328,0,0,1,.464-1.716,4.56,4.56,0,0,1,.02-3.78,4.614,4.614,0,0,1,.464-5.862,3.323,3.323,0,0,1,1.708-7.246a3.515,3.515,0,0,1,1.88-.492A3.908,3.908,0,0,1,4.7-7.584a3.276,3.276,0,0,1,.94.444,2.775,2.775,0,0,1,.711.711,3.073,3.073,0,0,1,.434.947l-1.429.342a1.8,1.8,0,0,0-.232-.537,1.76,1.76,0,0,0-.379-.42,1.627,1.627,0,0,0-.513-.273,2.033,2.033,0,0,0-.639-.1A1.768,1.768,0,0,0,2.45-6.1a2.176,2.176,0,0,0-.677.974A3.9,3.9,0,0,0,1.551-3.78a3.851,3.851,0,0,0,.222,1.336,2.154,2.154,0,0,0,.677.967A1.779,1.779,0,0,0,3.6-1.114a2.023,2.023,0,0,0,.649-.1,1.767,1.767,0,0,0,.526-.28,1.63,1.63,0,0,0,.39-.437A1.829,1.829,0,0,0,5.386-2.5l1.422.342a2.981,2.981,0,0,1-.431.967,2.931,2.931,0,0,1-.714.728A3.175,3.175,0,0,1,4.716,0,3.923,3.923,0,0,1,3.588.157Zm7.844.014A3.108,3.108,0,0,1,10.119-.1a2.172,2.172,0,0,1-.93-.79A2.263,2.263,0,0,1,8.848-2.16,2.052,2.052,0,0,1,9.1-3.227a1.852,1.852,0,0,1,.677-.663,3.5,3.5,0,0,1,.95-.369,9.168,9.168,0,0,1,1.063-.185l1.1-.133a1.666,1.666,0,0,0,.625-.171.415.415,0,0,0,.2-.386v-.041a1.469,1.469,0,0,0-.164-.725,1.1,1.1,0,0,0-.489-.455,1.819,1.819,0,0,0-.81-.161,2.17,2.17,0,0,0-.858.154,1.684,1.684,0,0,0-.581.393,1.715,1.715,0,0,0-.332.5L9.067-5.838a2.665,2.665,0,0,1,.745-1.1,3.054,3.054,0,0,1,1.114-.608,4.436,4.436,0,0,1,1.3-.191,4.785,4.785,0,0,1,.984.109,2.986,2.986,0,0,1,.978.4,2.163,2.163,0,0,1,.745.807,2.787,2.787,0,0,1,.287,1.354V0H13.763V-1.046h-.075a2.172,2.172,0,0,1-.444.574A2.323,2.323,0,0,1,12.5-.01,2.848,2.848,0,0,1,11.432.171Zm.335-1.21a2.165,2.165,0,0,0,1.053-.239,1.7,1.7,0,0,0,.67-.636,1.637,1.637,0,0,0,.232-.841v-.978a.742.742,0,0,1-.311.147,5.217,5.217,0,0,1-.523.116q-.294.051-.567.085l-.451.055a3.55,3.55,0,0,0-.776.185,1.341,1.341,0,0,0-.561.369.933.933,0,0,0-.208.636.973.973,0,0,0,.188.608,1.134,1.134,0,0,0,.509.369A2.076,2.076,0,0,0,11.767-1.039ZM17.942,0V-7.643H19.4v1.23h.082a1.873,1.873,0,0,1,.738-.984,2.088,2.088,0,0,1,1.2-.355q.144,0,.328.01a2.9,2.9,0,0,1,.308.031v1.436a1.874,1.874,0,0,0-.314-.055,4.034,4.034,0,0,0-.472-.027,1.985,1.985,0,0,0-.937.219,1.617,1.617,0,0,0-.649.6,1.7,1.7,0,0,0-.232.892V0Zm8.691.15a2.949,2.949,0,0,1-1.654-.475,3.172,3.172,0,0,1-1.135-1.36,5,5,0,0,1-.41-2.116,4.941,4.941,0,0,1,.417-2.126,3.15,3.15,0,0,1,1.142-1.347,2.973,2.973,0,0,1,1.641-.465,2.4,2.4,0,0,1,1.145.236,2.15,2.15,0,0,1,.68.55,4.125,4.125,0,0,1,.376.554h.082v-3.787h1.5V0H28.958V-1.2h-.123a3.63,3.63,0,0,1-.383.561,2.224,2.224,0,0,1-.69.55A2.368,2.368,0,0,1,26.633.15Zm.328-1.278a1.715,1.715,0,0,0,1.083-.342,2.107,2.107,0,0,0,.67-.947,3.935,3.935,0,0,0,.229-1.4,3.9,3.9,0,0,0-.226-1.391,2.022,2.022,0,0,0-.667-.923,1.762,1.762,0,0,0-1.09-.332,1.725,1.725,0,0,0-1.1.349,2.111,2.111,0,0,0-.663.947,3.857,3.857,0,0,0-.222,1.35A3.911,3.911,0,0,0,25.2-2.447a2.164,2.164,0,0,0,.67.964A1.7,1.7,0,0,0,26.962-1.128Z" transform="translate(-14168 -1687)" fill="#b5002b"/><path d="M-14833.842-2571.539l18.018-18.015h14.584l-32.6,32.6Z" transform="translate(612 860)" fill="#1a1a1a"/><path d="M-14801.24-2574.968l-18.018,18.015h-14.584l32.6-32.6Z" transform="translate(688 902.554)" fill="#1a1a1a"/></g></svg>