<svg id="グループ_75" data-name="グループ 75" xmlns="http://www.w3.org/2000/svg" xmlns:xlink="http://www.w3.org/1999/xlink" width="21" height="20" viewBox="0 0 21 20">
  <defs>
    <clipPath id="clip-path">
      <rect id="長方形_72" data-name="長方形 72" width="21" height="20" fill="#1a1a1a"/>
    </clipPath>
  </defs>
  <g id="グループ_74" data-name="グループ 74" clip-path="url(#clip-path)">
    <path id="パス_7" data-name="パス 7" d="M156.353,11.455l4.285,3.81a1.319,1.319,0,0,0,1.848-.1l9.478-10.541a1.251,1.251,0,0,0-.117-1.792,1.319,1.319,0,0,0-1.832.115l-8.606,9.571L158.1,9.575a1.319,1.319,0,0,0-1.834.085,1.251,1.251,0,0,0,.087,1.794" transform="translate(-151.287 -2.441)" fill="#b5002b"/>
    <path id="パス_8" data-name="パス 8" d="M18.892,7.91a8.6,8.6,0,0,1-.444,5.488,8.811,8.811,0,0,1-3.234,3.842,8.973,8.973,0,0,1-2.335,1.1,9.155,9.155,0,0,1-6.128-.293,8.92,8.92,0,0,1-3.927-3.164A8.58,8.58,0,0,1,2,6.6,8.811,8.811,0,0,1,5.234,2.761a8.972,8.972,0,0,1,2.335-1.1,9.174,9.174,0,0,1,5.309,0,.652.652,0,0,0,.813-.418A.633.633,0,0,0,13.263.45a10.481,10.481,0,0,0-7.02.336,10.212,10.212,0,0,0-4.5,3.622A9.826,9.826,0,0,0,.8,13.893a10.087,10.087,0,0,0,3.7,4.4A10.283,10.283,0,0,0,7.184,19.55a10.481,10.481,0,0,0,7.02-.336,10.212,10.212,0,0,0,4.5-3.622,9.835,9.835,0,0,0,1.452-7.984.65.65,0,0,0-.785-.465.634.634,0,0,0-.476.768" transform="translate(0 0)" fill="#1a1a1a"/>
  </g>
</svg>
