<svg xmlns="http://www.w3.org/2000/svg" width="421" height="15" viewBox="0 0 421 15">
  <g id="グループ_521" data-name="グループ 521" transform="translate(-479.5 -6672.5)">
    <path id="線_39" data-name="線 39" d="M8,14.5a.5.5,0,0,1-.435-.252l-8-14A.5.5,0,0,1-.248-.434a.5.5,0,0,1,.682.186l8,14A.5.5,0,0,1,8,14.5Z" transform="translate(678 6673)" fill="#575352"/>
    <path id="線_40" data-name="線 40" d="M198,.5H0A.5.5,0,0,1-.5,0,.5.5,0,0,1,0-.5H198a.5.5,0,0,1,.5.5A.5.5,0,0,1,198,.5Z" transform="translate(480 6673)" fill="#575352"/>
    <path id="線_41" data-name="線 41" d="M204,.5H0A.5.5,0,0,1-.5,0,.5.5,0,0,1,0-.5H204a.5.5,0,0,1,.5.5A.5.5,0,0,1,204,.5Z" transform="translate(696 6673)" fill="#575352"/>
  </g>
</svg>
