<svg xmlns="http://www.w3.org/2000/svg" width="2114.597" height="104.901" viewBox="0 0 2114.597 104.901">
  <path id="パス_339" data-name="パス 339" d="M-1056.105,0V-101.818h15.362v88.594h46.136V0Zm86,0V-101.818h63.835v13.224h-48.473v31.023H-909.6V-44.4h-45.142v31.172h49.07V0Zm175.984-68.707h-15.511a23.713,23.713,0,0,0-3.331-8.75,24.483,24.483,0,0,0-5.966-6.413,25.757,25.757,0,0,0-7.88-3.977,31.108,31.108,0,0,0-9.222-1.342,28.626,28.626,0,0,0-15.735,4.425A29.948,29.948,0,0,0-862.705-71.79q-4,8.551-4,20.881,0,12.429,4,20.98A29.555,29.555,0,0,0-851.743-17a28.815,28.815,0,0,0,15.661,4.375,31.476,31.476,0,0,0,9.173-1.317,25.958,25.958,0,0,0,7.88-3.9,24.279,24.279,0,0,0,5.991-6.339,23.823,23.823,0,0,0,3.406-8.626l15.511.05a41.6,41.6,0,0,1-4.8,13.8,38.227,38.227,0,0,1-9.1,10.838,41.18,41.18,0,0,1-12.653,7.035,46.7,46.7,0,0,1-15.511,2.486A44.442,44.442,0,0,1-859.747-4.9a43.5,43.5,0,0,1-16.282-18.022q-5.941-11.733-5.941-27.99,0-16.307,5.966-28.015a43.7,43.7,0,0,1,16.307-18,44.349,44.349,0,0,1,23.516-6.289,48.207,48.207,0,0,1,15.138,2.312,40.619,40.619,0,0,1,12.653,6.761,37.627,37.627,0,0,1,9.3,10.838A42.094,42.094,0,0,1-794.122-68.707Zm20.374-19.886v-13.224h78.8v13.224h-31.768V0H-742.03V-88.594Zm168.626-13.224h15.412v66.967a35.581,35.581,0,0,1-5.021,18.917A34.867,34.867,0,0,1-608.851-3.008q-9.1,4.7-21.328,4.7-12.18,0-21.278-4.7a34.867,34.867,0,0,1-14.119-12.926A35.581,35.581,0,0,1-670.6-34.851v-66.967h15.362v65.724a24.375,24.375,0,0,0,3.058,12.28,21.675,21.675,0,0,0,8.675,8.427,27.473,27.473,0,0,0,13.324,3.058,27.729,27.729,0,0,0,13.4-3.058,21.3,21.3,0,0,0,8.651-8.427,24.7,24.7,0,0,0,3.008-12.28ZM-560.338,0V-101.818h36.293q11.832,0,19.663,4.077a27.109,27.109,0,0,1,11.708,11.261A34.363,34.363,0,0,1-488.8-69.9a33.5,33.5,0,0,1-3.9,16.431,26.558,26.558,0,0,1-11.733,11.012q-7.83,3.928-19.663,3.928h-27.493V-51.754h26.1q7.457,0,12.156-2.138a14.159,14.159,0,0,0,6.886-6.214,20.452,20.452,0,0,0,2.188-9.794,21.268,21.268,0,0,0-2.212-9.993,14.722,14.722,0,0,0-6.911-6.488q-4.7-2.262-12.3-2.262h-19.29V0Zm50.263-45.937L-484.919,0h-17.5l-24.659-45.937ZM-463.054,0V-101.818h63.835v13.224h-48.473v31.023h45.142V-44.4h-45.142v31.172h49.07V0Zm135.506,0V-101.818h15.362v88.594h46.136V0Zm86,0V-101.818h63.835v13.224h-48.473v31.023h45.142V-44.4h-45.142v31.172h49.07V0ZM-65.565-68.707H-81.077a23.715,23.715,0,0,0-3.331-8.75,24.482,24.482,0,0,0-5.966-6.413,25.758,25.758,0,0,0-7.88-3.977,31.108,31.108,0,0,0-9.222-1.342,28.626,28.626,0,0,0-15.735,4.425A29.948,29.948,0,0,0-134.148-71.79q-4,8.551-4,20.881,0,12.429,4,20.98A29.555,29.555,0,0,0-123.186-17a28.815,28.815,0,0,0,15.661,4.375,31.476,31.476,0,0,0,9.173-1.317,25.958,25.958,0,0,0,7.88-3.9,24.279,24.279,0,0,0,5.991-6.339,23.823,23.823,0,0,0,3.406-8.626l15.511.05a41.605,41.605,0,0,1-4.8,13.8,38.227,38.227,0,0,1-9.1,10.838A41.18,41.18,0,0,1-92.114-1.094a46.7,46.7,0,0,1-15.511,2.486A44.442,44.442,0,0,1-131.19-4.9a43.5,43.5,0,0,1-16.282-18.022q-5.941-11.733-5.941-27.99,0-16.307,5.966-28.015a43.7,43.7,0,0,1,16.307-18,44.349,44.349,0,0,1,23.516-6.289A48.207,48.207,0,0,1-92.487-100.9a40.619,40.619,0,0,1,12.653,6.761,37.628,37.628,0,0,1,9.3,10.838A42.094,42.094,0,0,1-65.565-68.707Zm20.374-19.886v-13.224h78.8v13.224H1.839V0H-13.473V-88.594Zm168.626-13.224h15.412v66.967a35.581,35.581,0,0,1-5.021,18.917A34.867,34.867,0,0,1,119.706-3.008q-9.1,4.7-21.328,4.7-12.18,0-21.278-4.7A34.867,34.867,0,0,1,62.98-15.934a35.581,35.581,0,0,1-5.021-18.917v-66.967H73.321v65.724a24.375,24.375,0,0,0,3.058,12.28,21.676,21.676,0,0,0,8.675,8.427A27.473,27.473,0,0,0,98.378-12.33a27.729,27.729,0,0,0,13.4-3.058,21.3,21.3,0,0,0,8.651-8.427,24.7,24.7,0,0,0,3.008-12.28ZM168.219,0V-101.818h36.293q11.832,0,19.663,4.077a27.109,27.109,0,0,1,11.708,11.261A34.363,34.363,0,0,1,239.76-69.9a33.505,33.505,0,0,1-3.9,16.431,26.558,26.558,0,0,1-11.733,11.012q-7.83,3.928-19.663,3.928H176.969V-51.754h26.1q7.457,0,12.156-2.138a14.159,14.159,0,0,0,6.886-6.214A20.452,20.452,0,0,0,224.3-69.9a21.268,21.268,0,0,0-2.212-9.993,14.722,14.722,0,0,0-6.911-6.488q-4.7-2.262-12.3-2.262h-19.29V0Zm50.263-45.937L243.638,0h-17.5L201.479-45.937ZM265.5,0V-101.818h63.835v13.224H280.865v31.023h45.142V-44.4H280.865v31.172h49.07V0ZM401.008,0V-101.818h15.362v88.594h46.136V0Zm86,0V-101.818h63.835v13.224H502.369v31.023h45.142V-44.4H502.369v31.172h49.07V0ZM662.991-68.707H647.48a23.713,23.713,0,0,0-3.331-8.75,24.483,24.483,0,0,0-5.966-6.413,25.757,25.757,0,0,0-7.88-3.977,31.108,31.108,0,0,0-9.222-1.342,28.626,28.626,0,0,0-15.735,4.425A29.948,29.948,0,0,0,594.408-71.79q-4,8.551-4,20.881,0,12.429,4,20.98A29.555,29.555,0,0,0,605.371-17a28.815,28.815,0,0,0,15.661,4.375,31.476,31.476,0,0,0,9.173-1.317,25.958,25.958,0,0,0,7.88-3.9,24.279,24.279,0,0,0,5.991-6.339,23.823,23.823,0,0,0,3.406-8.626l15.511.05a41.6,41.6,0,0,1-4.8,13.8,38.227,38.227,0,0,1-9.1,10.838,41.18,41.18,0,0,1-12.653,7.035,46.7,46.7,0,0,1-15.511,2.486A44.442,44.442,0,0,1,597.366-4.9a43.5,43.5,0,0,1-16.282-18.022q-5.941-11.733-5.941-27.99,0-16.307,5.966-28.015a43.7,43.7,0,0,1,16.307-18,44.349,44.349,0,0,1,23.516-6.289A48.207,48.207,0,0,1,636.07-100.9a40.619,40.619,0,0,1,12.653,6.761,37.627,37.627,0,0,1,9.3,10.838A42.094,42.094,0,0,1,662.991-68.707Zm20.374-19.886v-13.224h78.8v13.224H730.4V0H715.084V-88.594Zm168.626-13.224H867.4v66.967a35.581,35.581,0,0,1-5.021,18.917A34.867,34.867,0,0,1,848.263-3.008q-9.1,4.7-21.328,4.7-12.18,0-21.278-4.7a34.867,34.867,0,0,1-14.119-12.926,35.581,35.581,0,0,1-5.021-18.917v-66.967h15.362v65.724a24.375,24.375,0,0,0,3.058,12.28,21.675,21.675,0,0,0,8.675,8.427,27.473,27.473,0,0,0,13.324,3.058,27.729,27.729,0,0,0,13.4-3.058,21.3,21.3,0,0,0,8.651-8.427,24.7,24.7,0,0,0,3.008-12.28ZM896.775,0V-101.818h36.293q11.832,0,19.663,4.077a27.109,27.109,0,0,1,11.708,11.261,34.362,34.362,0,0,1,3.878,16.58,33.5,33.5,0,0,1-3.9,16.431,26.558,26.558,0,0,1-11.733,11.012q-7.83,3.928-19.663,3.928H905.525V-51.754h26.1q7.457,0,12.156-2.138a14.159,14.159,0,0,0,6.886-6.214,20.452,20.452,0,0,0,2.188-9.794,21.268,21.268,0,0,0-2.212-9.993,14.722,14.722,0,0,0-6.911-6.488q-4.7-2.262-12.3-2.262h-19.29V0Zm50.263-45.937L972.194,0h-17.5L930.035-45.937ZM994.06,0V-101.818h63.835v13.224h-48.473v31.023h45.142V-44.4h-45.142v31.172h49.07V0Z" transform="translate(1056.105 103.21)" fill="#e1e0e0"/>
</svg>
