<svg xmlns="http://www.w3.org/2000/svg" width="2919.328" height="104.603" viewBox="0 0 2919.328 104.603">
  <path id="パス_348" data-name="パス 348" d="M-1458.222,0V-101.818h63.835v13.224h-48.473v31.023h45.142V-44.4h-45.142v31.172h49.07V0ZM-1323-57.372v12.926h-45.142V-57.372ZM-1262.013,0h-32.962V-101.818h34.006q14.964,0,25.7,6.09a40.632,40.632,0,0,1,16.481,17.45q5.742,11.36,5.742,27.219,0,15.909-5.792,27.344A40.822,40.822,0,0,1-1235.565-6.14Q-1246.5,0-1262.013,0Zm-17.6-13.423h16.754q11.633,0,19.339-4.4A27.414,27.414,0,0,0-1231.985-30.6q3.828-8.377,3.828-20.458,0-11.982-3.8-20.334a27.181,27.181,0,0,0-11.31-12.678q-7.507-4.325-18.643-4.325h-17.7ZM-1186.952,0V-101.818h63.835v13.224h-48.473v31.023h45.142V-44.4h-45.142v31.172h49.07V0Zm86.4-88.594v-13.224h78.8v13.224h-31.768V0h-15.312V-88.594ZM-1000.935,0h-16.307L-980.6-101.818h17.749L-926.212,0h-16.307L-971.3-83.324h-.8Zm2.734-39.872h52.9v12.926h-52.9Zm109.017-61.946V0h-15.362V-101.818ZM-859.812,0V-101.818h15.362v88.594h46.136V0Zm101.361-101.818V0h-15.362V-101.818Zm111.553,0V0h-14.119l-51.754-74.673h-.945V0h-15.362V-101.818h14.219l51.8,74.773h.945v-74.773Zm98.278,32.166a32,32,0,0,0-3.853-8.129,25.8,25.8,0,0,0-5.742-6.165,24.357,24.357,0,0,0-7.582-3.9,30.828,30.828,0,0,0-9.322-1.342,28.155,28.155,0,0,0-15.511,4.425,30.035,30.035,0,0,0-10.913,12.951q-4,8.526-4,20.856,0,12.379,4.027,20.93a29.92,29.92,0,0,0,11.037,12.976,29.263,29.263,0,0,0,15.959,4.425,29.771,29.771,0,0,0,14.492-3.381,23.714,23.714,0,0,0,9.6-9.57,29.81,29.81,0,0,0,3.406-14.592l3.977.746h-29.134V-52.1h40.021v11.584q0,12.827-5.444,22.248A37.4,37.4,0,0,1-552.622-3.729a45.7,45.7,0,0,1-21.9,5.121q-13.821,0-24.237-6.364a43.053,43.053,0,0,1-16.232-18.072q-5.817-11.708-5.817-27.816a66.181,66.181,0,0,1,3.381-21.875,47.559,47.559,0,0,1,9.521-16.481,41.576,41.576,0,0,1,14.467-10.391,45.381,45.381,0,0,1,18.221-3.6,47.314,47.314,0,0,1,15.387,2.436A41.812,41.812,0,0,1-547.1-93.864a39.461,39.461,0,0,1,9.272,10.614,39.236,39.236,0,0,1,4.972,13.6ZM-461.587,0V-101.818h63.835v13.224h-48.473v31.023h45.142V-44.4h-45.142v31.172h49.07V0ZM-326.37-57.372v12.926h-45.142V-57.372ZM-265.378,0H-298.34V-101.818h34.006q14.964,0,25.7,6.09a40.632,40.632,0,0,1,16.481,17.45q5.742,11.36,5.742,27.219,0,15.909-5.792,27.344A40.821,40.821,0,0,1-238.93-6.14Q-249.867,0-265.378,0Zm-17.6-13.423h16.754q11.634,0,19.339-4.4A27.414,27.414,0,0,0-235.35-30.6q3.828-8.377,3.828-20.458,0-11.982-3.8-20.334a27.181,27.181,0,0,0-11.31-12.678q-7.507-4.325-18.643-4.325h-17.7ZM-190.317,0V-101.818h63.835v13.224h-48.473v31.023h45.142V-44.4h-45.142v31.172h49.07V0Zm86.4-88.594v-13.224h78.8v13.224H-56.89V0H-72.2V-88.594ZM-4.3,0H-20.607L16.033-101.818H33.782L70.423,0H54.116L25.33-83.324h-.8Zm2.734-39.872h52.9v12.926h-52.9Zm109.017-61.946V0H92.089V-101.818ZM136.823,0V-101.818h15.362v88.594h46.136V0ZM238.184-101.818V0H222.822V-101.818Zm111.553,0V0H335.617L283.863-74.673h-.945V0H267.556V-101.818h14.219l51.8,74.773h.945v-74.773Zm98.278,32.166a32,32,0,0,0-3.853-8.129,25.8,25.8,0,0,0-5.742-6.165,24.357,24.357,0,0,0-7.582-3.9,30.828,30.828,0,0,0-9.322-1.342,28.155,28.155,0,0,0-15.511,4.425,30.034,30.034,0,0,0-10.913,12.951q-4,8.526-4,20.856,0,12.379,4.027,20.93a29.92,29.92,0,0,0,11.037,12.976,29.263,29.263,0,0,0,15.959,4.425,29.771,29.771,0,0,0,14.492-3.381,23.714,23.714,0,0,0,9.6-9.57,29.809,29.809,0,0,0,3.406-14.592l3.977.746H424.45V-52.1h40.021v11.584q0,12.827-5.444,22.248A37.4,37.4,0,0,1,444.013-3.729a45.7,45.7,0,0,1-21.9,5.121q-13.821,0-24.237-6.364a43.053,43.053,0,0,1-16.232-18.072q-5.817-11.708-5.817-27.816a66.18,66.18,0,0,1,3.381-21.875,47.559,47.559,0,0,1,9.521-16.481A41.575,41.575,0,0,1,403.2-99.606a45.381,45.381,0,0,1,18.221-3.6,47.314,47.314,0,0,1,15.387,2.436,41.813,41.813,0,0,1,12.727,6.911A39.461,39.461,0,0,1,458.8-83.249a39.236,39.236,0,0,1,4.972,13.6ZM535.048,0V-101.818h63.835v13.224H550.41v31.023h45.142V-44.4H550.41v31.172h49.07V0ZM670.265-57.372v12.926H625.123V-57.372ZM731.256,0H698.295V-101.818H732.3q14.964,0,25.7,6.09a40.632,40.632,0,0,1,16.481,17.45q5.742,11.36,5.742,27.219,0,15.909-5.792,27.344A40.821,40.821,0,0,1,757.705-6.14Q746.768,0,731.256,0Zm-17.6-13.423h16.754q11.634,0,19.339-4.4A27.414,27.414,0,0,0,761.285-30.6q3.828-8.377,3.828-20.458,0-11.982-3.8-20.334A27.182,27.182,0,0,0,750-84.07q-7.507-4.325-18.643-4.325h-17.7ZM806.318,0V-101.818h63.835v13.224H821.68v31.023h45.142V-44.4H821.68v31.172h49.07V0Zm86.4-88.594v-13.224h78.8v13.224H939.745V0H924.433V-88.594ZM992.335,0H976.028l36.641-101.818h17.749L1067.058,0h-16.307l-28.786-83.324h-.8Zm2.734-39.872h52.9v12.926h-52.9Zm109.017-61.946V0h-15.362V-101.818ZM1133.458,0V-101.818h15.362v88.594h46.136V0Zm101.361-101.818V0h-15.362V-101.818Zm111.552,0V0h-14.119L1280.5-74.673h-.945V0h-15.362V-101.818h14.219l51.8,74.773h.945v-74.773Zm98.278,32.166a32,32,0,0,0-3.853-8.129,25.8,25.8,0,0,0-5.742-6.165,24.358,24.358,0,0,0-7.582-3.9,30.828,30.828,0,0,0-9.322-1.342,28.155,28.155,0,0,0-15.511,4.425,30.034,30.034,0,0,0-10.913,12.951q-4,8.526-4,20.856,0,12.379,4.027,20.93a29.92,29.92,0,0,0,11.037,12.976,29.262,29.262,0,0,0,15.959,4.425,29.77,29.77,0,0,0,14.492-3.381,23.713,23.713,0,0,0,9.6-9.57,29.809,29.809,0,0,0,3.406-14.592l3.977.746h-29.134V-52.1h40.021v11.584q0,12.827-5.444,22.248a37.4,37.4,0,0,1-15.014,14.542,45.7,45.7,0,0,1-21.9,5.121q-13.821,0-24.236-6.364a43.052,43.052,0,0,1-16.232-18.072q-5.817-11.708-5.817-27.816a66.181,66.181,0,0,1,3.381-21.875,47.557,47.557,0,0,1,9.521-16.481,41.575,41.575,0,0,1,14.467-10.391,45.381,45.381,0,0,1,18.221-3.6,47.313,47.313,0,0,1,15.387,2.436,41.811,41.811,0,0,1,12.727,6.911,39.465,39.465,0,0,1,9.272,10.614,39.235,39.235,0,0,1,4.972,13.6Z" transform="translate(1458.222 103.21)" fill="#e1e0e0"/>
</svg>
