<svg xmlns="http://www.w3.org/2000/svg" width="2495.042" height="104.603" viewBox="0 0 2495.042 104.603">
  <path id="パス_357" data-name="パス 357" d="M-1247.521,0V-101.818h36.293q11.882,0,19.688,4.325a28.145,28.145,0,0,1,11.683,11.808,36.026,36.026,0,0,1,3.878,16.829,35.946,35.946,0,0,1-3.9,16.879,28.416,28.416,0,0,1-11.733,11.832q-7.83,4.35-19.663,4.35h-24.957V-48.821h23.565q7.507,0,12.18-2.61a16.093,16.093,0,0,0,6.861-7.134,23.349,23.349,0,0,0,2.188-10.291,23.029,23.029,0,0,0-2.187-10.241,15.715,15.715,0,0,0-6.886-7.01q-4.7-2.535-12.354-2.536h-19.29V0Zm96.489,0V-101.818h15.362v88.594h46.136V0Zm99.671,0h-16.307l36.641-101.818h17.749L-976.639,0h-16.307l-28.786-83.324h-.8Zm2.734-39.872h52.9v12.926h-52.9Zm76.5-48.722v-13.224h78.8v13.224h-31.768V0h-15.312V-88.594ZM-868.974,0V-101.818h63.139v13.224h-47.777v31.023h43.253V-44.4h-43.253V0ZM-691.5-50.909q0,16.307-5.966,28.015A43.642,43.642,0,0,1-713.8-4.9a44.478,44.478,0,0,1-23.54,6.289A44.571,44.571,0,0,1-760.927-4.9a43.61,43.61,0,0,1-16.332-18.022q-5.966-11.733-5.966-27.99,0-16.307,5.966-28.015a43.643,43.643,0,0,1,16.332-18,44.571,44.571,0,0,1,23.59-6.289,44.478,44.478,0,0,1,23.54,6.289,43.642,43.642,0,0,1,16.332,18Q-691.5-67.216-691.5-50.909Zm-15.213,0q0-12.429-4-20.955A29.8,29.8,0,0,0-721.651-84.79a28.658,28.658,0,0,0-15.685-4.4,28.623,28.623,0,0,0-15.71,4.4A29.866,29.866,0,0,0-763.96-71.864q-4,8.526-4,20.955t4,20.955a29.866,29.866,0,0,0,10.913,12.926,28.623,28.623,0,0,0,15.71,4.4,28.658,28.658,0,0,0,15.685-4.4,29.8,29.8,0,0,0,10.938-12.926Q-706.712-38.48-706.712-50.909ZM-665.408,0V-101.818h36.293q11.832,0,19.663,4.077a27.109,27.109,0,0,1,11.708,11.261,34.362,34.362,0,0,1,3.878,16.58,33.5,33.5,0,0,1-3.9,16.431A26.558,26.558,0,0,1-609.5-42.457q-7.83,3.928-19.663,3.928h-27.493V-51.754h26.1q7.457,0,12.156-2.138a14.159,14.159,0,0,0,6.886-6.214,20.452,20.452,0,0,0,2.188-9.794,21.268,21.268,0,0,0-2.212-9.993,14.722,14.722,0,0,0-6.911-6.488q-4.7-2.262-12.3-2.262h-19.29V0Zm50.263-45.937L-589.989,0h-17.5l-24.659-45.937Zm47.021-55.881h18.643l32.415,79.148h1.193l32.415-79.148h18.643V0H-479.43V-73.679h-.945L-510.4-.149h-12.131l-30.028-73.58h-.945V0h-14.616ZM-391.354,0V-101.818h36.293q11.882,0,19.688,4.325A28.144,28.144,0,0,1-323.69-85.685a36.026,36.026,0,0,1,3.878,16.829,35.946,35.946,0,0,1-3.9,16.879,28.416,28.416,0,0,1-11.733,11.832q-7.83,4.35-19.663,4.35h-24.957V-48.821H-356.5q7.507,0,12.18-2.61a16.093,16.093,0,0,0,6.861-7.134,23.35,23.35,0,0,0,2.188-10.291A23.029,23.029,0,0,0-337.462-79.1a15.715,15.715,0,0,0-6.886-7.01q-4.7-2.535-12.354-2.536h-19.29V0Zm96.489,0V-101.818H-279.5v88.594h46.136V0Zm99.671,0H-211.5l36.641-101.818h17.749L-120.471,0h-16.307l-28.786-83.324h-.8Zm2.734-39.872h52.9v12.926h-52.9Zm76.5-48.722v-13.224h78.8v13.224H-68.926V0H-84.239V-88.594ZM-12.807,0V-101.818H50.332v13.224H2.555v31.023H45.808V-44.4H2.555V0ZM164.669-50.909q0,16.307-5.966,28.015a43.642,43.642,0,0,1-16.332,18,44.478,44.478,0,0,1-23.54,6.289A44.571,44.571,0,0,1,95.241-4.9,43.609,43.609,0,0,1,78.909-22.919q-5.966-11.733-5.966-27.99,0-16.307,5.966-28.015a43.642,43.642,0,0,1,16.332-18,44.571,44.571,0,0,1,23.59-6.289,44.478,44.478,0,0,1,23.54,6.289,43.642,43.642,0,0,1,16.332,18Q164.669-67.216,164.669-50.909Zm-15.213,0q0-12.429-4-20.955A29.8,29.8,0,0,0,134.516-84.79a28.658,28.658,0,0,0-15.685-4.4,28.623,28.623,0,0,0-15.71,4.4A29.866,29.866,0,0,0,92.208-71.864q-4,8.526-4,20.955t4,20.955a29.866,29.866,0,0,0,10.913,12.926,28.623,28.623,0,0,0,15.71,4.4,28.658,28.658,0,0,0,15.685-4.4,29.8,29.8,0,0,0,10.938-12.926Q149.456-38.48,149.456-50.909ZM190.76,0V-101.818h36.293q11.832,0,19.663,4.077a27.109,27.109,0,0,1,11.708,11.261A34.363,34.363,0,0,1,262.3-69.9a33.5,33.5,0,0,1-3.9,16.431,26.558,26.558,0,0,1-11.733,11.012Q238.835-38.53,227-38.53H199.51V-51.754h26.1q7.457,0,12.156-2.138a14.159,14.159,0,0,0,6.886-6.214A20.452,20.452,0,0,0,246.84-69.9a21.268,21.268,0,0,0-2.212-9.993,14.722,14.722,0,0,0-6.911-6.488q-4.7-2.262-12.3-2.262h-19.29V0Zm50.263-45.937L266.179,0h-17.5L224.02-45.937Zm47.021-55.881h18.643L339.1-22.67H340.3l32.415-79.148h18.643V0H376.737V-73.679h-.945L345.764-.149H333.634l-30.028-73.58h-.945V0H288.044ZM464.814,0V-101.818h36.293q11.882,0,19.687,4.325a28.144,28.144,0,0,1,11.683,11.808,36.026,36.026,0,0,1,3.878,16.829,35.946,35.946,0,0,1-3.9,16.879A28.416,28.416,0,0,1,520.72-40.146q-7.83,4.35-19.663,4.35H476.1V-48.821h23.565q7.507,0,12.18-2.61a16.093,16.093,0,0,0,6.861-7.134,23.35,23.35,0,0,0,2.188-10.291A23.029,23.029,0,0,0,518.706-79.1a15.715,15.715,0,0,0-6.886-7.01q-4.7-2.535-12.354-2.536h-19.29V0ZM561.3,0V-101.818h15.362v88.594H622.8V0Zm99.67,0H644.666l36.641-101.818h17.749L735.7,0H719.389L690.6-83.324h-.8Zm2.734-39.872h52.9v12.926h-52.9Zm76.5-48.722v-13.224h78.8v13.224H787.242V0H771.929V-88.594ZM843.361,0V-101.818H906.5v13.224H858.723v31.023h43.253V-44.4H858.723V0Zm177.476-50.909q0,16.307-5.966,28.015a43.642,43.642,0,0,1-16.332,18A44.478,44.478,0,0,1,975,1.392,44.571,44.571,0,0,1,951.408-4.9a43.61,43.61,0,0,1-16.332-18.022q-5.966-11.733-5.966-27.99,0-16.307,5.966-28.015a43.643,43.643,0,0,1,16.332-18A44.571,44.571,0,0,1,975-103.21a44.478,44.478,0,0,1,23.54,6.289,43.642,43.642,0,0,1,16.332,18Q1020.837-67.216,1020.837-50.909Zm-15.213,0q0-12.429-4-20.955A29.8,29.8,0,0,0,990.684-84.79,28.658,28.658,0,0,0,975-89.19a28.623,28.623,0,0,0-15.71,4.4,29.866,29.866,0,0,0-10.913,12.926q-4,8.526-4,20.955t4,20.955a29.866,29.866,0,0,0,10.913,12.926,28.623,28.623,0,0,0,15.71,4.4,28.658,28.658,0,0,0,15.685-4.4,29.8,29.8,0,0,0,10.937-12.926Q1005.624-38.48,1005.624-50.909ZM1046.927,0V-101.818h36.293q11.832,0,19.663,4.077a27.11,27.11,0,0,1,11.708,11.261,34.363,34.363,0,0,1,3.878,16.58,33.5,33.5,0,0,1-3.9,16.431,26.558,26.558,0,0,1-11.733,11.012Q1095-38.53,1083.17-38.53h-27.493V-51.754h26.1q7.457,0,12.156-2.138a14.159,14.159,0,0,0,6.886-6.214,20.452,20.452,0,0,0,2.188-9.794,21.267,21.267,0,0,0-2.212-9.993,14.721,14.721,0,0,0-6.911-6.488q-4.7-2.262-12.3-2.262h-19.29V0Zm50.263-45.937L1122.346,0h-17.5l-24.659-45.937Zm47.021-55.881h18.644L1195.27-22.67h1.193l32.415-79.148h18.643V0H1232.9V-73.679h-.945L1201.932-.149H1189.8l-30.028-73.58h-.945V0h-14.617Z" transform="translate(1247.521 103.21)" fill="#e1e0e0"/>
</svg>
