<svg xmlns="http://www.w3.org/2000/svg" width="33.18" height="40.8" viewBox="0 0 33.18 40.8">
  <path id="パス_366" data-name="パス 366" d="M17.1.6Q10.08.6,6-2.67a12.373,12.373,0,0,1-4.68-8.61l9.6-2.04A6.588,6.588,0,0,0,12.6-8.85a5.919,5.919,0,0,0,4.32,1.47,5.762,5.762,0,0,0,2.82-.66,4.48,4.48,0,0,0,1.83-1.83,5.293,5.293,0,0,0,.63-2.55q0-2.58-1.68-3.42a8.613,8.613,0,0,0-3.9-.84q-.42,0-.75.03t-.75.09l1.5-6.66a7.577,7.577,0,0,0,1.11.18q.63.06,1.29.06a6.786,6.786,0,0,0,3.06-.63A4.518,4.518,0,0,0,24-25.35a5.133,5.133,0,0,0,.66-2.67,3.844,3.844,0,0,0-.69-2.4,4.281,4.281,0,0,0-1.74-1.35,5.8,5.8,0,0,0-2.31-.45,5.64,5.64,0,0,0-3.87,1.2,7.2,7.2,0,0,0-2.01,3.48L5.4-30.78a13.32,13.32,0,0,1,5.55-7.02,17.837,17.837,0,0,1,9.57-2.4,20.071,20.071,0,0,1,7.47,1.26,10.691,10.691,0,0,1,4.83,3.57,9.18,9.18,0,0,1,1.68,5.55,11.009,11.009,0,0,1-1.14,5.1,9.15,9.15,0,0,1-3.15,3.54,9.582,9.582,0,0,1-4.71,1.5l-.06.24a8.5,8.5,0,0,1,3.33,1.17,6.772,6.772,0,0,1,2.43,2.55,8.05,8.05,0,0,1,.9,3.96,10.88,10.88,0,0,1-2.07,6.72,13.013,13.013,0,0,1-5.49,4.2A18.977,18.977,0,0,1,17.1.6Z" transform="translate(-1.32 40.2)" fill="#b5002b"/>
</svg>
