<svg xmlns="http://www.w3.org/2000/svg" xmlns:xlink="http://www.w3.org/1999/xlink" width="180" height="67" viewBox="0 0 180 67">
  <defs>
    <clipPath id="clip-path">
      <rect id="長方形_84" data-name="長方形 84" width="24" height="24" fill="none" stroke="#707070" stroke-width="1"/>
    </clipPath>
  </defs>
  <g id="グループ_299" data-name="グループ 299" transform="translate(-212 -12892)">
    <rect id="長方形_7" data-name="長方形 7" width="180" height="67" rx="10" transform="translate(212 12892)" fill="#fff"/>
    <path id="長方形_7_-_アウトライン" data-name="長方形 7 - アウトライン" d="M10,1a9.01,9.01,0,0,0-9,9V57a9.01,9.01,0,0,0,9,9H170a9.01,9.01,0,0,0,9-9V10a9.01,9.01,0,0,0-9-9H10m0-1H170a10,10,0,0,1,10,10V57a10,10,0,0,1-10,10H10A10,10,0,0,1,0,57V10A10,10,0,0,1,10,0Z" transform="translate(212 12892)" fill="#1a1a1a"/>
    <path id="パス_519" data-name="パス 519" d="M9.168-8.928a.7.7,0,0,0,.2.51.675.675,0,0,0,.5.21.694.694,0,0,0,.51-.21.694.694,0,0,0,.21-.51.694.694,0,0,0-.21-.51.694.694,0,0,0-.51-.21.675.675,0,0,0-.5.21A.7.7,0,0,0,9.168-8.928Zm-.636,0a1.28,1.28,0,0,1,.186-.678,1.413,1.413,0,0,1,.486-.486,1.281,1.281,0,0,1,.672-.18,1.312,1.312,0,0,1,.678.18,1.4,1.4,0,0,1,.492.486,1.28,1.28,0,0,1,.186.678,1.28,1.28,0,0,1-.186.678,1.4,1.4,0,0,1-.492.486,1.312,1.312,0,0,1-.678.18,1.281,1.281,0,0,1-.672-.18,1.413,1.413,0,0,1-.486-.486A1.28,1.28,0,0,1,8.532-8.928Zm-1.848-.42q-.012.084-.036.258t-.042.36q-.018.186-.018.33V-.432a1.023,1.023,0,0,1-.264.756A1.188,1.188,0,0,1,5.46.588q-.276,0-.594-.012t-.63-.03Q3.924.528,3.648.5L3.54-.684q.4.072.768.1t.6.03a.472.472,0,0,0,.342-.1A.51.51,0,0,0,5.364-1V-8.412a4.942,4.942,0,0,0-.03-.5,3.363,3.363,0,0,0-.066-.432Zm-5.6,1.98L1.6-7.32q.27.024.546.024H9.6q.228,0,.534-.018t.534-.054V-6.12q-.252-.012-.54-.018t-.516-.006H2.16q-.276,0-.558.006t-.522.03ZM3.96-4.356q-.192.384-.48.846t-.618.924q-.33.462-.642.864t-.564.678L.624-1.752a7.255,7.255,0,0,0,.624-.66q.324-.384.63-.81t.57-.852a8.829,8.829,0,0,0,.444-.8Zm5.076-.528q.24.288.522.69t.57.846q.288.444.54.864t.432.744L10-1.116q-.192-.372-.438-.81t-.516-.882q-.27-.444-.54-.84T8-4.32Zm4.476.408a19.979,19.979,0,0,0,2.91-1,18.05,18.05,0,0,0,2.322-1.206,11.941,11.941,0,0,0,1.242-.864q.606-.48,1.146-1a13.338,13.338,0,0,0,.948-1l1.008.96q-.528.54-1.14,1.068T20.658-6.5q-.678.486-1.386.918-.66.408-1.5.822T16-3.966q-.936.378-1.9.678ZM18.528-6.06l1.332-.348V-.972q0,.24.006.522t.024.522a2.083,2.083,0,0,0,.054.372H18.456q.012-.132.036-.372t.03-.522q.006-.282.006-.522ZM28-8.94q.324.216.744.534t.858.678q.438.36.834.7a6.937,6.937,0,0,1,.636.6l-.948.972q-.228-.24-.6-.582t-.8-.708q-.426-.366-.846-.7T27.12-8ZM26.76-.912a13.6,13.6,0,0,0,1.86-.414,12.073,12.073,0,0,0,1.566-.588,13.241,13.241,0,0,0,1.29-.678,10.647,10.647,0,0,0,1.77-1.356,12.644,12.644,0,0,0,1.422-1.584,9.109,9.109,0,0,0,.972-1.584l.732,1.308a10.89,10.89,0,0,1-1.062,1.56,13.079,13.079,0,0,1-1.422,1.494,11.842,11.842,0,0,1-1.728,1.29,14.8,14.8,0,0,1-1.314.72A12.809,12.809,0,0,1,29.31-.12a12.513,12.513,0,0,1-1.746.444ZM41.724-1.1V-8.04q0-.288-.024-.666a5.142,5.142,0,0,0-.084-.678h1.476q-.024.288-.054.66t-.03.684V-1.1q0,.192.012.468t.036.558q.024.282.048.51H41.628q.048-.312.072-.75T41.724-1.1Zm1.008-5.148q.588.168,1.32.414t1.476.528q.744.282,1.416.558t1.14.5l-.54,1.308q-.5-.276-1.134-.558t-1.29-.546q-.66-.264-1.278-.48T42.732-4.9Zm13.332-3.3q-.072.348-.2.846A10.014,10.014,0,0,1,55.5-7.584,9.3,9.3,0,0,1,55-6.552a9.7,9.7,0,0,1-.606.96,2.06,2.06,0,0,1,.474-.2,4.234,4.234,0,0,1,.552-.12,3.492,3.492,0,0,1,.51-.042,1.819,1.819,0,0,1,1.212.414,1.473,1.473,0,0,1,.492,1.194v.588q0,.348.012.732t.018.756q.006.372.006.648h-1.14q.012-.228.024-.534t.018-.642q.006-.336.006-.648V-4a.951.951,0,0,0-.324-.78,1.166,1.166,0,0,0-.732-.24,2.5,2.5,0,0,0-1.074.252,3.535,3.535,0,0,0-.918.612q-.252.252-.522.576t-.57.708l-1.032-.768a15.6,15.6,0,0,0,1.4-1.488,11.041,11.041,0,0,0,.954-1.35,7.866,7.866,0,0,0,.594-1.218,7.441,7.441,0,0,0,.312-1,5.473,5.473,0,0,0,.144-.954Zm-4.3,1.212q.48.072,1.056.1t1.008.03q.8,0,1.74-.036t1.89-.12q.954-.084,1.806-.24v1.116q-.636.084-1.356.156t-1.464.114q-.744.042-1.428.06t-1.248.018q-.252,0-.594-.006t-.708-.03q-.366-.024-.7-.036Zm9.324,3.12q-.168.06-.39.132t-.438.156l-.4.156q-.612.24-1.422.576t-1.662.78a8.38,8.38,0,0,0-1,.6,2.809,2.809,0,0,0-.654.624,1.184,1.184,0,0,0-.234.708.819.819,0,0,0,.144.5.9.9,0,0,0,.4.294,2.476,2.476,0,0,0,.624.144,7.264,7.264,0,0,0,.822.042q.72,0,1.632-.084t1.7-.228L60.192.4q-.432.048-1.008.1T58,.582q-.606.03-1.146.03a7.149,7.149,0,0,1-1.62-.168A2.34,2.34,0,0,1,54.1-.138a1.552,1.552,0,0,1-.42-1.158,2.107,2.107,0,0,1,.27-1.062,3.334,3.334,0,0,1,.708-.858,6.734,6.734,0,0,1,.978-.708q.54-.324,1.068-.588.564-.3,1.05-.522t.912-.4q.426-.18.8-.36.312-.132.588-.258t.552-.27Zm8.316.9H74v.852h-4.6Zm0,1.944H74v.852h-4.6ZM69.4-.432h5.172V.516H69.4ZM67.86-8.952h6.648V-6.84H73.5V-7.98H68.832v1.14H67.86Zm3.348,3.384h1.056v5.6H71.208ZM69.78-6.312h4.452v.96H69.78v6.36H68.7V-5.316l.972-1Zm.912-3.828,1.08.2a12.777,12.777,0,0,1-1.386,3.372,8.6,8.6,0,0,1-2.154,2.448,2.266,2.266,0,0,0-.216-.264q-.144-.156-.3-.318a3,3,0,0,0-.276-.258,7.115,7.115,0,0,0,2.028-2.178A10.543,10.543,0,0,0,70.692-10.14Zm1.26,2.5,1.056.24q-.216.468-.444.936t-.432.816l-.852-.24q.18-.36.378-.864A7.364,7.364,0,0,0,71.952-7.644ZM63.612-9.36h4.272v1.032H63.612Zm1.272,3.516H67.62V-.456H64.884V-1.44h1.764V-4.86H64.884Zm.06-2.988,1.068.156q-.18,1.284-.462,2.49a16.206,16.206,0,0,1-.7,2.256,8.558,8.558,0,0,1-.99,1.854q-.06-.132-.174-.342t-.234-.414a2.024,2.024,0,0,0-.228-.324,6.6,6.6,0,0,0,.81-1.572,14.193,14.193,0,0,0,.552-1.95Q64.812-7.728,64.944-8.832Zm-.516,2.988h.924V.492h-.924Zm18.5-3.4h1.032A14.6,14.6,0,0,1,83.7-7.794a6.472,6.472,0,0,1-.492,1.374A4.844,4.844,0,0,1,82.35-5.2a4.9,4.9,0,0,1-1.338.966,2.843,2.843,0,0,0-.288-.42,2.451,2.451,0,0,0-.372-.384,4.022,4.022,0,0,0,1.2-.81A3.975,3.975,0,0,0,82.3-6.882a5.5,5.5,0,0,0,.42-1.158A10.5,10.5,0,0,0,82.932-9.24ZM80.784-7.38l.54-.78a12.664,12.664,0,0,1,1.26.474q.648.282,1.236.582a8.479,8.479,0,0,1,.984.576l-.552.888a8.4,8.4,0,0,0-.978-.624q-.582-.324-1.23-.618A13.026,13.026,0,0,0,80.784-7.38Zm4.932-2.256h1.068v.27a1.078,1.078,0,0,1-.012.174q-.048,1.392-.12,2.262a12.047,12.047,0,0,1-.168,1.338,1.378,1.378,0,0,1-.264.648.869.869,0,0,1-.324.276,1.536,1.536,0,0,1-.432.12,5.537,5.537,0,0,1-.582.024q-.366,0-.774-.012a2.516,2.516,0,0,0-.09-.528,2.244,2.244,0,0,0-.2-.5q.36.036.666.042t.45.006a.389.389,0,0,0,.372-.132,1.049,1.049,0,0,0,.18-.5q.072-.4.132-1.194t.1-2.106Zm-3.6,6.42h1.056V-.432a.52.52,0,0,0,.054.294q.054.066.27.066h.912a.26.26,0,0,0,.216-.09.821.821,0,0,0,.108-.372q.036-.282.048-.858a1.117,1.117,0,0,0,.264.162,3.314,3.314,0,0,0,.348.138l.324.108a5.4,5.4,0,0,1-.174,1.17,1.009,1.009,0,0,1-.372.576,1.149,1.149,0,0,1-.642.162H83.34A1.848,1.848,0,0,1,82.578.8a.673.673,0,0,1-.366-.42,2.658,2.658,0,0,1-.1-.8Zm-1.176.444.912.228q-.06.54-.174,1.08a5.816,5.816,0,0,1-.306,1.008,3.151,3.151,0,0,1-.492.828l-.84-.528a2.881,2.881,0,0,0,.444-.732,5.463,5.463,0,0,0,.294-.906A7.444,7.444,0,0,0,80.94-2.772Zm1.416-1.416.66-.66a6.977,6.977,0,0,1,.8.462q.408.27.768.552a4.724,4.724,0,0,1,.588.534l-.708.744A4.976,4.976,0,0,0,83.9-3.1q-.348-.294-.75-.582A7.726,7.726,0,0,0,82.356-4.188ZM85.08-2.64,86-3.024a9.023,9.023,0,0,1,.6.972,9.359,9.359,0,0,1,.474,1.026,4.882,4.882,0,0,1,.27.93l-1,.408a5.68,5.68,0,0,0-.258-.924,10.961,10.961,0,0,0-.444-1.05A6.975,6.975,0,0,0,85.08-2.64Zm-4.176-7H86.2v.96H80.9ZM76.56-6.48h3.456V-5.6H76.56Zm.048-3.252H79.98v.888H76.608ZM76.56-4.86h3.456v.876H76.56Zm-.54-3.276h4.32v.912H76.02Zm1.032,4.92h2.976V.348H77.052V-.564h2V-2.3h-2Zm-.516,0h.948V.864h-.948Z" transform="translate(273 12932)" fill="#1a1a1a"/>
    <g id="グループ_167" data-name="グループ 167" transform="translate(243 12914)">
      <g id="グループ_166" data-name="グループ 166" clip-path="url(#clip-path)">
        <path id="パス_92" data-name="パス 92" d="M28.962,17.481A11.481,11.481,0,1,1,17.481,6,11.481,11.481,0,0,1,28.962,17.481" transform="translate(-5.481 -5.481)" fill="#ffda00"/>
        <path id="楕円形_23" data-name="楕円形 23" d="M11.481-.5a11.981,11.981,0,0,1,8.472,20.453A11.981,11.981,0,1,1,3.009,3.009,11.9,11.9,0,0,1,11.481-.5Zm0,22.962A10.981,10.981,0,0,0,19.246,3.716a10.981,10.981,0,1,0-15.53,15.53A10.909,10.909,0,0,0,11.481,22.462Z" transform="translate(0.519 0.519)" fill="#1a1a1a"/>
        <path id="パス_93" data-name="パス 93" d="M43.778,51.135l-.053,0a.5.5,0,0,1-.445-.55,8.766,8.766,0,0,1,11.853-7.253.5.5,0,1,1-.359.933,7.763,7.763,0,0,0-10.5,6.424A.5.5,0,0,1,43.778,51.135Z" transform="translate(-39.991 -39.509)" fill="#1a1a1a"/>
        <path id="パス_94" data-name="パス 94" d="M87.958,130.761a8.834,8.834,0,0,1-5.1-1.637.5.5,0,0,1,.582-.813,7.764,7.764,0,0,0,12.135-7.8.5.5,0,1,1,.982-.191,8.767,8.767,0,0,1-8.6,10.441Z" transform="translate(-75.958 -110.002)" fill="#1a1a1a"/>
        <path id="パス_95" data-name="パス 95" d="M114.7,84.972c-.243-.016-.473-.024-.683-.024-2.469,0-2.469.893-2.469,2.373,0,.383.005.843.01,1.331.006.593.014,1.265.014,1.948,0,1.265-.019,2.228-.06,3.036v.036a.729.729,0,0,0,.776.7.744.744,0,0,0,.788-.752v-.472c0-.406-.01-.832-.019-1.243s-.018-.8-.018-1.164c0-.022,0-.036,0-.046a.165.165,0,0,1,.05.01,3.966,3.966,0,0,0,.9.1,6.9,6.9,0,0,0,.88-.061,2.948,2.948,0,0,0,2.7-2.965,2.809,2.809,0,0,0-2.875-2.808m-1.691,3.26c0-.229-.006-.459-.006-.67,0-1.084.074-1.172.99-1.172.285,0,.574.012.581.012a1.3,1.3,0,0,1,1.474,1.317,1.6,1.6,0,0,1-1.4,1.607c-.246.024-.5.036-.73.036-.836,0-.905-.119-.905-.252v-.206c0-.212,0-.442-.006-.672" transform="translate(-101.865 -77.601)" fill="#1a1a1a"/>
      </g>
    </g>
  </g>
</svg>
