<svg xmlns="http://www.w3.org/2000/svg" xmlns:xlink="http://www.w3.org/1999/xlink" width="180" height="180" viewBox="0 0 180 180">
  <defs>
    <clipPath id="clip-path">
      <rect id="長方形_75" data-name="長方形 75" width="96.403" height="106.013" fill="none" stroke="#1a1a1a" stroke-width="2"/>
    </clipPath>
  </defs>
  <g id="グループ_111" data-name="グループ 111" transform="translate(-370 -7798)">
    <circle id="楕円形_10" data-name="楕円形 10" cx="90" cy="90" r="90" transform="translate(370 7798)" fill="#fff"/>
    <g id="グループ_110" data-name="グループ 110" transform="translate(411.799 7834.993)">
      <g id="グループ_109" data-name="グループ 109" clip-path="url(#clip-path)">
        <path id="パス_9" data-name="パス 9" d="M30.768,29.332A37.972,37.972,0,0,1,15.9,26.609c-4.248-1.871-6.588-4.458-6.588-7.284s2.34-5.416,6.588-7.288A37.96,37.96,0,0,1,30.768,9.313a37.96,37.96,0,0,1,14.868,2.724c4.248,1.872,6.588,4.46,6.588,7.288s-2.34,5.413-6.588,7.284A37.972,37.972,0,0,1,30.768,29.332Zm0-18.019a35.944,35.944,0,0,0-14.061,2.554c-3.428,1.51-5.394,3.5-5.394,5.458s1.966,3.944,5.394,5.454a35.956,35.956,0,0,0,14.061,2.554,35.956,35.956,0,0,0,14.061-2.554c3.428-1.51,5.394-3.5,5.394-5.454s-1.966-3.947-5.394-5.458A35.944,35.944,0,0,0,30.768,11.313Z" transform="translate(-7.365 -7.366)" fill="#1a1a1a"/>
        <path id="パス_10" data-name="パス 10" d="M30.768,98.4A37.972,37.972,0,0,1,15.9,95.674C11.652,93.8,9.312,91.216,9.312,88.39a1,1,0,1,1,2,0c0,1.956,1.966,3.944,5.394,5.454A35.956,35.956,0,0,0,30.768,96.4a35.956,35.956,0,0,0,14.061-2.554c3.428-1.51,5.394-3.5,5.394-5.454a1,1,0,0,1,2,0c0,2.826-2.34,5.413-6.588,7.284A37.972,37.972,0,0,1,30.768,98.4Z" transform="translate(-7.365 -63.132)" fill="#1a1a1a"/>
        <path id="パス_11" data-name="パス 11" d="M30.768,148.4A37.971,37.971,0,0,1,15.9,145.679c-4.248-1.871-6.588-4.458-6.588-7.284a1,1,0,1,1,2,0c0,1.956,1.966,3.944,5.394,5.454A35.955,35.955,0,0,0,30.768,146.4a35.955,35.955,0,0,0,14.061-2.554c3.428-1.51,5.394-3.5,5.394-5.454a1,1,0,0,1,2,0c0,2.826-2.34,5.413-6.588,7.284A37.972,37.972,0,0,1,30.768,148.4Z" transform="translate(-7.365 -98.848)" fill="#1a1a1a"/>
        <path id="パス_12" data-name="パス 12" d="M30.768,198.408A37.971,37.971,0,0,1,15.9,195.685c-4.248-1.871-6.588-4.458-6.588-7.284a1,1,0,0,1,2,0c0,1.956,1.966,3.944,5.394,5.454a35.955,35.955,0,0,0,14.061,2.554,35.955,35.955,0,0,0,14.061-2.554c3.428-1.51,5.394-3.5,5.394-5.454a1,1,0,0,1,2,0c0,2.826-2.34,5.413-6.588,7.284A37.972,37.972,0,0,1,30.768,198.408Z" transform="translate(-7.365 -134.565)" fill="#1a1a1a"/>
        <path id="パス_13" data-name="パス 13" d="M30.768,248.413A37.972,37.972,0,0,1,15.9,245.69c-4.248-1.871-6.588-4.458-6.588-7.284a1,1,0,0,1,2,0c0,1.956,1.966,3.944,5.394,5.454a35.955,35.955,0,0,0,14.061,2.554,35.956,35.956,0,0,0,14.061-2.554c3.428-1.51,5.394-3.5,5.394-5.454a1,1,0,0,1,2,0c0,2.826-2.34,5.413-6.588,7.284A37.972,37.972,0,0,1,30.768,248.413Z" transform="translate(-7.365 -170.281)" fill="#1a1a1a"/>
        <path id="パス_14" data-name="パス 14" d="M10.312,40.851a1,1,0,0,1,1,1c0,1.956,1.966,3.944,5.394,5.454a35.955,35.955,0,0,0,14.061,2.554A35.955,35.955,0,0,0,44.829,47.3c3.428-1.51,5.394-3.5,5.394-5.454a1,1,0,0,1,2,0v70.44c0,2.828-2.34,5.416-6.588,7.288A37.962,37.962,0,0,1,30.768,122.3,37.962,37.962,0,0,1,15.9,119.579c-4.248-1.871-6.588-4.46-6.588-7.288V41.851A1,1,0,0,1,10.312,40.851ZM30.768,51.858A37.971,37.971,0,0,1,15.9,49.135a14.925,14.925,0,0,1-4.588-2.969v66.124c0,1.958,1.966,3.947,5.394,5.458A35.945,35.945,0,0,0,30.768,120.3a35.945,35.945,0,0,0,14.061-2.554c3.428-1.51,5.394-3.5,5.394-5.458V46.166a14.924,14.924,0,0,1-4.588,2.969A37.972,37.972,0,0,1,30.768,51.858Z" transform="translate(-7.365 -29.892)" fill="#1a1a1a"/>
        <path id="パス_15" data-name="パス 15" d="M204.341,166.667a37.972,37.972,0,0,1-14.867-2.723c-4.248-1.871-6.588-4.458-6.588-7.284s2.34-5.416,6.588-7.288a41.934,41.934,0,0,1,29.735,0c4.248,1.872,6.588,4.46,6.588,7.288s-2.34,5.413-6.588,7.284A37.972,37.972,0,0,1,204.341,166.667Zm0-18.019a35.944,35.944,0,0,0-14.061,2.554c-3.428,1.51-5.394,3.5-5.394,5.458s1.966,3.944,5.394,5.454a39.99,39.99,0,0,0,28.123,0c3.428-1.51,5.394-3.5,5.394-5.454s-1.966-3.947-5.394-5.458A35.944,35.944,0,0,0,204.341,148.648Z" transform="translate(-131.34 -105.457)" fill="#1a1a1a"/>
        <path id="パス_16" data-name="パス 16" d="M204.341,189.193a37.972,37.972,0,0,1-14.867-2.723c-4.248-1.871-6.588-4.458-6.588-7.284a1,1,0,0,1,2,0c0,1.956,1.966,3.944,5.394,5.454a39.989,39.989,0,0,0,28.123,0c3.428-1.51,5.394-3.5,5.394-5.454a1,1,0,0,1,2,0c0,2.826-2.34,5.413-6.588,7.284A37.972,37.972,0,0,1,204.341,189.193Z" transform="translate(-131.34 -127.983)" fill="#1a1a1a"/>
        <path id="パス_17" data-name="パス 17" d="M204.341,239.2a37.972,37.972,0,0,1-14.867-2.723c-4.248-1.871-6.588-4.458-6.588-7.284a1,1,0,0,1,2,0c0,1.956,1.966,3.944,5.394,5.454a39.989,39.989,0,0,0,28.123,0c3.428-1.51,5.394-3.5,5.394-5.454a1,1,0,0,1,2,0c0,2.826-2.34,5.413-6.588,7.284A37.971,37.971,0,0,1,204.341,239.2Z" transform="translate(-131.34 -163.699)" fill="#1a1a1a"/>
        <path id="パス_18" data-name="パス 18" d="M204.341,289.2a37.972,37.972,0,0,1-14.867-2.723c-4.248-1.871-6.588-4.458-6.588-7.284a1,1,0,0,1,2,0c0,1.956,1.966,3.944,5.394,5.454a39.99,39.99,0,0,0,28.123,0c3.428-1.51,5.394-3.5,5.394-5.454a1,1,0,0,1,2,0c0,2.826-2.34,5.413-6.588,7.284A37.971,37.971,0,0,1,204.341,289.2Z" transform="translate(-131.34 -199.415)" fill="#1a1a1a"/>
        <path id="パス_19" data-name="パス 19" d="M204.341,232.05a37.962,37.962,0,0,1-14.868-2.724c-4.248-1.871-6.588-4.46-6.588-7.288V179.186a1,1,0,0,1,2,0v42.852c0,1.958,1.966,3.947,5.394,5.458a39.982,39.982,0,0,0,28.123,0c3.428-1.51,5.394-3.5,5.394-5.458V179.186a1,1,0,0,1,2,0v42.852c0,2.828-2.34,5.416-6.588,7.288A37.962,37.962,0,0,1,204.341,232.05Z" transform="translate(-131.34 -127.983)" fill="#1a1a1a"/>
      </g>
    </g>
    <path id="パス_280" data-name="パス 280" d="M-3.52-18.182H-.768V-6.223a6.354,6.354,0,0,1-.9,3.378A6.226,6.226,0,0,1-4.186-.537,8.193,8.193,0,0,1-7.994.3a8.173,8.173,0,0,1-3.8-.839,6.226,6.226,0,0,1-2.521-2.308,6.354,6.354,0,0,1-.9-3.378V-18.182h2.743V-6.445a4.353,4.353,0,0,0,.546,2.193,3.871,3.871,0,0,0,1.549,1.5A4.906,4.906,0,0,0-7.994-2.2,4.952,4.952,0,0,0-5.6-2.748a3.8,3.8,0,0,0,1.545-1.5A4.41,4.41,0,0,0-3.52-6.445ZM3.227,0V-18.182H9.708a7.188,7.188,0,0,1,3.516.772A5.026,5.026,0,0,1,15.31-15.3,6.433,6.433,0,0,1,16-12.3a6.419,6.419,0,0,1-.7,3.014,5.074,5.074,0,0,1-2.1,2.113A7.16,7.16,0,0,1,9.7-6.392H5.242V-8.718H9.45a4.44,4.44,0,0,0,2.175-.466,2.874,2.874,0,0,0,1.225-1.274,4.17,4.17,0,0,0,.391-1.838,4.112,4.112,0,0,0-.391-1.829,2.806,2.806,0,0,0-1.23-1.252,4.642,4.642,0,0,0-2.206-.453H5.97V0Z" transform="translate(486 7859)" fill="#b5002b"/>
  </g>
</svg>
