<svg xmlns="http://www.w3.org/2000/svg" width="180" height="180" viewBox="0 0 180 180">
  <g id="グループ_116" data-name="グループ 116" transform="translate(-870 -7798)">
    <circle id="楕円形_11" data-name="楕円形 11" cx="90" cy="90" r="90" transform="translate(870 7798)" fill="#fff"/>
    <g id="グループ_115" data-name="グループ 115">
      <g id="グループ_112" data-name="グループ 112" transform="translate(895 7863)">
        <path id="楕円形_18" data-name="楕円形 18" d="M25,2a23.007,23.007,0,0,0-8.952,44.193,23.006,23.006,0,0,0,17.9-42.387A22.854,22.854,0,0,0,25,2m0-2A25,25,0,1,1,0,25,25,25,0,0,1,25,0Z" fill="#1a1a1a"/>
        <path id="パス_274" data-name="パス 274" d="M-2.534-13.091H-.553v8.61A4.575,4.575,0,0,1-1.2-2.049,4.483,4.483,0,0,1-3.014-.387a5.9,5.9,0,0,1-2.742.6,5.885,5.885,0,0,1-2.736-.6,4.483,4.483,0,0,1-1.815-1.662,4.575,4.575,0,0,1-.646-2.432v-8.61h1.975v8.45a3.134,3.134,0,0,0,.393,1.579A2.787,2.787,0,0,0-7.469-1.978a3.532,3.532,0,0,0,1.713.393,3.565,3.565,0,0,0,1.723-.393A2.739,2.739,0,0,0-2.921-3.062a3.175,3.175,0,0,0,.387-1.579ZM2.324,0V-13.091H6.99a5.176,5.176,0,0,1,2.531.556,3.619,3.619,0,0,1,1.5,1.518,4.632,4.632,0,0,1,.5,2.164,4.622,4.622,0,0,1-.5,2.17A3.653,3.653,0,0,1,9.511-5.162,5.155,5.155,0,0,1,6.983-4.6H3.775V-6.277H6.8A3.2,3.2,0,0,0,8.37-6.613a2.069,2.069,0,0,0,.882-.917,3,3,0,0,0,.281-1.323,2.961,2.961,0,0,0-.281-1.317,2.021,2.021,0,0,0-.885-.9A3.342,3.342,0,0,0,6.779-11.4H4.3V0Z" transform="translate(25 32)" fill="#1a1a1a"/>
      </g>
      <g id="グループ_113" data-name="グループ 113" transform="translate(974.587 7863)">
        <path id="楕円形_19" data-name="楕円形 19" d="M25,2a23.007,23.007,0,0,0-8.952,44.193,23.006,23.006,0,0,0,17.9-42.387A22.854,22.854,0,0,0,25,2m0-2A25,25,0,1,1,0,25,25,25,0,0,1,25,0Z" transform="translate(0.413)" fill="#b5002b"/>
        <path id="パス_275" data-name="パス 275" d="M-5.273,0V-16H.43a6.326,6.326,0,0,1,3.094.68,4.423,4.423,0,0,1,1.836,1.855,5.661,5.661,0,0,1,.609,2.645,5.649,5.649,0,0,1-.613,2.652A4.465,4.465,0,0,1,3.512-6.309a6.3,6.3,0,0,1-3.09.684H-3.5V-7.672H.2a3.907,3.907,0,0,0,1.914-.41A2.529,2.529,0,0,0,3.2-9.2a3.669,3.669,0,0,0,.344-1.617A3.619,3.619,0,0,0,3.2-12.43a2.469,2.469,0,0,0-1.082-1.1,4.085,4.085,0,0,0-1.941-.4H-2.859V0Z" transform="translate(25.413 33)" fill="#b5002b"/>
      </g>
      <g id="グループ_114" data-name="グループ 114">
        <path id="パス_276" data-name="パス 276" d="M.85.237-.3-.9l4-4H-6.341V-6.558H3.695l-4-3.989L.85-11.691,6.814-5.727Z" transform="translate(960 7886)" fill="#1a1a1a"/>
        <path id="パス_277" data-name="パス 277" d="M-.85.237-6.814-5.727-.85-11.691.3-10.553l-4,4H6.341V-4.9H-3.695L.3-.908Z" transform="translate(960 7903)" fill="#1a1a1a"/>
      </g>
    </g>
  </g>
</svg>
