<svg xmlns="http://www.w3.org/2000/svg" width="59.892" height="10.49" viewBox="0 0 59.892 10.49">
  <path id="パス_282" data-name="パス 282" d="M-30.274-10.182h1.864l3.241,7.915h.119l3.241-7.915h1.864V0H-21.4V-7.368H-21.5l-3,7.353h-1.213l-3-7.358h-.094V0h-1.462ZM-17.006,0V-10.182h6.384v1.322H-15.47v3.1h4.514V-4.44H-15.47v3.117h4.907V0Zm9.142,0V-10.182h3.629a4.233,4.233,0,0,1,1.966.408A2.711,2.711,0,0,1-1.1-8.648,3.436,3.436,0,0,1-.71-6.99,3.35,3.35,0,0,1-1.1-5.347a2.656,2.656,0,0,1-1.173,1.1,4.368,4.368,0,0,1-1.966.393H-6.989V-5.175h2.61a2.954,2.954,0,0,0,1.216-.214,1.416,1.416,0,0,0,.689-.621,2.045,2.045,0,0,0,.219-.979,2.127,2.127,0,0,0-.221-1,1.472,1.472,0,0,0-.691-.649A2.853,2.853,0,0,0-4.4-8.864H-6.328V0Zm5.026-4.594L-.322,0h-1.75L-4.538-4.594ZM3.4-10.182V0H1.864V-10.182ZM5.836-8.859v-1.322h7.88v1.322H10.539V0H9.008V-8.859ZM19.556.169a3.321,3.321,0,0,1-2.013-.621,3.829,3.829,0,0,1-1.278-1.795,8.093,8.093,0,0,1-.442-2.839,7.994,7.994,0,0,1,.445-2.829A3.838,3.838,0,0,1,17.55-9.7a3.291,3.291,0,0,1,2.006-.616,3.271,3.271,0,0,1,2,.619,3.863,3.863,0,0,1,1.28,1.79,7.973,7.973,0,0,1,.445,2.826,8.089,8.089,0,0,1-.442,2.841A3.846,3.846,0,0,1,21.565-.45,3.279,3.279,0,0,1,19.556.169Zm0-1.327a1.8,1.8,0,0,0,1.618-1.009,5.908,5.908,0,0,0,.584-2.918,7.478,7.478,0,0,0-.266-2.145,2.916,2.916,0,0,0-.761-1.332,1.678,1.678,0,0,0-1.176-.455A1.8,1.8,0,0,0,17.94-8a5.936,5.936,0,0,0-.592,2.918,7.5,7.5,0,0,0,.266,2.15,2.892,2.892,0,0,0,.758,1.327A1.692,1.692,0,0,0,19.556-1.158Zm10.062-9.023V0H28.077V-8.641h-.06L25.581-7.05V-8.521l2.54-1.661Z" transform="translate(30.274 10.321)" fill="#1a1a1a"/>
</svg>
