<svg xmlns="http://www.w3.org/2000/svg" width="34.08" height="40.2" viewBox="0 0 34.08 40.2">
  <path id="パス_370" data-name="パス 370" d="M.18,0,1.8-6.84Q5.82-9.3,9.75-11.88a82.609,82.609,0,0,0,7.14-5.22,28.752,28.752,0,0,0,5.13-5.31,9.073,9.073,0,0,0,1.92-5.31,4.241,4.241,0,0,0-1.23-3.18,4.564,4.564,0,0,0-3.33-1.2,5.631,5.631,0,0,0-4.56,2.01,11.51,11.51,0,0,0-2.28,5.55l-8.58-3.3A16.847,16.847,0,0,1,6.9-34.41a13.669,13.669,0,0,1,5.46-4.29,19.46,19.46,0,0,1,7.98-1.5,16.9,16.9,0,0,1,7.77,1.59,11.236,11.236,0,0,1,4.62,4.11,10.227,10.227,0,0,1,1.53,5.4,13.669,13.669,0,0,1-1.23,5.79,18.473,18.473,0,0,1-3.3,4.89,32.745,32.745,0,0,1-4.71,4.14,58.351,58.351,0,0,1-5.49,3.54q-2.85,1.62-5.49,3.06v.06q1.08-.12,3.06-.18t3.78-.06h10.8L29.82,0Z" transform="translate(-0.18 40.2)" fill="#b5002b"/>
</svg>
