<svg xmlns="http://www.w3.org/2000/svg" xmlns:xlink="http://www.w3.org/1999/xlink" width="140" height="140" viewBox="0 0 140 140">
  <defs>
    <clipPath id="clip-path">
      <rect id="長方形_65" data-name="長方形 65" width="104.078" height="68.092" fill="none" stroke="#1a1a1a" stroke-width="2"/>
    </clipPath>
  </defs>
  <g id="グループ_628" data-name="グループ 628" transform="translate(0 -1897)">
    <circle id="楕円形_6" data-name="楕円形 6" cx="70" cy="70" r="70" transform="translate(0 1897)" fill="#f1f1f1"/>
    <g id="グループ_38" data-name="グループ 38" transform="translate(17.881 1932.874)">
      <g id="グループ_37" data-name="グループ 37" clip-path="url(#clip-path)">
        <path id="パス_1" data-name="パス 1" d="M35.3,57.788a1,1,0,0,1-.974-1.229c1.074-4.581,2.347-7.8,3.783-9.554,1.51-1.843,4.291-2.782,7.327-3.681-.949-3.816-2.048-6.556-3.195-7.956-1.27-1.55-4.207-2.405-7.317-3.311a51.1,51.1,0,0,1-4.864-1.593,1,1,0,0,1-.624-.929l.006-3.124a3.634,3.634,0,0,1,1.084-2.576,8.8,8.8,0,0,0,.693-.76,9.258,9.258,0,0,0,1.119-1.759,1,1,0,0,1,.694-.546,1.705,1.705,0,0,0,1.055-1.008,1.349,1.349,0,0,0,.118-.664l-.052-.053a2.8,2.8,0,0,1-.367-.431,1,1,0,0,1-.15-.768,19.027,19.027,0,0,1,.529-1.828c.677-2.091,1.445-4.462.132-6.284a1.921,1.921,0,0,0-1.353-.711,1,1,0,0,1-.9-.9A2.692,2.692,0,0,0,31.137,6.4a2.86,2.86,0,0,0-1.881-.612,10.744,10.744,0,0,0-2.7.145c-.819.126-1.634.286-2.423.475-.131.031-.262.06-.394.09a6.041,6.041,0,0,0-1.571.493A6.711,6.711,0,0,0,19.62,9.419c-1.085,1.866-.55,4.322-.032,6.7.126.577.256,1.173.357,1.743a1,1,0,0,1-.766,1.151A1.394,1.394,0,0,0,19.4,20a1.651,1.651,0,0,0,.933.775,1,1,0,0,1,.693.543,9.217,9.217,0,0,0,1.123,1.761,9.712,9.712,0,0,0,.695.772,3.6,3.6,0,0,1,1.079,2.573l.022,3.111a1,1,0,0,1-.624.934,51.084,51.084,0,0,1-4.865,1.593c-3.11.905-6.048,1.761-7.316,3.31-1.068,1.3-2.64,4.442-4.066,11.978-.87,4.6-1.3,8.909-1.325,9.486a1,1,0,1,1-2-.091,98.377,98.377,0,0,1,1.357-9.767C6.316,40.593,7.824,36.261,9.592,34.1c1.661-2.03,4.888-2.969,8.3-3.964,1.36-.4,2.759-.8,4.043-1.282l-.017-2.425s0,0,0-.007a1.614,1.614,0,0,0-.487-1.156l-.005-.005a11.694,11.694,0,0,1-.839-.933,11.368,11.368,0,0,1-1.168-1.757,3.765,3.765,0,0,1-1.738-1.548,3.341,3.341,0,0,1-.416-2.617,1.9,1.9,0,0,1,.568-.916c-.063-.308-.132-.625-.2-.951-.571-2.62-1.218-5.589.257-8.128a8.681,8.681,0,0,1,3.282-3.163A7.569,7.569,0,0,1,23.3,4.543c.124-.028.247-.055.366-.083.838-.2,1.708-.372,2.581-.506A12.764,12.764,0,0,1,29.459,3.8,4.743,4.743,0,0,1,32.464,4.9,4.81,4.81,0,0,1,33.9,7.183a3.806,3.806,0,0,1,2.022,1.385c1.9,2.644.889,5.78.148,8.069-.131.405-.258.8-.356,1.147a1.866,1.866,0,0,1,.476,1.052v.007a3.335,3.335,0,0,1-.261,1.7,3.826,3.826,0,0,1-1.986,2.031,11.526,11.526,0,0,1-1.161,1.749l0,0a10.663,10.663,0,0,1-.852.935,1.621,1.621,0,0,0-.482,1.148l0,2.441c1.285.479,2.685.887,4.046,1.283,3.416.995,6.642,1.934,8.305,3.963,1.45,1.771,2.734,5.031,3.816,9.689a1,1,0,0,1-.694,1.186c-2.943.86-5.987,1.749-7.255,3.3-1.223,1.5-2.394,4.522-3.384,8.744A1,1,0,0,1,35.3,57.788Z" transform="translate(-3.175 -3.175)" fill="#1a1a1a"/>
        <path id="パス_2" data-name="パス 2" d="M194.184,58.173a1,1,0,0,1-.973-.772c-.991-4.223-2.161-7.247-3.385-8.745-1.264-1.546-4.307-2.435-7.251-3.295a1,1,0,0,1-.694-1.186c1.082-4.658,2.366-7.918,3.816-9.689,1.661-2.03,4.888-2.969,8.3-3.964,1.363-.4,2.766-.805,4.053-1.285l.01-1.64h-3.789a1,1,0,0,1-.825-.434,8.505,8.505,0,0,1-1.03-3.175,39.029,39.029,0,0,1,.009-10.818q0-.031.005-.061l.007-.061c.032-.272.064-.552.1-.838,0-.024.006-.048.01-.071a8.345,8.345,0,0,1,.974-2.679,6.72,6.72,0,0,1,1.778-2.177l.018-.012a3.349,3.349,0,0,1,.349-.213,5.169,5.169,0,0,1,1.733-.462c.21-.03.411-.058.59-.1l.159-.111a10.261,10.261,0,0,1,4.139-2.016,9.611,9.611,0,0,1,5.4,1.132,9.562,9.562,0,0,1,5.485,6.641l0,.011c.01.063.018.123.023.18a41.081,41.081,0,0,1,.142,11.483,8.767,8.767,0,0,1-1.058,3.342,1,1,0,0,1-.825.435h-3.923l0,1.641c1.285.479,2.687.887,4.048,1.284,3.416.995,6.642,1.934,8.3,3.963,1.768,2.16,3.276,6.491,4.482,12.874a98.469,98.469,0,0,1,1.356,9.767,1,1,0,0,1-2,.091c-.018-.389-.4-4.587-1.323-9.487-1.424-7.536-3-10.674-4.064-11.978-1.27-1.55-4.207-2.405-7.317-3.31a51.1,51.1,0,0,1-4.864-1.593,1,1,0,0,1-.624-.925l0-2.485a3.467,3.467,0,0,1,.2-1.182,1,1,0,0,1,.941-.66h4.149a11.3,11.3,0,0,0,.582-2.373,39.573,39.573,0,0,0-.2-10.656q0-.022,0-.045s0-.015-.005-.041c-.516-2.947-3.255-4.611-4.41-5.19a7.663,7.663,0,0,0-4.276-.933,9.584,9.584,0,0,0-3.219,1.666,2.07,2.07,0,0,1-.644.372l-.02.005a8.18,8.18,0,0,1-.956.174,3.633,3.633,0,0,0-1.085.254,1.485,1.485,0,0,0-.137.085,5.02,5.02,0,0,0-1.2,1.539,6.35,6.35,0,0,0-.735,2.01c-.036.272-.068.548-.1.814l0,.017q0,.029,0,.058a37.579,37.579,0,0,0-.075,10.028,10.99,10.99,0,0,0,.558,2.215h4.02a1,1,0,0,1,.942.664,3.472,3.472,0,0,1,.2,1.171s0,0,0,.006l-.016,2.491a1,1,0,0,1-.624.92,51.064,51.064,0,0,1-4.865,1.593c-3.11.905-6.048,1.761-7.316,3.31-1.146,1.4-2.245,4.141-3.195,7.956,3.037.9,5.818,1.838,7.324,3.68,1.436,1.758,2.709,4.973,3.784,9.554a1,1,0,0,1-.974,1.229Z" transform="translate(-122.235 -3.56)" fill="#1a1a1a"/>
        <path id="パス_3" data-name="パス 3" d="M90.791,95.757h-.046a1,1,0,0,1-.954-1.044,98.257,98.257,0,0,1,1.356-9.768c1.207-6.383,2.715-10.714,4.483-12.874,1.662-2.03,4.888-2.969,8.3-3.963,1.362-.4,2.764-.8,4.049-1.284V64.411a1.622,1.622,0,0,0-.481-1.148,10.87,10.87,0,0,1-.845-.93,11.369,11.369,0,0,1-1.162-1.748,3.754,3.754,0,0,1-1.733-1.543,3.329,3.329,0,0,1-.414-2.61,2,2,0,0,1,.256-.558,24.109,24.109,0,0,1-.936-2.677,8.813,8.813,0,0,1,.763-6.806,6.683,6.683,0,0,1,1.78-2.178,3.021,3.021,0,0,1,.362-.225,5.176,5.176,0,0,1,1.75-.47c.21-.03.412-.058.59-.1l.171-.12a10.2,10.2,0,0,1,4.137-2.01,9.641,9.641,0,0,1,5.413,1.131A8.852,8.852,0,0,1,120.858,45c1.389,1.885,1.876,4.562,1.488,8.185a8.857,8.857,0,0,1-.64,2.49,1.947,1.947,0,0,1,.407.753,3.328,3.328,0,0,1-.413,2.611,3.753,3.753,0,0,1-1.733,1.544,11.449,11.449,0,0,1-2,2.682,1.614,1.614,0,0,0-.485,1.151v2.4c1.285.479,2.687.887,4.049,1.283,3.415.994,6.641,1.932,8.3,3.963,1.768,2.16,3.276,6.492,4.483,12.874a98.417,98.417,0,0,1,1.356,9.768,1,1,0,0,1-2,.091c-.026-.578-.455-4.892-1.324-9.487-1.425-7.537-3-10.674-4.065-11.979-1.269-1.55-4.2-2.4-7.314-3.309a50.986,50.986,0,0,1-4.867-1.593,1,1,0,0,1-.624-.927V64.419a3.6,3.6,0,0,1,1.077-2.571,9.429,9.429,0,0,0,.693-.769,9.2,9.2,0,0,0,1.116-1.752,1,1,0,0,1,.693-.543,1.64,1.64,0,0,0,.927-.77,1.385,1.385,0,0,0,.221-.974,1,1,0,0,1-.67-1.435,7.17,7.17,0,0,0,.822-2.63c.332-3.1-.031-5.322-1.109-6.785a6.892,6.892,0,0,0-2.51-1.976,7.694,7.694,0,0,0-4.29-.932,9.517,9.517,0,0,0-3.217,1.66,2.034,2.034,0,0,1-.68.386,8.231,8.231,0,0,1-.952.173,3.63,3.63,0,0,0-1.093.257,1.007,1.007,0,0,0-.121.075l-.01.007a4.926,4.926,0,0,0-1.209,1.544,6.83,6.83,0,0,0-.573,5.276,21.681,21.681,0,0,0,1.12,3.047,1,1,0,0,1-.453,1.309,1.367,1.367,0,0,0,.216,1,1.64,1.64,0,0,0,.927.77,1,1,0,0,1,.693.543,9.217,9.217,0,0,0,1.118,1.754,8.867,8.867,0,0,0,.69.758,3.635,3.635,0,0,1,1.078,2.573v3.1a1,1,0,0,1-.624.927,50.982,50.982,0,0,1-4.867,1.593c-3.109.9-6.045,1.759-7.314,3.309-1.068,1.305-2.64,4.443-4.065,11.979-.87,4.6-1.3,8.91-1.323,9.486A1,1,0,0,1,90.791,95.757Z" transform="translate(-60.691 -28.24)" fill="#1a1a1a"/>
      </g>
    </g>
  </g>
</svg>
