<svg xmlns="http://www.w3.org/2000/svg" xmlns:xlink="http://www.w3.org/1999/xlink" width="140" height="140" viewBox="0 0 140 140">
  <defs>
    <clipPath id="clip-path">
      <rect id="長方形_67" data-name="長方形 67" width="82" height="82" transform="translate(0.254 0.254)" fill="none" stroke="#1a1a1a" stroke-width="2"/>
    </clipPath>
  </defs>
  <g id="グループ_630" data-name="グループ 630" transform="translate(-1370 -1897)">
    <circle id="楕円形_8" data-name="楕円形 8" cx="70" cy="70" r="70" transform="translate(1370 1897)" fill="#f1f1f1"/>
    <g id="グループ_44" data-name="グループ 44" transform="translate(1398.746 1925.746)">
      <g id="グループ_43" data-name="グループ 43" clip-path="url(#clip-path)">
        <path id="楕円形_17" data-name="楕円形 17" d="M39.6-1A40.615,40.615,0,0,1,55.409,77.017,40.614,40.614,0,0,1,23.8,2.191,40.351,40.351,0,0,1,39.6-1Zm0,79.208A38.615,38.615,0,0,0,54.63,4.033,38.614,38.614,0,0,0,24.578,75.175,38.361,38.361,0,0,0,39.6,78.208Z" transform="translate(-14.832 41.176) rotate(-45)" fill="#1a1a1a"/>
        <path id="パス_6" data-name="パス 6" d="M284.822,156.392h0l-18.858-.014a1,1,0,0,1-1-1l-.011-20.177a1,1,0,0,1,1-1h0a1,1,0,0,1,1,1l.01,19.179,17.859.014a1,1,0,0,1,0,2Z" transform="translate(-224.802 -114.281)" fill="#1a1a1a"/>
        <path id="線_13" data-name="線 13" d="M0,3.612a1,1,0,0,1-1-1V0A1,1,0,0,1,0-1,1,1,0,0,1,1,0V2.612A1,1,0,0,1,0,3.612Z" transform="translate(41.177 7.541)" fill="#1a1a1a"/>
        <path id="線_14" data-name="線 14" d="M1.307,3.262a1,1,0,0,1-.867-.5L-.866.5A1,1,0,0,1-.5-.866,1,1,0,0,1,.866-.5L2.172,1.762a1,1,0,0,1-.865,1.5Z" transform="translate(24.397 12.03)" fill="#1a1a1a"/>
        <path id="線_15" data-name="線 15" d="M2.261,2.306a1,1,0,0,1-.5-.134L-.5.866A1,1,0,0,1-.866-.5,1,1,0,0,1,.5-.866L2.762.44a1,1,0,0,1-.5,1.866Z" transform="translate(12.109 24.307)" fill="#1a1a1a"/>
        <path id="線_16" data-name="線 16" d="M2.612,1H0A1,1,0,0,1-1,0,1,1,0,0,1,0-1H2.612a1,1,0,0,1,1,1A1,1,0,0,1,2.612,1Z" transform="translate(7.606 41.083)" fill="#1a1a1a"/>
        <path id="線_17" data-name="線 17" d="M0,2.306a1,1,0,0,1-.867-.5A1,1,0,0,1-.5.44L1.762-.866A1,1,0,0,1,3.128-.5,1,1,0,0,1,2.762.866L.5,2.172A1,1,0,0,1,0,2.306Z" transform="translate(12.095 56.556)" fill="#1a1a1a"/>
        <path id="線_18" data-name="線 18" d="M0,3.262a1,1,0,0,1-.5-.134A1,1,0,0,1-.866,1.762L.44-.5A1,1,0,0,1,1.806-.866,1,1,0,0,1,2.172.5L.866,2.762A1,1,0,0,1,0,3.262Z" transform="translate(24.372 67.888)" fill="#1a1a1a"/>
        <path id="線_19" data-name="線 19" d="M0,3.612a1,1,0,0,1-1-1V0A1,1,0,0,1,0-1,1,1,0,0,1,1,0V2.612A1,1,0,0,1,0,3.612Z" transform="translate(41.148 72.041)" fill="#1a1a1a"/>
        <path id="線_20" data-name="線 20" d="M1.307,3.262a1,1,0,0,1-.867-.5L-.866.5A1,1,0,0,1-.5-.866,1,1,0,0,1,.866-.5L2.172,1.762a1,1,0,0,1-.865,1.5Z" transform="translate(56.621 67.902)" fill="#1a1a1a"/>
        <path id="線_21" data-name="線 21" d="M2.261,2.306a1,1,0,0,1-.5-.134L-.5.866A1,1,0,0,1-.866-.5,1,1,0,0,1,.5-.866L2.762.44a1,1,0,0,1-.5,1.866Z" transform="translate(67.953 56.581)" fill="#1a1a1a"/>
        <path id="線_22" data-name="線 22" d="M2.612,1H0A1,1,0,0,1-1,0,1,1,0,0,1,0-1H2.612a1,1,0,0,1,1,1A1,1,0,0,1,2.612,1Z" transform="translate(72.106 41.112)" fill="#1a1a1a"/>
        <path id="線_23" data-name="線 23" d="M0,2.306a1,1,0,0,1-.867-.5A1,1,0,0,1-.5.44L1.762-.866A1,1,0,0,1,3.128-.5,1,1,0,0,1,2.762.866L.5,2.172A1,1,0,0,1,0,2.306Z" transform="translate(67.967 24.332)" fill="#1a1a1a"/>
        <path id="線_24" data-name="線 24" d="M0,3.262a1,1,0,0,1-.5-.134A1,1,0,0,1-.866,1.762L.44-.5A1,1,0,0,1,1.806-.866,1,1,0,0,1,2.172.5L.866,2.762A1,1,0,0,1,0,3.262Z" transform="translate(56.646 12.044)" fill="#1a1a1a"/>
      </g>
    </g>
  </g>
</svg>
