<svg xmlns="http://www.w3.org/2000/svg" width="58.67" height="10.49" viewBox="0 0 58.67 10.49">
  <path id="パス_335" data-name="パス 335" d="M-29.335,0V-10.182h3.629a4.233,4.233,0,0,1,1.966.408,2.711,2.711,0,0,1,1.171,1.126,3.436,3.436,0,0,1,.388,1.658,3.35,3.35,0,0,1-.39,1.643,2.656,2.656,0,0,1-1.173,1.1,4.368,4.368,0,0,1-1.966.393H-28.46V-5.175h2.61a2.954,2.954,0,0,0,1.216-.214,1.416,1.416,0,0,0,.689-.621,2.045,2.045,0,0,0,.219-.979,2.127,2.127,0,0,0-.221-1,1.472,1.472,0,0,0-.691-.649,2.853,2.853,0,0,0-1.23-.226H-27.8V0Zm5.026-4.594L-21.793,0h-1.75l-2.466-4.594ZM-19.606,0V-10.182h6.384v1.322H-18.07v3.1h4.514V-4.44H-18.07v3.117h4.907V0Zm10,0h-1.631l3.664-10.182H-5.8L-2.132,0H-3.763L-6.642-8.332h-.08Zm.273-3.987h5.29v1.293h-5.29ZM5.508-7.507a1.46,1.46,0,0,0-.656-1.1A2.535,2.535,0,0,0,3.4-8.994a2.734,2.734,0,0,0-1.084.2,1.676,1.676,0,0,0-.708.537,1.27,1.27,0,0,0-.251.773,1.123,1.123,0,0,0,.172.626,1.454,1.454,0,0,0,.452.44,3.135,3.135,0,0,0,.6.293,6.392,6.392,0,0,0,.621.191l.994.259a7.584,7.584,0,0,1,1,.323,4.006,4.006,0,0,1,.95.537,2.6,2.6,0,0,1,.708.825,2.409,2.409,0,0,1,.271,1.178,2.716,2.716,0,0,1-.445,1.536A3,3,0,0,1,5.4-.219,4.845,4.845,0,0,1,3.36.169,4.939,4.939,0,0,1,1.382-.194,3.039,3.039,0,0,1,.074-1.225,2.97,2.97,0,0,1-.448-2.814H1.093a1.554,1.554,0,0,0,.36.917,1.883,1.883,0,0,0,.81.542,3.212,3.212,0,0,0,1.086.176,3.072,3.072,0,0,0,1.161-.206,1.913,1.913,0,0,0,.8-.577,1.356,1.356,0,0,0,.293-.868,1.074,1.074,0,0,0-.256-.741,1.939,1.939,0,0,0-.691-.477,6.861,6.861,0,0,0-.982-.333l-1.2-.328A4.662,4.662,0,0,1,.539-5.687,2.2,2.2,0,0,1-.175-7.4,2.542,2.542,0,0,1,.3-8.934,3.153,3.153,0,0,1,1.6-9.956a4.451,4.451,0,0,1,1.839-.365,4.348,4.348,0,0,1,1.827.363,3.087,3.087,0,0,1,1.25,1A2.531,2.531,0,0,1,6.99-7.507Zm13,2.416a6.1,6.1,0,0,1-.6,2.8,4.364,4.364,0,0,1-1.633,1.8,4.448,4.448,0,0,1-2.354.629A4.457,4.457,0,0,1,11.565-.49a4.361,4.361,0,0,1-1.633-1.8,6.108,6.108,0,0,1-.6-2.8,6.1,6.1,0,0,1,.6-2.8,4.364,4.364,0,0,1,1.633-1.8,4.457,4.457,0,0,1,2.359-.629,4.448,4.448,0,0,1,2.354.629,4.364,4.364,0,0,1,1.633,1.8A6.1,6.1,0,0,1,18.508-5.091Zm-1.521,0a4.914,4.914,0,0,0-.4-2.1,2.98,2.98,0,0,0-1.094-1.293,2.866,2.866,0,0,0-1.569-.44,2.862,2.862,0,0,0-1.571.44,2.987,2.987,0,0,0-1.091,1.293,4.914,4.914,0,0,0-.4,2.1,4.914,4.914,0,0,0,.4,2.1A2.987,2.987,0,0,0,12.353-1.7a2.862,2.862,0,0,0,1.571.44,2.866,2.866,0,0,0,1.569-.44A2.98,2.98,0,0,0,16.586-3,4.914,4.914,0,0,0,16.986-5.091Zm12.348-5.091V0H27.923L22.748-7.467h-.094V0H21.117V-10.182h1.422L27.719-2.7h.094v-7.477Z" transform="translate(29.335 10.321)" fill="#1a1a1a"/>
</svg>
