<svg xmlns="http://www.w3.org/2000/svg" width="50.985" height="10.49" viewBox="0 0 50.985 10.49">
  <path id="パス_313" data-name="パス 313" d="M1.979,0H.348L4.012-10.182H5.787L9.451,0H7.82L4.942-8.332h-.08Zm.273-3.987h5.29v1.293H2.252ZM11.618,0V-10.182h3.729a4,4,0,0,1,1.795.355,2.469,2.469,0,0,1,1.064.96,2.645,2.645,0,0,1,.353,1.36,2.241,2.241,0,0,1-.234,1.071,1.906,1.906,0,0,1-.624.7,2.757,2.757,0,0,1-.858.38v.1a2.056,2.056,0,0,1,.992.326,2.372,2.372,0,0,1,.8.853,2.647,2.647,0,0,1,.318,1.342,2.7,2.7,0,0,1-.365,1.4,2.5,2.5,0,0,1-1.126.979A4.549,4.549,0,0,1,15.52,0Zm1.536-1.317h2.217a2.35,2.35,0,0,0,1.581-.428,1.376,1.376,0,0,0,.477-1.069,1.677,1.677,0,0,0-.244-.885,1.744,1.744,0,0,0-.694-.641,2.246,2.246,0,0,0-1.066-.239H13.154Zm0-4.46h2.058a2.13,2.13,0,0,0,.932-.2,1.642,1.642,0,0,0,.661-.559,1.475,1.475,0,0,0,.246-.853,1.414,1.414,0,0,0-.442-1.059,1.889,1.889,0,0,0-1.357-.428h-2.1Zm17.166.686a6.1,6.1,0,0,1-.6,2.8A4.364,4.364,0,0,1,28.09-.49a4.448,4.448,0,0,1-2.354.629A4.457,4.457,0,0,1,23.377-.49a4.361,4.361,0,0,1-1.633-1.8,6.109,6.109,0,0,1-.6-2.8,6.1,6.1,0,0,1,.6-2.8,4.364,4.364,0,0,1,1.633-1.8,4.457,4.457,0,0,1,2.359-.629,4.448,4.448,0,0,1,2.354.629,4.364,4.364,0,0,1,1.633,1.8A6.1,6.1,0,0,1,30.32-5.091Zm-1.521,0a4.914,4.914,0,0,0-.4-2.1A2.98,2.98,0,0,0,27.3-8.479a2.866,2.866,0,0,0-1.569-.44,2.862,2.862,0,0,0-1.571.44,2.987,2.987,0,0,0-1.091,1.293,4.914,4.914,0,0,0-.4,2.1,4.914,4.914,0,0,0,.4,2.1A2.987,2.987,0,0,0,24.165-1.7a2.862,2.862,0,0,0,1.571.44A2.866,2.866,0,0,0,27.3-1.7,2.98,2.98,0,0,0,28.4-3,4.914,4.914,0,0,0,28.8-5.091Zm10.678-5.091h1.541v6.7a3.558,3.558,0,0,1-.5,1.892A3.487,3.487,0,0,1,39.1-.3a4.588,4.588,0,0,1-2.133.47A4.577,4.577,0,0,1,34.843-.3a3.487,3.487,0,0,1-1.412-1.293,3.558,3.558,0,0,1-.5-1.892v-6.7h1.536v6.572a2.438,2.438,0,0,0,.306,1.228,2.168,2.168,0,0,0,.868.843,2.747,2.747,0,0,0,1.332.306,2.773,2.773,0,0,0,1.34-.306,2.13,2.13,0,0,0,.865-.843,2.469,2.469,0,0,0,.3-1.228Zm3.976,1.322v-1.322h7.88v1.322H48.156V0H46.625V-8.859Z" transform="translate(-0.348 10.321)" fill="#1a1a1a"/>
</svg>
