<svg xmlns="http://www.w3.org/2000/svg" xmlns:xlink="http://www.w3.org/1999/xlink" width="180" height="180" viewBox="0 0 180 180">
  <defs>
    <clipPath id="clip-path">
      <rect id="長方形_80" data-name="長方形 80" width="115.946" height="81.553" fill="none" stroke="#707070" stroke-width="2"/>
    </clipPath>
  </defs>
  <g id="グループ_125" data-name="グループ 125" transform="translate(-1370 -7798)">
    <circle id="楕円形_12" data-name="楕円形 12" cx="90" cy="90" r="90" transform="translate(1370 7798)" fill="#fff"/>
    <g id="グループ_124" data-name="グループ 124">
      <g id="グループ_123" data-name="グループ 123" transform="translate(1402.027 7847.224)">
        <g id="グループ_122" data-name="グループ 122" clip-path="url(#clip-path)">
          <path id="長方形_76" data-name="長方形 76" d="M5-1h99.163a6.007,6.007,0,0,1,6,6V69.769a6.007,6.007,0,0,1-6,6H5a6.007,6.007,0,0,1-6-6V5A6.007,6.007,0,0,1,5-1Zm99.163,74.769a4,4,0,0,0,4-4V5a4,4,0,0,0-4-4H5A4,4,0,0,0,1,5V69.769a4,4,0,0,0,4,4Z" transform="translate(3.392 3.391)" fill="#1a1a1a"/>
        </g>
      </g>
      <path id="パス_271" data-name="パス 271" d="M-26.988,0h-1.631l3.664-10.182h1.775L-19.516,0h-1.631l-2.879-8.332h-.08Zm.273-3.987h5.29v1.293h-5.29ZM-17.469,0V-7.636h1.427v1.243h.094a1.986,1.986,0,0,1,.781-.987,2.313,2.313,0,0,1,1.3-.355,2.211,2.211,0,0,1,1.285.358,2.1,2.1,0,0,1,.768.984h.08a2.163,2.163,0,0,1,.87-.977,2.669,2.669,0,0,1,1.422-.365,2.312,2.312,0,0,1,1.7.651,2.65,2.65,0,0,1,.659,1.964V0H-8.575V-4.982A1.375,1.375,0,0,0-9-6.105a1.537,1.537,0,0,0-1.009-.348,1.444,1.444,0,0,0-1.129.445,1.635,1.635,0,0,0-.4,1.141V0h-1.482V-5.076a1.332,1.332,0,0,0-.388-1,1.385,1.385,0,0,0-1.009-.378,1.444,1.444,0,0,0-.778.221,1.636,1.636,0,0,0-.572.614,1.856,1.856,0,0,0-.216.91V0ZM-2.177.169A3.094,3.094,0,0,1-3.49-.1,2.177,2.177,0,0,1-4.417-.89a2.255,2.255,0,0,1-.341-1.268,2.055,2.055,0,0,1,.249-1.064,1.834,1.834,0,0,1,.671-.661,3.505,3.505,0,0,1,.945-.368A9.391,9.391,0,0,1-1.829-4.44q.686-.08,1.114-.132a1.612,1.612,0,0,0,.621-.172A.42.42,0,0,0,.1-5.131v-.035A1.349,1.349,0,0,0-.265-6.175a1.493,1.493,0,0,0-1.086-.358A1.893,1.893,0,0,0-2.533-6.2a1.793,1.793,0,0,0-.594.733l-1.4-.318A2.7,2.7,0,0,1-3.8-6.913a2.966,2.966,0,0,1,1.106-.626,4.379,4.379,0,0,1,1.317-.2A4.787,4.787,0,0,1-.4-7.629a2.9,2.9,0,0,1,.964.39,2.157,2.157,0,0,1,.738.808,2.81,2.81,0,0,1,.288,1.36V0H.14V-1.044H.08a2.115,2.115,0,0,1-.433.567,2.3,2.3,0,0,1-.741.462A2.874,2.874,0,0,1-2.177.169Zm.323-1.193A2.15,2.15,0,0,0-.8-1.268a1.722,1.722,0,0,0,.671-.639A1.651,1.651,0,0,0,.1-2.754v-.984A.753.753,0,0,1-.2-3.592a4.215,4.215,0,0,1-.515.114q-.288.047-.562.085l-.457.062a3.639,3.639,0,0,0-.788.184,1.348,1.348,0,0,0-.567.37.934.934,0,0,0-.211.639.945.945,0,0,0,.408.833A1.792,1.792,0,0,0-1.854-1.024ZM4.111,0V-1.019L8.247-6.274v-.07h-4V-7.636H10.1v1.084L6.125-1.362v.07h4.116V0ZM15.689.154a3.506,3.506,0,0,1-1.874-.492,3.319,3.319,0,0,1-1.243-1.377,4.57,4.57,0,0,1-.442-2.068,4.613,4.613,0,0,1,.442-2.078,3.312,3.312,0,0,1,1.243-1.382,3.506,3.506,0,0,1,1.874-.492,3.506,3.506,0,0,1,1.874.492,3.312,3.312,0,0,1,1.243,1.382,4.613,4.613,0,0,1,.442,2.078,4.57,4.57,0,0,1-.442,2.068A3.319,3.319,0,0,1,17.563-.338,3.506,3.506,0,0,1,15.689.154Zm0-1.248a1.782,1.782,0,0,0,1.153-.368,2.173,2.173,0,0,0,.679-.979,3.935,3.935,0,0,0,.221-1.347,3.941,3.941,0,0,0-.221-1.345,2.205,2.205,0,0,0-.679-.987,1.766,1.766,0,0,0-1.153-.373,1.784,1.784,0,0,0-1.161.373,2.2,2.2,0,0,0-.681.987,3.941,3.941,0,0,0-.221,1.345,3.935,3.935,0,0,0,.221,1.347,2.164,2.164,0,0,0,.681.979A1.8,1.8,0,0,0,15.694-1.094Zm7.4-3.44V0H21.6V-7.636h1.427v1.243h.094a2.178,2.178,0,0,1,.828-.974,2.559,2.559,0,0,1,1.424-.368,2.771,2.771,0,0,1,1.367.326,2.209,2.209,0,0,1,.91.967,3.5,3.5,0,0,1,.323,1.586V0H26.491V-4.678a1.847,1.847,0,0,0-.433-1.3,1.535,1.535,0,0,0-1.188-.47,1.848,1.848,0,0,0-.917.224,1.592,1.592,0,0,0-.631.654A2.162,2.162,0,0,0,23.091-4.534Z" transform="translate(1460 7893)" fill="#b5002b"/>
      <path id="パス_20" data-name="パス 20" d="M-14833.842-2571.539l18.018-18.015h14.584l-32.6,32.6Z" transform="translate(16240 10440)" fill="#1a1a1a"/>
      <path id="パス_21" data-name="パス 21" d="M-14801.24-2574.968l-18.018,18.015h-14.584l32.6-32.6Z" transform="translate(16316 10482.554)" fill="#1a1a1a"/>
    </g>
  </g>
</svg>
