<svg xmlns="http://www.w3.org/2000/svg" width="63.173" height="10.49" viewBox="0 0 63.173 10.49">
  <path id="パス_273" data-name="パス 273" d="M-31.475-10.182h1.864l3.241,7.915h.119l3.241-7.915h1.864V0h-1.462V-7.368H-22.7l-3,7.353h-1.213l-3-7.358h-.094V0h-1.462ZM-18.206,0V-10.182h6.384v1.322H-16.67v3.1h4.514V-4.44H-16.67v3.117h4.907V0Zm9.142,0V-10.182h3.629a4.233,4.233,0,0,1,1.966.408A2.711,2.711,0,0,1-2.3-8.648,3.436,3.436,0,0,1-1.911-6.99,3.35,3.35,0,0,1-2.3-5.347a2.656,2.656,0,0,1-1.173,1.1,4.368,4.368,0,0,1-1.966.393H-8.19V-5.175h2.61a2.954,2.954,0,0,0,1.216-.214,1.416,1.416,0,0,0,.689-.621,2.045,2.045,0,0,0,.219-.979,2.127,2.127,0,0,0-.221-1,1.472,1.472,0,0,0-.691-.649A2.853,2.853,0,0,0-5.6-8.864H-7.528V0Zm5.026-4.594L-1.523,0h-1.75L-5.739-4.594ZM2.2-10.182V0H.664V-10.182ZM4.635-8.859v-1.322h7.88v1.322H9.338V0H7.807V-8.859ZM18.356.169a3.321,3.321,0,0,1-2.013-.621,3.829,3.829,0,0,1-1.278-1.795,8.093,8.093,0,0,1-.442-2.839,7.994,7.994,0,0,1,.445-2.829A3.838,3.838,0,0,1,16.35-9.7a3.291,3.291,0,0,1,2.006-.616,3.271,3.271,0,0,1,2,.619,3.863,3.863,0,0,1,1.28,1.79,7.973,7.973,0,0,1,.445,2.826,8.089,8.089,0,0,1-.442,2.841A3.846,3.846,0,0,1,20.364-.45,3.279,3.279,0,0,1,18.356.169Zm0-1.327a1.8,1.8,0,0,0,1.618-1.009,5.908,5.908,0,0,0,.584-2.918,7.478,7.478,0,0,0-.266-2.145,2.916,2.916,0,0,0-.761-1.332,1.678,1.678,0,0,0-1.176-.455A1.8,1.8,0,0,0,16.74-8a5.936,5.936,0,0,0-.592,2.918,7.5,7.5,0,0,0,.266,2.15,2.892,2.892,0,0,0,.758,1.327A1.692,1.692,0,0,0,18.356-1.158ZM28.1.139a4.5,4.5,0,0,1-1.827-.353A3.074,3.074,0,0,1,25-1.2a2.578,2.578,0,0,1-.5-1.459h1.561a1.326,1.326,0,0,0,.306.783,1.784,1.784,0,0,0,.723.51,2.655,2.655,0,0,0,.994.179,2.578,2.578,0,0,0,1.066-.209,1.734,1.734,0,0,0,.728-.584,1.472,1.472,0,0,0,.263-.868,1.585,1.585,0,0,0-.261-.9,1.742,1.742,0,0,0-.761-.614,2.938,2.938,0,0,0-1.206-.224h-.86V-5.837h.86a2.3,2.3,0,0,0,1-.2,1.625,1.625,0,0,0,.674-.569,1.51,1.51,0,0,0,.244-.858,1.563,1.563,0,0,0-.211-.823,1.462,1.462,0,0,0-.6-.549,1.953,1.953,0,0,0-.907-.2,2.36,2.36,0,0,0-.927.181,1.743,1.743,0,0,0-.7.517,1.341,1.341,0,0,0-.288.8H24.718a2.5,2.5,0,0,1,.49-1.452,3.131,3.131,0,0,1,1.23-.979,4.013,4.013,0,0,1,1.7-.353,3.55,3.55,0,0,1,1.693.38,2.827,2.827,0,0,1,1.1,1.012,2.545,2.545,0,0,1,.385,1.382A2.221,2.221,0,0,1,30.846-6.1a2.326,2.326,0,0,1-1.275.8v.08a2.48,2.48,0,0,1,1.574.805A2.373,2.373,0,0,1,31.7-2.794a2.524,2.524,0,0,1-.465,1.506,3.182,3.182,0,0,1-1.28,1.047A4.317,4.317,0,0,1,28.1.139Z" transform="translate(31.475 10.321)" fill="#1a1a1a"/>
</svg>
