<svg xmlns="http://www.w3.org/2000/svg" xmlns:xlink="http://www.w3.org/1999/xlink" width="180" height="67" viewBox="0 0 180 67">
  <defs>
    <clipPath id="clip-path">
      <rect id="長方形_85" data-name="長方形 85" width="12.675" height="10.545" fill="none" stroke="#1a1a1a" stroke-width="1"/>
    </clipPath>
  </defs>
  <g id="グループ_298" data-name="グループ 298" transform="translate(-16 -12892)">
    <rect id="長方形_7" data-name="長方形 7" width="180" height="67" rx="10" transform="translate(16 12892)" fill="#b5002b"/>
    <g id="グループ_297" data-name="グループ 297">
      <g id="グループ_171" data-name="グループ 171" transform="translate(-457 2600)">
        <circle id="楕円形_24" data-name="楕円形 24" cx="12" cy="12" r="12" transform="translate(492 10308)" fill="#fff"/>
        <g id="グループ_169" data-name="グループ 169" transform="translate(497.506 10314.57)">
          <path id="線_25" data-name="線 25" d="M1.859,2.209a.5.5,0,0,1-.338-.132L-.338.368a.5.5,0,0,1-.03-.706.5.5,0,0,1,.706-.03L2.2,1.341a.5.5,0,0,1-.339.868Z" transform="translate(6.472 3.564)" fill="#1a1a1a"/>
          <path id="線_26" data-name="線 26" d="M0,2.209a.5.5,0,0,1-.368-.162.5.5,0,0,1,.03-.706L1.521-.368a.5.5,0,0,1,.706.03A.5.5,0,0,1,2.2.368L.338,2.077A.5.5,0,0,1,0,2.209Z" transform="translate(6.472 5.273)" fill="#1a1a1a"/>
          <g id="グループ_170" data-name="グループ 170">
            <g id="グループ_169-2" data-name="グループ 169" clip-path="url(#clip-path)">
              <path id="線_27" data-name="線 27" d="M7.857.5H0A.5.5,0,0,1-.5,0,.5.5,0,0,1,0-.5H7.857a.5.5,0,0,1,.5.5A.5.5,0,0,1,7.857.5Z" transform="translate(0.474 5.273)" fill="#1a1a1a"/>
              <path id="パス_96" data-name="パス 96" d="M58.235,19.1h-8.1a1.25,1.25,0,0,1-1.249-1.249V16.093a.5.5,0,0,1,1,0v1.755a.249.249,0,0,0,.249.249h8.1a.249.249,0,0,0,.249-.249v-8.1a.249.249,0,0,0-.249-.249h-8.1a.249.249,0,0,0-.249.249V11.5a.5.5,0,0,1-1,0V9.749A1.25,1.25,0,0,1,50.135,8.5h8.1a1.25,1.25,0,0,1,1.249,1.249v8.1A1.25,1.25,0,0,1,58.235,19.1Z" transform="translate(-46.783 -8.526)" fill="#1a1a1a"/>
            </g>
          </g>
        </g>
      </g>
      <path id="パス_451" data-name="パス 451" d="M5.952-9.06a10.964,10.964,0,0,1-.9,1.146q-.528.594-1.164,1.182T2.538-5.6a17.176,17.176,0,0,1-1.458,1,2.545,2.545,0,0,0-.2-.3q-.126-.168-.264-.33A2.86,2.86,0,0,0,.36-5.5,14.6,14.6,0,0,0,1.872-6.5,15.569,15.569,0,0,0,3.27-7.7,15.6,15.6,0,0,0,4.452-8.964a8.683,8.683,0,0,0,.864-1.224h1.14A15.161,15.161,0,0,0,7.548-8.844a15.378,15.378,0,0,0,1.29,1.26,15.648,15.648,0,0,0,1.416,1.1,13.435,13.435,0,0,0,1.422.858,3.356,3.356,0,0,0-.408.468q-.192.264-.348.516a14.6,14.6,0,0,1-1.4-.942q-.708-.534-1.38-1.122A16.651,16.651,0,0,1,6.906-7.9,11.043,11.043,0,0,1,5.952-9.06ZM3.4-6.384H8.58v1.056H3.4Zm-1.6,2.4H8.94V-2.9H1.8Zm6.936,0H8.9l.192-.06.9.276q-.288.7-.66,1.53T8.556-.552Q8.148.3,7.776,1.056L6.576.72Q6.864.168,7.17-.462t.6-1.254q.294-.624.546-1.176t.42-.948ZM20.268-9.576q-.012.072-.03.252t-.03.36q-.012.18-.012.264-.012.228-.018.63t-.006.882q0,.48.006.966t.012.912q.006.426.006.714l-1.164-.48v-.546q0-.354-.006-.8t-.012-.894q-.006-.444-.012-.816T18.984-8.7q-.024-.288-.054-.54t-.042-.336ZM13.7-7.98,14.862-8q.642-.012,1.362-.03l1.434-.036q.714-.018,1.362-.024T20.172-8.1h3.612L23.76-6.972q-.516-.024-1.4-.042t-2.214-.018q-.792,0-1.632.012t-1.686.042q-.846.03-1.632.066t-1.458.084Zm6.384,3.5a3.972,3.972,0,0,1-.234,1.47,1.861,1.861,0,0,1-.666.876,1.811,1.811,0,0,1-1.044.294,2.062,2.062,0,0,1-.726-.132,1.971,1.971,0,0,1-.648-.4,1.977,1.977,0,0,1-.468-.66,2.174,2.174,0,0,1-.174-.894,2.061,2.061,0,0,1,.306-1.122,2.166,2.166,0,0,1,.816-.762,2.3,2.3,0,0,1,1.11-.276,2.172,2.172,0,0,1,1.242.336,2.084,2.084,0,0,1,.75.906,3.159,3.159,0,0,1,.252,1.29,4.427,4.427,0,0,1-.18,1.218,3.968,3.968,0,0,1-.6,1.218A4.441,4.441,0,0,1,18.69-.042a6.293,6.293,0,0,1-1.782.8L15.888-.252A7.459,7.459,0,0,0,17.34-.7a4.2,4.2,0,0,0,1.116-.7,2.891,2.891,0,0,0,.726-.984,3.188,3.188,0,0,0,.258-1.326,1.449,1.449,0,0,0-.318-1.044,1.044,1.044,0,0,0-.774-.324,1.123,1.123,0,0,0-.528.132,1.044,1.044,0,0,0-.408.384,1.141,1.141,0,0,0-.156.612.978.978,0,0,0,.33.786,1.138,1.138,0,0,0,.762.282.918.918,0,0,0,.594-.2,1.072,1.072,0,0,0,.342-.624,2.572,2.572,0,0,0-.048-1.086Zm12.864-2.4q.156.228.348.558t.378.66q.186.33.306.546l-.816.348q-.12-.252-.294-.576t-.354-.648a6.46,6.46,0,0,0-.348-.564Zm1.428-.552a5.511,5.511,0,0,1,.348.528q.192.324.378.648t.318.564l-.8.348q-.132-.252-.312-.576t-.366-.636q-.186-.312-.354-.54ZM33.636-8.76q-.228.168-.486.378l-.45.366q-.288.252-.726.6t-.912.732q-.474.384-.918.738t-.756.63a2.368,2.368,0,0,0-.456.48.321.321,0,0,0,.006.378,2.956,2.956,0,0,0,.486.5q.3.252.726.6t.912.75q.486.4.99.834t.972.852q.468.42.84.792l-1.08,1q-.216-.24-.45-.486T31.86-.108q-.3-.312-.75-.732t-.978-.876L29.094-2.61q-.51-.438-.93-.786a2.594,2.594,0,0,1-.75-.876.833.833,0,0,1,.054-.768,3.246,3.246,0,0,1,.792-.852q.336-.288.8-.666t.966-.8q.5-.42.948-.81t.75-.69q.216-.216.444-.462a3.047,3.047,0,0,0,.348-.438Zm5.808.408q.372.012.654.018t.51.006h7.026q.306,0,.594-.012-.012.24-.018.51t-.006.522v5.892q0,.156.006.4t.006.5q0,.252.006.432t.006.216H46.92a1.853,1.853,0,0,0,.012-.288q0-.24.006-.564t.006-.6q0-.12,0-.492t0-.9q0-.528,0-1.128t0-1.182q0-.582,0-1.056t0-.762q0-.288,0-.288H40.716v6.21q0,.234.006.456t.012.39q.006.168.006.2H39.432q0-.036.006-.216T39.45-.5q.006-.24.012-.486t.006-.426V-7.824Q39.468-8.112,39.444-8.352Zm7.98,6.612v1.2H40.1v-1.2ZM59.652-9.7a5.483,5.483,0,0,1,.336.5q.18.3.348.6t.288.54l-.792.336q-.18-.36-.444-.84a8.29,8.29,0,0,0-.5-.816Zm1.356-.516q.168.228.354.528t.36.594q.174.294.282.51l-.78.348q-.192-.384-.462-.852a8.067,8.067,0,0,0-.522-.8ZM60.576-7.2a2.005,2.005,0,0,0-.18.348q-.084.2-.156.384A10.642,10.642,0,0,1,59.8-5.2a12.043,12.043,0,0,1-.708,1.422,10.451,10.451,0,0,1-.96,1.386A10.268,10.268,0,0,1,56.154-.54,12.5,12.5,0,0,1,53.328.936L52.212-.072a10.969,10.969,0,0,0,2.046-.8,9.062,9.062,0,0,0,1.56-1.02,9.871,9.871,0,0,0,1.206-1.17,7.141,7.141,0,0,0,.822-1.146,11.63,11.63,0,0,0,.636-1.26A5.581,5.581,0,0,0,58.848-6.6H54.576l.456-1.08h3.66a3.964,3.964,0,0,0,.492-.03,1.942,1.942,0,0,0,.408-.09ZM56.6-9.048q-.18.264-.354.576t-.27.48a11.869,11.869,0,0,1-.942,1.464,12.874,12.874,0,0,1-1.314,1.5,11.729,11.729,0,0,1-1.668,1.356L51-4.452a10,10,0,0,0,1.392-1A9.5,9.5,0,0,0,53.454-6.51a10.958,10.958,0,0,0,.774-1.026q.324-.492.54-.888a3.816,3.816,0,0,0,.24-.5,5.715,5.715,0,0,0,.2-.576Zm7.308,4.572a19.979,19.979,0,0,0,2.91-1,18.049,18.049,0,0,0,2.322-1.206,11.94,11.94,0,0,0,1.242-.864q.606-.48,1.146-1a13.339,13.339,0,0,0,.948-1l1.008.96q-.528.54-1.14,1.068T71.058-6.5q-.678.486-1.386.918-.66.408-1.5.822T66.4-3.966q-.936.378-1.9.678ZM68.928-6.06l1.332-.348V-.972q0,.24.006.522t.024.522a2.083,2.083,0,0,0,.054.372H68.856q.012-.132.036-.372t.03-.522q.006-.282.006-.522ZM78.4-8.94q.324.216.744.534T80-7.728q.438.36.834.7a6.938,6.938,0,0,1,.636.6l-.948.972q-.228-.24-.6-.582t-.8-.708q-.426-.366-.846-.7T77.52-8ZM77.16-.912a13.6,13.6,0,0,0,1.86-.414,12.072,12.072,0,0,0,1.566-.588,13.242,13.242,0,0,0,1.29-.678,10.647,10.647,0,0,0,1.77-1.356,12.644,12.644,0,0,0,1.422-1.584,9.109,9.109,0,0,0,.972-1.584l.732,1.308a10.891,10.891,0,0,1-1.062,1.56,13.079,13.079,0,0,1-1.422,1.494,11.843,11.843,0,0,1-1.728,1.29,14.8,14.8,0,0,1-1.314.72A12.81,12.81,0,0,1,79.71-.12a12.513,12.513,0,0,1-1.746.444ZM92.448-9.42q-.048.324-.084.69t-.048.69q-.024.492-.048,1.218T92.22-5.286q-.024.81-.036,1.6t-.012,1.41a1.88,1.88,0,0,0,.234,1.008,1.307,1.307,0,0,0,.654.534A2.582,2.582,0,0,0,94-.576a4.664,4.664,0,0,0,1.428-.2,4.408,4.408,0,0,0,1.146-.552,5.293,5.293,0,0,0,.918-.792,7.888,7.888,0,0,0,.732-.924L99.072-2a7.165,7.165,0,0,1-.756.9,6.254,6.254,0,0,1-1.086.876,5.808,5.808,0,0,1-1.44.66,6.108,6.108,0,0,1-1.818.252,4.247,4.247,0,0,1-1.6-.276A2.2,2.2,0,0,1,91.308-.48a2.99,2.99,0,0,1-.384-1.608q0-.516.012-1.164t.03-1.338q.018-.69.036-1.35t.03-1.212q.012-.552.012-.888,0-.384-.03-.738a4.4,4.4,0,0,0-.1-.654Zm8.94,1.32q.348-.012.648-.03l.468-.03q.324-.024.87-.078l1.242-.12q.7-.066,1.488-.132l1.62-.138q.648-.06,1.248-.1T110.1-8.8q.528-.03.936-.042v1.212q-.324,0-.75.012t-.846.048a4.232,4.232,0,0,0-.732.12,3.3,3.3,0,0,0-1.092.564,4.017,4.017,0,0,0-.84.888,4.36,4.36,0,0,0-.54,1.062,3.361,3.361,0,0,0-.192,1.1,2.685,2.685,0,0,0,.228,1.14,2.445,2.445,0,0,0,.624.834,3.532,3.532,0,0,0,.906.564,5.022,5.022,0,0,0,1.092.33,8.285,8.285,0,0,0,1.182.132L109.632.432a6.378,6.378,0,0,1-1.4-.2,6.355,6.355,0,0,1-1.308-.5,4.342,4.342,0,0,1-1.092-.792,3.508,3.508,0,0,1-.744-1.1,3.566,3.566,0,0,1-.27-1.428,4.466,4.466,0,0,1,.306-1.668,4.925,4.925,0,0,1,.78-1.338,4.66,4.66,0,0,1,.954-.894q-.36.048-.888.1t-1.134.12q-.606.066-1.218.144t-1.158.162q-.546.084-.942.18ZM.564,11.46H6.3v1.056H.564ZM7.008,9.312H8.1v6.672H7.008Zm-4.02-.36h1.1V19h-1.1ZM9.9,8.1h1.128v9.468a1.962,1.962,0,0,1-.132.816.824.824,0,0,1-.456.408,2.859,2.859,0,0,1-.894.186q-.558.042-1.386.03a2.533,2.533,0,0,0-.09-.366q-.066-.21-.144-.426a2.02,2.02,0,0,0-.174-.372q.624.024,1.14.03t.7-.006a.351.351,0,0,0,.24-.066.309.309,0,0,0,.072-.234ZM5.388,7.932,6.2,8.8a13.336,13.336,0,0,1-1.632.522q-.912.234-1.884.4t-1.9.3A1.748,1.748,0,0,0,.66,9.558a3.947,3.947,0,0,0-.2-.426Q1.116,9.024,1.8,8.9t1.344-.276Q3.8,8.472,4.38,8.3A8.68,8.68,0,0,0,5.388,7.932Zm-2.424,4.02.78.348q-.228.672-.54,1.392t-.69,1.4q-.378.684-.786,1.284a7.1,7.1,0,0,1-.84,1.032,2.6,2.6,0,0,0-.168-.366q-.108-.2-.216-.39a3.069,3.069,0,0,0-.216-.336,8.86,8.86,0,0,0,.792-.888,10.353,10.353,0,0,0,.75-1.1q.354-.594.648-1.2A9.852,9.852,0,0,0,2.964,11.952Zm.972,1.236q.18.12.51.384t.7.582q.372.318.69.582t.45.384l-.648.972q-.192-.216-.492-.534T4.512,14.9q-.336-.336-.648-.636t-.528-.48ZM15.024,8.7h7.6V9.78h-7.6Zm0,2.784h7.6V12.54h-7.6Zm-.048,2.844h7.68v1.08h-7.68Zm-.6-5.628H15.5v4.332q0,.7-.066,1.5a13.724,13.724,0,0,1-.234,1.626,7.739,7.739,0,0,1-.5,1.572,4.887,4.887,0,0,1-.882,1.35,1.589,1.589,0,0,0-.246-.264q-.162-.144-.336-.276a2.522,2.522,0,0,0-.306-.2,4.614,4.614,0,0,0,.792-1.218,6.433,6.433,0,0,0,.426-1.356,10.533,10.533,0,0,0,.18-1.4q.042-.7.042-1.338Zm7.812,0h1.128v8.88a1.773,1.773,0,0,1-.132.762.879.879,0,0,1-.456.414,2.78,2.78,0,0,1-.876.162q-.552.03-1.4.018a2.544,2.544,0,0,0-.138-.54,4.165,4.165,0,0,0-.234-.552q.384.024.756.03t.654,0q.282-.006.39-.006a.349.349,0,0,0,.246-.066.327.327,0,0,0,.066-.234Zm-4.068.42h1.14v9.768H18.12Zm14.748-.7q-.012.072-.03.252t-.03.36q-.012.18-.012.264-.012.228-.018.63t-.006.882q0,.48.006.966t.012.912q.006.426.006.714l-1.164-.48v-.546q0-.354-.006-.8t-.012-.894q-.006-.444-.012-.816T31.584,9.3q-.024-.288-.054-.54t-.042-.336ZM26.3,10.02,27.462,10q.642-.012,1.362-.03l1.434-.036q.714-.018,1.362-.024T32.772,9.9h3.612l-.024,1.128q-.516-.024-1.4-.042t-2.214-.018q-.792,0-1.632.012t-1.686.042q-.846.03-1.632.066t-1.458.084Zm6.384,3.5a3.972,3.972,0,0,1-.234,1.47,1.861,1.861,0,0,1-.666.876,1.811,1.811,0,0,1-1.044.294,2.062,2.062,0,0,1-.726-.132A1.984,1.984,0,0,1,28.9,14.97a2.174,2.174,0,0,1-.174-.894,2.061,2.061,0,0,1,.306-1.122,2.166,2.166,0,0,1,.816-.762,2.3,2.3,0,0,1,1.11-.276,2.172,2.172,0,0,1,1.242.336,2.084,2.084,0,0,1,.75.906,3.159,3.159,0,0,1,.252,1.29,4.427,4.427,0,0,1-.18,1.218,3.968,3.968,0,0,1-.6,1.218,4.441,4.441,0,0,1-1.134,1.074,6.293,6.293,0,0,1-1.782.8l-1.02-1.008a7.46,7.46,0,0,0,1.452-.45,4.2,4.2,0,0,0,1.116-.7,2.891,2.891,0,0,0,.726-.984,3.188,3.188,0,0,0,.258-1.326,1.449,1.449,0,0,0-.318-1.044,1.044,1.044,0,0,0-.774-.324,1.123,1.123,0,0,0-.528.132,1.044,1.044,0,0,0-.408.384,1.141,1.141,0,0,0-.156.612.978.978,0,0,0,.33.786,1.138,1.138,0,0,0,.762.282.917.917,0,0,0,.594-.2,1.072,1.072,0,0,0,.342-.624,2.572,2.572,0,0,0-.048-1.086Zm7.872-4.5q.228.024.486.036t.474.012q.18,0,.582-.006t.912-.018q.51-.012,1.014-.03t.906-.042l.594-.036q.324-.024.5-.048a1.316,1.316,0,0,0,.27-.06l.66.864q-.18.12-.372.24a3.827,3.827,0,0,0-.384.276q-.228.168-.594.462t-.786.648q-.42.354-.828.69t-.732.6a3.588,3.588,0,0,1,.72-.162,6.209,6.209,0,0,1,.72-.042,4.046,4.046,0,0,1,1.788.384,3.19,3.19,0,0,1,1.248,1.032,2.541,2.541,0,0,1,.456,1.5,2.972,2.972,0,0,1-.5,1.692,3.29,3.29,0,0,1-1.44,1.164,5.6,5.6,0,0,1-2.286.42,4.224,4.224,0,0,1-1.452-.228,2.2,2.2,0,0,1-.966-.642,1.455,1.455,0,0,1-.342-.954,1.536,1.536,0,0,1,.246-.834,1.762,1.762,0,0,1,.7-.624,2.218,2.218,0,0,1,1.038-.234,2.593,2.593,0,0,1,1.362.33,2.276,2.276,0,0,1,.84.87,2.633,2.633,0,0,1,.318,1.176l-1.092.156A1.94,1.94,0,0,0,44.2,16.44a1.249,1.249,0,0,0-1.014-.456.954.954,0,0,0-.63.2.608.608,0,0,0-.246.48.694.694,0,0,0,.4.624,2.089,2.089,0,0,0,1.038.228,5.18,5.18,0,0,0,1.74-.258,2.273,2.273,0,0,0,1.092-.756,1.958,1.958,0,0,0,.372-1.206,1.627,1.627,0,0,0-.336-1.008,2.185,2.185,0,0,0-.924-.69,3.456,3.456,0,0,0-1.344-.246,4.988,4.988,0,0,0-1.314.162,4.472,4.472,0,0,0-1.11.468,6.349,6.349,0,0,0-1.014.756q-.5.45-1.026,1.026l-.876-.888q.36-.288.792-.648l.87-.726q.438-.366.828-.7t.654-.546l.612-.5q.36-.294.744-.618l.732-.618q.348-.294.576-.5-.192.012-.528.024t-.738.03l-.81.036q-.408.018-.744.036t-.516.03q-.216.012-.45.03t-.438.042Z" transform="translate(65 12922)" fill="#fff"/>
    </g>
  </g>
</svg>
